<svg width="34" height="48" viewBox="0 0 34 48" fill="none" xmlns="http://www.w3.org/2000/svg">
<path d="M33.0422 16.5211C33.0422 23.9044 22.2243 39.9508 18.096 45.8056C17.3209 46.9049 15.7213 46.9049 14.9461 45.8056C10.8179 39.9508 0 23.9044 0 16.5211C0 7.39674 7.39674 0 16.5211 0C25.6454 0 33.0422 7.39674 33.0422 16.5211Z" fill="#499780"/>
<circle cx="16.521" cy="16.2544" r="12.4185" fill="white"/>
<path d="M15.2511 27.7551C15.5122 27.296 15.7407 26.8197 15.9282 26.3289C16.2058 25.6032 16.4012 24.8462 16.5126 24.0708C16.5162 24.0476 16.5339 24.0363 16.5516 24.0363C16.5697 24.0363 16.5875 24.0476 16.5906 24.0708C16.7021 24.8458 16.8974 25.6032 17.1751 26.3289C17.3626 26.8197 17.591 27.296 17.8521 27.7551H15.2507H15.2511ZM23.9534 27.9013L23.9499 27.8123C23.9912 27.846 24.0968 27.8778 24.2098 27.9013H24.5989C24.6009 27.866 24.5678 27.8229 24.5678 27.8229C24.5678 27.8229 25.094 27.8644 25.1566 27.8229C25.2197 27.7813 25.2338 27.7355 25.1318 27.6026C25.3717 27.6755 25.7435 27.6959 25.8061 27.6567C25.8687 27.6171 25.8372 27.5465 25.6868 27.4156C25.8644 27.5673 26.1023 27.5736 26.263 27.5924C26.4237 27.6112 26.6824 27.6692 26.7076 27.5924C26.7329 27.5155 26.5572 27.3595 26.5572 27.3595C26.5572 27.3595 26.8392 27.3117 26.9499 27.2952C27.0605 27.2788 27.2693 27.1745 27.3091 27.1392C27.3488 27.1039 27.6391 26.9169 27.2988 26.9483C26.9585 26.9792 26.7872 26.9087 26.7872 26.9087C26.7872 26.9087 26.8246 26.8381 26.7809 26.7817C26.7368 26.7256 26.6076 26.7817 26.3047 26.6194C26.0022 26.4574 25.8742 26.1552 25.8742 26.1552C25.8742 26.1552 25.9432 26.1658 26.0952 26.2548C26.2472 26.3438 26.3362 26.3202 26.3894 26.3046C26.4426 26.2889 26.3768 26.194 26.4394 26.194C26.5021 26.194 26.6399 26.3249 26.7604 26.3202C26.8809 26.3155 26.9026 26.314 26.9361 26.2767C26.9688 26.2395 27.0503 26.2191 27.1066 26.1803C27.1629 26.1411 27.2082 26.0054 27.072 26.054C26.9357 26.1023 26.7884 25.9572 26.5848 25.8588C26.3811 25.7608 26.2961 25.626 26.2961 25.626C26.2961 25.626 26.413 25.626 26.5466 25.5989C26.6801 25.5719 26.7384 25.4346 26.632 25.4182C26.5257 25.4013 26.3311 25.2998 26.1558 25.1708C25.9806 25.0418 25.7718 24.8878 25.5682 24.7521C25.7718 24.7353 25.9377 24.7788 26.016 24.8301C26.0944 24.8815 26.1523 24.8878 26.2523 24.8176C26.456 24.8207 26.5217 24.7211 26.5186 24.6678C26.5154 24.6149 26.426 24.5992 26.3823 24.5992C26.3386 24.5992 26.2709 24.5557 26.1645 24.5059C26.0893 24.4263 25.9014 24.2723 25.9014 24.2723C25.9014 24.2723 25.8746 24.0994 25.7825 23.9763C25.6899 23.8532 25.5694 23.872 25.4753 23.7391C25.5615 23.8171 25.7809 23.7485 25.7809 23.7485C25.7809 23.7485 25.9499 23.861 26.0861 23.8732C26.2224 23.8857 26.326 23.8732 26.3666 23.803C26.4071 23.7328 26.365 23.694 26.2913 23.6831C26.2787 23.6395 26.2071 23.638 26.1318 23.5847C26.1007 23.5098 25.9861 23.4568 25.9688 23.4286C25.9514 23.4004 25.8545 23.2824 25.7325 23.2275C25.6104 23.173 25.5249 23.0676 25.5249 23.0676C25.5249 23.0676 25.7234 23.1593 25.7923 23.1613C25.8612 23.1636 25.903 23.1675 25.955 23.1217C26.0282 23.1217 26.0428 23.0801 26.0365 23.0299C26.0302 22.9801 25.9613 23.0009 25.9384 22.9656C25.9156 22.9304 25.8297 22.9241 25.721 22.8472C25.6127 22.77 25.5918 22.6289 25.5918 22.6289C25.5918 22.6289 25.9404 22.6289 25.9715 22.6038C26.003 22.5791 26.003 22.5415 26.0011 22.4874C25.9987 22.4337 25.9759 22.4003 25.8924 22.396C25.8089 22.3917 25.8317 22.3564 25.7714 22.3211C25.7108 22.2859 25.6856 22.3004 25.6336 22.2423C25.5816 22.1843 25.5336 22.1467 25.4686 22.1134C25.4036 22.08 25.3536 22.0283 25.2929 21.9099C25.3512 21.8785 25.339 21.8213 25.339 21.8213C25.339 21.8213 25.4579 21.8201 25.5103 21.8201C25.5623 21.8201 25.6312 21.8327 25.6879 21.7684C25.7443 21.7037 25.7045 21.6104 25.6312 21.6041C25.5584 21.5978 25.4686 21.5814 25.3977 21.494C25.3268 21.4065 25.2409 21.363 25.1826 21.3046C25.1239 21.2466 25.0676 21.2591 25.0137 21.1988C24.9593 21.1384 24.9156 21.0302 24.9156 21.0302C24.9156 21.0302 25.1098 21.1215 25.1767 21.1341C25.2433 21.1466 25.2519 21.1525 25.4083 21.2235C25.5651 21.2944 25.6293 21.265 25.6505 21.2235C25.6714 21.1819 25.6293 21.1341 25.5757 21.0862C25.5213 21.0384 25.4627 20.9761 25.3603 20.9302C25.2579 20.8843 25.2098 20.7769 25.2098 20.7769C25.2098 20.7769 25.2472 20.7577 25.3185 20.7703C25.3894 20.7828 25.4603 20.7828 25.4816 20.7307C25.5024 20.6789 25.4709 20.6413 25.3855 20.5978C25.3 20.5543 25.2059 20.4668 25.118 20.4272C25.0302 20.3876 25.0471 20.3543 24.8987 20.2591C24.7506 20.1634 24.5186 19.8662 24.5186 19.8662C24.5186 19.8662 24.5706 19.8874 24.6336 19.9141C24.6962 19.9411 24.7088 19.9141 24.8341 19.9039C24.9593 19.8933 24.9554 19.8811 24.9759 19.8059C24.9967 19.7314 24.8443 19.642 24.7297 19.5691C24.6151 19.4962 24.6127 19.4421 24.5666 19.3488C24.5209 19.2555 24.404 19.2323 24.3122 19.0536C24.4166 19.1034 24.5336 19.0869 24.5627 19.0014C24.5918 18.9164 24.4623 18.7936 24.2413 18.5733C24.3165 18.6149 24.4418 18.5984 24.4335 18.4941C24.4248 18.3903 24.0452 18.2864 24.0243 18.1409C24.0034 17.9955 23.9491 17.9994 23.9239 17.8543C23.8987 17.7085 23.7525 17.6587 23.7525 17.4259C23.7525 17.193 23.6773 16.9354 23.6163 16.9354C23.5548 16.9354 23.4796 17.193 23.4796 17.4259C23.4796 17.6587 23.3339 17.7085 23.3083 17.8543C23.2834 17.9998 23.2291 17.9955 23.2082 18.1409C23.1873 18.2864 22.8073 18.3903 22.799 18.4941C22.7903 18.5984 22.916 18.6149 22.9912 18.5733C22.7699 18.7936 22.6407 18.9167 22.6694 19.0014C22.699 19.0865 22.8155 19.1034 22.9199 19.0536C22.8278 19.2323 22.7116 19.2551 22.6655 19.3488C22.6194 19.4421 22.6174 19.4966 22.5028 19.5691C22.3878 19.642 22.2354 19.731 22.2563 19.8059C22.2771 19.8807 22.2728 19.8933 22.3981 19.9039C22.5237 19.9141 22.5359 19.9411 22.5985 19.9141C22.6612 19.8874 22.7135 19.8662 22.7135 19.8662C22.7135 19.8662 22.4819 20.1634 22.3335 20.2591C22.185 20.3547 22.2019 20.3876 22.1141 20.4272C22.0266 20.4668 21.9325 20.5543 21.8467 20.5978C21.7612 20.6413 21.7297 20.6789 21.7506 20.7307C21.7714 20.7828 21.8423 20.7828 21.9136 20.7703C21.9845 20.7577 22.0223 20.7769 22.0223 20.7769C22.0223 20.7769 21.9739 20.8843 21.8719 20.9302C21.7699 20.9757 21.7112 21.0384 21.6568 21.0862C21.6025 21.1341 21.5607 21.1819 21.5816 21.2235C21.6025 21.265 21.6674 21.2944 21.8238 21.2235C21.9806 21.1529 21.9888 21.1466 22.0554 21.1341C22.1224 21.1215 22.3165 21.0302 22.3165 21.0302C22.3165 21.0302 22.2724 21.138 22.2185 21.1988C22.1641 21.2587 22.1078 21.2466 22.0491 21.3046C21.9904 21.3626 21.9049 21.4065 21.834 21.494C21.7628 21.5814 21.6734 21.5978 21.6001 21.6041C21.5268 21.6104 21.4875 21.7037 21.5438 21.7684C21.6001 21.8327 21.669 21.8201 21.7214 21.8201C21.7738 21.8201 21.8927 21.8213 21.8927 21.8213C21.8927 21.8213 21.8801 21.8781 21.9384 21.9099C21.8782 22.0283 21.8277 22.08 21.7628 22.1134C21.6982 22.1463 21.6505 22.1839 21.5977 22.2423C21.5481 22.2976 21.5229 22.287 21.4678 22.3168C21.4366 22.2937 21.4079 22.2757 21.4 22.2627C21.3831 22.2349 21.2858 22.1165 21.1637 22.0616C21.0416 22.0071 20.9565 21.9017 20.9565 21.9017C20.9565 21.9017 21.155 21.9934 21.224 21.9954C21.2929 21.9977 21.3346 22.0016 21.387 21.9558C21.4603 21.9558 21.4749 21.9142 21.4686 21.864C21.4622 21.8142 21.3933 21.835 21.3705 21.7997C21.3476 21.7645 21.2618 21.7582 21.1531 21.6813C21.0444 21.6041 21.0239 21.463 21.0239 21.463C21.0239 21.463 21.3724 21.463 21.404 21.4379C21.4351 21.4132 21.4351 21.3756 21.4335 21.3215C21.4311 21.2674 21.4083 21.2344 21.3248 21.2301C21.2413 21.2258 21.2641 21.1905 21.2035 21.1552C21.1428 21.12 21.118 21.1345 21.0656 21.0764C21.0133 21.0184 20.9652 20.9808 20.9006 20.9475C20.836 20.9141 20.786 20.8624 20.7253 20.744C20.784 20.7126 20.7714 20.6554 20.7714 20.6554C20.7714 20.6554 20.8904 20.6542 20.9427 20.6542C20.9951 20.6542 21.0637 20.6668 21.1204 20.6025C21.1767 20.5378 21.1369 20.4445 21.0637 20.4382C20.9908 20.4319 20.901 20.4155 20.8297 20.3281C20.7588 20.2406 20.673 20.1971 20.6147 20.1387C20.5564 20.0807 20.5001 20.0932 20.4457 20.0329C20.3913 19.9725 20.3472 19.8643 20.3472 19.8643C20.3472 19.8643 20.5418 19.9556 20.6084 19.9682C20.6753 19.9807 20.6832 19.987 20.84 20.0576C20.9967 20.1285 21.0609 20.0995 21.0822 20.0576C21.1031 20.016 21.0613 19.9682 21.0073 19.9203C20.953 19.8725 20.8947 19.8102 20.7919 19.7647C20.6895 19.7188 20.6418 19.6114 20.6418 19.6114C20.6418 19.6114 20.6793 19.5922 20.7505 19.6048C20.8214 19.6173 20.8923 19.6173 20.9132 19.5652C20.9341 19.5134 20.9026 19.4758 20.8171 19.4323C20.7316 19.3884 20.6375 19.3013 20.5497 19.2617C20.4622 19.2221 20.4788 19.1892 20.3303 19.0936C20.1822 18.9979 19.9506 18.7007 19.9506 18.7007C19.9506 18.7007 20.0026 18.7215 20.0652 18.7486C20.1279 18.7756 20.1405 18.7486 20.2657 18.7384C20.391 18.7278 20.3866 18.7156 20.4075 18.6404C20.4284 18.5659 20.2759 18.4765 20.1613 18.4036C20.0463 18.3307 20.0444 18.2766 19.9983 18.1833C19.9522 18.09 19.8352 18.0668 19.7435 17.8881C19.8482 17.9378 19.9648 17.9214 19.9939 17.8359C20.0231 17.7508 19.8939 17.6281 19.6726 17.4078C19.7478 17.4498 19.873 17.4329 19.8648 17.3286C19.8561 17.2247 19.476 17.1209 19.4555 16.9758C19.4347 16.8304 19.3803 16.8343 19.3551 16.6892C19.3303 16.5434 19.1838 16.4936 19.1838 16.2607C19.1838 16.0279 19.1086 15.7703 19.0475 15.7703C18.9861 15.7703 18.9108 16.0279 18.9108 16.2607C18.9108 16.4936 18.7651 16.5434 18.7399 16.6892C18.7147 16.8347 18.6603 16.8304 18.6399 16.9758C18.619 17.1212 18.2389 17.2251 18.2306 17.3286C18.222 17.4329 18.3476 17.4494 18.4228 17.4078C18.2011 17.6281 18.0719 17.7512 18.1011 17.8359C18.1302 17.921 18.2472 17.9378 18.3516 17.8881C18.2594 18.0668 18.1432 18.0896 18.0967 18.1833C18.051 18.2766 18.0487 18.3311 17.9341 18.4036C17.8191 18.4765 17.6666 18.5655 17.6875 18.6404C17.7084 18.7152 17.7041 18.7278 17.8293 18.7384C17.9546 18.7486 17.9672 18.7756 18.0298 18.7486C18.0924 18.7219 18.1444 18.7007 18.1444 18.7007C18.1444 18.7007 17.9124 18.9979 17.7643 19.0936C17.6158 19.1892 17.6328 19.2221 17.5449 19.2617C17.4776 19.2923 17.4067 19.3511 17.3382 19.3962C17.2941 19.3652 17.2436 19.3354 17.1846 19.3088C17.016 19.2335 16.9364 19.0559 16.9364 19.0559C16.9364 19.0559 16.9987 19.0242 17.1156 19.0449C17.2326 19.0653 17.35 19.0653 17.3842 18.9795C17.4189 18.894 17.3673 18.8321 17.2259 18.7603C17.0845 18.6882 16.9297 18.5443 16.7848 18.4788C16.6402 18.4138 16.6678 18.3589 16.4232 18.2013C16.1786 18.0433 15.7966 17.5533 15.7966 17.5533C15.7966 17.5533 15.8829 17.5878 15.9861 17.6321C16.0892 17.6764 16.1101 17.6321 16.3169 17.6148C16.5233 17.5976 16.5166 17.5772 16.5508 17.4533C16.5851 17.3302 16.3338 17.1828 16.1444 17.0628C15.9549 16.9425 15.9518 16.8535 15.8758 16.6994C15.7998 16.545 15.6072 16.5073 15.4555 16.2125C15.628 16.2952 15.821 16.2674 15.8691 16.1271C15.9175 15.9867 15.7041 15.7844 15.3389 15.4206C15.463 15.4892 15.6694 15.4618 15.656 15.2901C15.6422 15.1188 15.0156 14.9474 14.9809 14.7075C14.9467 14.4676 14.8569 14.4743 14.8155 14.2343C14.7742 13.9944 14.5331 13.9117 14.5331 13.5279C14.5331 13.1441 14.409 12.7188 14.3082 12.7188C14.207 12.7188 14.0829 13.1437 14.0829 13.5279C14.0829 13.9117 13.8419 13.994 13.8005 14.2343C13.7592 14.4739 13.6698 14.4672 13.6355 14.7075C13.6009 14.9474 12.9742 15.1188 12.9604 15.2901C12.9467 15.4618 13.153 15.4888 13.2771 15.4206C12.912 15.784 12.6985 15.9867 12.7466 16.1271C12.795 16.2674 12.9876 16.2952 13.1601 16.2125C13.0085 16.5073 12.8163 16.545 12.7403 16.6994C12.6643 16.8535 12.6607 16.9425 12.4717 17.0628C12.2818 17.1828 12.0305 17.3302 12.0652 17.4533C12.0995 17.5772 12.0928 17.5976 12.2992 17.6148C12.5059 17.6321 12.5264 17.6764 12.63 17.6321C12.7332 17.5874 12.8194 17.5533 12.8194 17.5533C12.8194 17.5533 12.437 18.0433 12.1924 18.2013C11.9478 18.3589 11.9754 18.4138 11.8305 18.4788C11.6863 18.5443 11.5311 18.6882 11.3901 18.7603C11.2487 18.8321 11.1971 18.894 11.2314 18.9795C11.2661 19.0649 11.383 19.0649 11.5 19.0449C11.617 19.0242 11.6792 19.0559 11.6792 19.0559C11.6792 19.0559 11.6001 19.2331 11.4311 19.3088C11.2621 19.384 11.166 19.4872 11.0762 19.5659C10.9864 19.6447 10.9179 19.7235 10.9522 19.7922C10.9864 19.8611 11.0936 19.909 11.3515 19.7922C11.6099 19.6757 11.6237 19.6655 11.734 19.6447C11.8442 19.6244 12.1645 19.4734 12.1645 19.4734C12.1645 19.4734 12.0924 19.6518 12.003 19.7514C11.9136 19.8506 11.8202 19.8302 11.7241 19.9262C11.6276 20.0223 11.4866 20.094 11.3693 20.2383C11.2523 20.3822 11.1038 20.4096 10.9837 20.4202C10.9553 20.4225 10.9301 20.4327 10.9092 20.4488C10.8824 20.4221 10.8509 20.3884 10.7682 20.3355C10.6201 20.2398 10.3882 19.9427 10.3882 19.9427C10.3882 19.9427 10.4401 19.9635 10.5032 19.9905C10.5658 20.0176 10.5784 19.9905 10.7036 19.9803C10.8289 19.9697 10.8249 19.9572 10.8454 19.8823C10.8663 19.8074 10.7139 19.7184 10.5989 19.6455C10.4843 19.5726 10.4819 19.5185 10.4358 19.4252C10.3901 19.3315 10.2731 19.3088 10.1814 19.13C10.2858 19.1798 10.4027 19.1633 10.4319 19.0779C10.461 18.9928 10.3314 18.8701 10.1105 18.6498C10.1857 18.6913 10.3106 18.6749 10.3027 18.5706C10.294 18.4667 9.91434 18.3628 9.89308 18.2174C9.8722 18.0719 9.81785 18.0758 9.79304 17.9308C9.76783 17.7853 9.62171 17.7352 9.62171 17.5027C9.62171 17.2698 9.54648 17.0123 9.48543 17.0123C9.42399 17.0123 9.34876 17.2698 9.34876 17.5027C9.34876 17.7352 9.20304 17.7853 9.17744 17.9308C9.15262 18.0758 9.09827 18.0719 9.0774 18.2174C9.05652 18.3628 8.67645 18.4667 8.66818 18.5706C8.65951 18.6749 8.78515 18.6909 8.85999 18.6498C8.63864 18.8701 8.50945 18.9928 8.53821 19.0779C8.56774 19.1629 8.68433 19.1798 8.7887 19.13C8.69654 19.3088 8.58035 19.3315 8.53427 19.4252C8.48819 19.5185 8.48582 19.573 8.37121 19.6455C8.2562 19.7184 8.10378 19.8074 8.12465 19.8823C8.14553 19.9572 8.1412 19.9697 8.26644 19.9803C8.39208 19.9905 8.40429 20.0176 8.46692 19.9905C8.52954 19.9635 8.58192 19.9427 8.58192 19.9427C8.58192 19.9427 8.35034 20.2398 8.20185 20.3355C8.05337 20.4308 8.0703 20.4641 7.98247 20.5037C7.89504 20.5433 7.8009 20.6303 7.71504 20.6742C7.62958 20.7177 7.59807 20.7554 7.61934 20.8071C7.64021 20.8589 7.7111 20.8589 7.78239 20.8467C7.85329 20.8338 7.8911 20.8534 7.8911 20.8534C7.8911 20.8534 7.84265 20.9608 7.74064 21.0067C7.63863 21.0521 7.57995 21.1149 7.5256 21.1627C7.47124 21.2105 7.4295 21.258 7.45037 21.2999C7.47124 21.3418 7.53623 21.3709 7.69259 21.2999C7.84935 21.2293 7.85762 21.2231 7.92418 21.2105C7.99114 21.198 8.18531 21.1066 8.18531 21.1066C8.18531 21.1066 8.14159 21.2148 8.08724 21.2752C8.03289 21.3352 7.97656 21.323 7.91788 21.3807C7.85919 21.4387 7.77373 21.4826 7.70283 21.57C7.63194 21.6574 7.54214 21.6739 7.46888 21.6802C7.39562 21.6864 7.35624 21.7797 7.41256 21.8444C7.46888 21.9091 7.53781 21.8966 7.59019 21.8966C7.64257 21.8966 7.76152 21.8977 7.76152 21.8977C7.76152 21.8977 7.74891 21.9546 7.80721 21.986C7.74695 22.1043 7.69653 22.1565 7.63194 22.1898C7.56735 22.2231 7.5193 22.2608 7.46691 22.3184C7.41492 22.3768 7.38972 22.3623 7.32906 22.3976C7.26841 22.4329 7.29165 22.4681 7.20815 22.4725C7.12465 22.4768 7.10181 22.5101 7.09944 22.5638C7.09747 22.6179 7.09747 22.6551 7.12859 22.6802C7.1601 22.7053 7.50866 22.7053 7.50866 22.7053C7.50866 22.7053 7.48779 22.8465 7.37948 22.9233C7.27077 23.0001 7.1853 23.0064 7.16246 23.0421C7.13962 23.0774 7.0703 23.0566 7.064 23.1064C7.05769 23.1562 7.07266 23.1977 7.14552 23.1977C7.19791 23.2436 7.23926 23.2397 7.30819 23.2373C7.37711 23.2354 7.57562 23.144 7.57562 23.144C7.57562 23.144 7.49054 23.2495 7.36845 23.304C7.24635 23.3588 7.14946 23.4772 7.13213 23.5051C7.1148 23.5329 7.00059 23.5858 6.96908 23.6611C6.89385 23.714 6.82177 23.7156 6.80956 23.7591C6.73591 23.7701 6.69338 23.8089 6.73434 23.8791C6.7749 23.9492 6.87849 23.9614 7.01476 23.9492C7.15104 23.9371 7.32 23.8246 7.32 23.8246C7.32 23.8246 7.53938 23.8932 7.62564 23.8152C7.5315 23.9477 7.41098 23.9289 7.31882 24.0523C7.22627 24.1754 7.19988 24.3483 7.19988 24.3483C7.19988 24.3483 7.01161 24.5024 6.93678 24.5824C6.83004 24.6322 6.7623 24.6757 6.71898 24.6757C6.67526 24.6757 6.58585 24.6914 6.5827 24.7443C6.57995 24.7976 6.64533 24.8972 6.84895 24.894C6.94938 24.9642 7.00728 24.9579 7.08566 24.9066C7.16404 24.8552 7.32985 24.8117 7.53347 24.8286C7.32985 24.9642 7.12111 25.1187 6.94584 25.2476C6.77057 25.3766 6.5764 25.4782 6.46966 25.495C6.36332 25.5115 6.42161 25.6487 6.55513 25.6757C6.68865 25.7024 6.80563 25.7024 6.80563 25.7024C6.80563 25.7024 6.72055 25.8373 6.51693 25.9353C6.3133 26.0333 6.16639 26.1787 6.02973 26.1301C5.89345 26.0819 5.93874 26.2175 5.99546 26.2563C6.05178 26.2951 6.13331 26.3155 6.16639 26.3528C6.19908 26.3904 6.22114 26.3916 6.34166 26.3967C6.46258 26.4014 6.60003 26.2704 6.66266 26.2704C6.72528 26.2704 6.6595 26.3657 6.71267 26.381C6.76585 26.3967 6.85525 26.4198 7.00728 26.3312C7.15892 26.2422 7.22784 26.2316 7.22784 26.2316C7.22784 26.2316 7.09984 26.5339 6.79696 26.6962C6.49408 26.8585 6.3649 26.802 6.32079 26.8585C6.27707 26.9146 6.31448 26.9851 6.31448 26.9851C6.31448 26.9851 6.14316 27.0557 5.80286 27.0243C5.46257 26.9934 5.75284 27.1804 5.79262 27.2156C5.83201 27.2509 6.04115 27.3548 6.15143 27.3717C6.2621 27.3885 6.54371 27.436 6.54371 27.436C6.54371 27.436 6.36844 27.592 6.39365 27.6688C6.41846 27.7457 6.67762 27.6876 6.83871 27.6688C6.9994 27.65 7.23729 27.6437 7.41492 27.492C7.26447 27.623 7.23336 27.6935 7.29598 27.7331C7.3586 27.7727 7.7304 27.7519 7.97026 27.6794C7.86825 27.8123 7.88243 27.8582 7.94506 27.8997C7.99704 27.9342 8.3657 27.9115 8.49173 27.9029H12.0514L12.0235 27.7402L13.0821 26.8973L13.2224 27.757H13.1869C13.0924 27.757 13.0124 27.819 12.9837 27.9033H12.051L11.986 27.7696L11.9321 27.8127C11.9073 27.8323 11.871 27.8284 11.8513 27.8037C11.8316 27.779 11.8356 27.7429 11.8604 27.7233L11.9348 27.6637L11.8773 27.5453L11.9837 27.5116L12.001 27.6116L13.0613 26.7675L13.0569 26.7421C13.4307 26.3645 14.1995 25.4076 15.0428 24.2562C15.6761 23.3914 16.2165 22.6014 16.5501 22.064C16.8837 22.6014 17.4236 23.3918 18.0574 24.2562C18.9006 25.4076 19.6694 26.3641 20.0436 26.7421L20.0392 26.7675L21.0991 27.6116L21.1164 27.5116L21.2228 27.5453L21.1649 27.6637L21.2393 27.7233C21.2641 27.7429 21.2681 27.779 21.2484 27.8037C21.2287 27.8284 21.1921 27.8323 21.1676 27.8127L21.1133 27.7696L21.0483 27.9033H23.9514L23.9534 27.9013ZM20.1176 27.9013H21.0503L21.0786 27.7386L20.0199 26.8957L19.8793 27.7555H19.9148C20.0089 27.7555 20.0889 27.8174 20.1176 27.9017V27.9013Z" fill="#499780"/>
<path d="M9.83688 13.5649L9.95503 13.8029L10.2193 13.8409L10.0283 14.0264L10.0732 14.2882L9.83688 14.1647L9.60096 14.2882L9.64586 14.0264L9.45483 13.8409L9.71872 13.8029L9.83688 13.5649Z" fill="#499780"/>
<path d="M11.2393 8.03516L11.3963 8.35132L11.7474 8.40184L11.4936 8.6482L11.5532 8.99614L11.2393 8.83207L10.9258 8.99614L10.9855 8.6482L10.7317 8.40184L11.0823 8.35132L11.2393 8.03516Z" fill="#499780"/>
<path d="M19.8543 5.63232L20.0113 5.94848L20.3624 5.99901L20.1086 6.24537L20.1682 6.5933L19.8543 6.42923L19.5408 6.5933L19.6005 6.24537L19.3467 5.99901L19.6973 5.94848L19.8543 5.63232Z" fill="#499780"/>
<path d="M4.68526 18.3457L4.80342 18.5837L5.0677 18.6217L4.87629 18.8071L4.92158 19.069L4.68526 18.9455L4.44934 19.069L4.49424 18.8071L4.30322 18.6217L4.56711 18.5837L4.68526 18.3457Z" fill="#499780"/>
<path d="M25.8535 14.4863L25.9716 14.7243L26.2359 14.7623L26.0445 14.9477L26.0898 15.2096L25.8535 15.0857L25.6176 15.2096L25.6625 14.9477L25.4714 14.7623L25.7353 14.7243L25.8535 14.4863Z" fill="#499780"/>
<path d="M28.3564 20.4199L28.4746 20.6583L28.7388 20.6963L28.5474 20.8817L28.5927 21.1436L28.3564 21.0201L28.1205 21.1436L28.1654 20.8817L27.9744 20.6963L28.2383 20.6583L28.3564 20.4199Z" fill="#499780"/>
<path fill-rule="evenodd" clip-rule="evenodd" d="M21.5005 10.1299C21.7069 10.1299 21.9062 10.162 22.0933 10.2212C21.4891 10.4502 21.0594 11.0323 21.0594 11.7145C21.0594 12.5969 21.7778 13.312 22.6644 13.312C22.7939 13.312 22.92 13.2963 23.0409 13.2677C22.6837 13.7236 22.1263 14.0173 21.5001 14.0173C20.4217 14.0173 19.5474 13.1469 19.5474 12.0736C19.5474 11.0002 20.4217 10.1299 21.5001 10.1299H21.5005Z" fill="#499780"/>
<path d="M21.4413 27.8897L11.5012 27.8896L16.7886 29.7463L21.4413 27.8897Z" fill="#499780"/>
</svg>
