<svg width="246" height="192" viewBox="0 0 246 192" fill="none" xmlns="http://www.w3.org/2000/svg">
<g clip-path="url(#clip0_356_21326)">
<path d="M53.0728 115.182L196.891 198.766V211.481L53.0728 127.935V115.182Z" fill="#C47947"/>
<path d="M54.8058 114.151L53.0735 115.182L196.891 198.766L198.643 197.735L54.8058 114.151Z" fill="#F4AB6C"/>
<path d="M252 169.403L199.118 200.026V212.741L252 182.175V169.403Z" fill="#D68954"/>
<path d="M250.249 168.372L252 169.403L199.118 200.026L197.366 198.995L250.249 168.372Z" fill="#F4AB6C"/>
<path d="M53.0728 101.398L196.891 184.982V197.697L53.0728 114.151V101.398Z" fill="#C47947"/>
<path d="M196.891 184.982L198.643 183.951V196.666L196.891 197.697V184.982Z" fill="#D68954"/>
<path d="M54.8058 100.348L53.0735 101.398L196.891 184.982L198.643 183.951L54.8058 100.348Z" fill="#F4AB6C"/>
<path d="M53.0728 87.3652L196.891 170.968V183.684L53.0728 100.138V87.3652Z" fill="#C47947"/>
<path d="M196.891 170.968L198.643 169.918V182.634L196.891 183.684V170.968Z" fill="#D68954"/>
<path d="M54.8058 86.3342L53.0735 87.3652L196.891 170.968L198.643 169.918L54.8058 86.3342Z" fill="#F4AB6C"/>
<path d="M252 155.619L199.118 186.242V198.957L252 168.372V155.619Z" fill="#D68954"/>
<path d="M199.117 186.242L197.366 185.211V197.926L199.117 198.957V186.242Z" fill="#C47947"/>
<path d="M250.249 154.588L252 155.619L199.118 186.242L197.366 185.211L250.249 154.588Z" fill="#F4AB6C"/>
<path d="M252 141.777L199.118 172.4V185.116L252 154.53V141.777Z" fill="#D68954"/>
<path d="M199.117 172.4L197.366 171.369V184.085L199.117 185.116V172.4Z" fill="#C47947"/>
<path d="M250.249 140.746L252 141.777L199.118 172.4L197.366 171.369L250.249 140.746Z" fill="#F4AB6C"/>
<path d="M53.0728 73.9055L196.891 157.49V170.205L53.0728 86.678V73.9055Z" fill="#C47947"/>
<path d="M196.891 157.49L198.643 156.459V169.174L196.891 170.205V157.49Z" fill="#D68954"/>
<path d="M54.8058 72.8745L53.0735 73.9055L196.891 157.49L198.643 156.459L54.8058 72.8745Z" fill="#F4AB6C"/>
<path d="M252 128.05L199.118 158.673V171.389L252 140.822V128.05Z" fill="#D68954"/>
<path d="M199.117 158.673L197.366 157.642V170.357L199.117 171.388V158.673Z" fill="#C47947"/>
<path d="M250.249 127.019L252 128.05L199.118 158.673L197.366 157.642L250.249 127.019Z" fill="#F4AB6C"/>
<path d="M53.0728 59.8921L196.891 143.476V156.191L53.0728 72.6454V59.8921Z" fill="#C47947"/>
<path d="M196.891 143.476L198.643 142.445V155.16L196.891 156.191V143.476Z" fill="#D68954"/>
<path d="M54.8058 58.8611L53.0735 59.892L196.891 143.476L198.643 142.445L54.8058 58.8611Z" fill="#F4AB6C"/>
<path d="M252 114.208L199.118 144.832V157.547L252 126.981V114.208Z" fill="#D68954"/>
<path d="M199.117 144.832L197.366 143.801V156.516L199.117 157.547V144.832Z" fill="#C47947"/>
<path d="M250.249 113.177L252 114.208L199.118 144.832L197.366 143.801L250.249 113.177Z" fill="#F4AB6C"/>
<path d="M199.118 135.897L53.0727 51.1863L105.955 20.563L252 105.274L199.118 135.897Z" fill="#F4AB6C"/>
<path d="M252 105.273L199.118 135.897V143.667L252 113.082V105.273Z" fill="#C47947"/>
<path d="M53.0722 51.1863V58.9567L199.117 143.667V135.897L53.0722 51.1863Z" fill="#AD6636"/>
<path d="M162.168 186.948V233.991L155.239 238V190.958L162.168 186.948Z" fill="#D68954"/>
<path d="M155.24 190.958L148.787 187.139V234.181L155.24 238V190.958Z" fill="#C47947"/>
<path d="M22.5586 130.646V153.118L15.6485 157.108V134.656L22.5586 130.646Z" fill="#D68954"/>
<path d="M15.6484 134.656L9.1952 130.837V153.289L15.6484 157.108V134.656Z" fill="#C47947"/>
<path d="M155.24 211.481L9.1946 126.771L52.1972 101.894L198.242 186.605L155.24 211.481Z" fill="#F4AB6C"/>
<path d="M198.242 186.605L155.24 211.481V219.252L198.242 194.413V186.605Z" fill="#C47947"/>
<path d="M9.19521 126.771V134.541L155.24 219.252V211.481L9.19521 126.771Z" fill="#AD6636"/>
<path d="M234.791 115.201L88.7459 30.4907L89.869 29.8416L235.914 114.552L234.791 115.201Z" fill="#D68954"/>
<path d="M216.822 125.625L70.7772 40.9147L71.9003 40.2656L217.945 124.976L216.822 125.625Z" fill="#D68954"/>
<path d="M185.088 194.203L39.0238 109.512L40.1659 108.863L186.211 193.573L185.088 194.203Z" fill="#D68954"/>
<path d="M168.945 203.52L22.9002 118.81L24.0233 118.16L170.068 202.871L168.945 203.52Z" fill="#D68954"/>
<path d="M154.63 40.4948C154.811 38.3882 154.545 36.2669 153.85 34.2709C152.955 31.4834 151.014 28.9251 149.624 30.1852C148.234 31.4453 148.824 33.3354 149.186 34.7672C149.548 36.1991 149.548 37.3637 150.176 37.7456C150.804 38.1274 150.671 36.4091 150.557 35.8364C150.442 35.2636 149.434 32.5335 150.309 32.1517C151.185 31.7698 151.699 32.9726 152.213 34.1754C152.89 35.732 153.264 37.4038 153.317 39.1011C153.069 40.1702 152.974 41.0103 153.66 41.373C154.345 41.7358 154.573 41.2203 154.63 40.4948Z" fill="#D68954"/>
<path d="M127.294 45.1914C128.55 52.389 130.911 59.7012 135.308 63.6723C145.15 72.5882 154.173 68.3116 158.875 64.7415L158.628 67.1661C158.628 72.1109 151.527 76.1202 142.751 76.1202C133.976 76.1202 126.894 72.1109 126.894 67.1661L124.724 45.1914H127.294Z" fill="#563729"/>
<path d="M135.309 63.7297C130.912 59.7586 128.552 52.4464 127.295 45.2488H160.799L158.895 64.7988C154.174 68.3117 145.151 72.5883 135.309 63.7297Z" fill="#563729"/>
<path opacity="0.5" d="M135.309 63.7297C130.912 59.7586 128.552 52.4464 127.295 45.2488H160.799L158.895 64.7988C154.174 68.3117 145.151 72.5883 135.309 63.7297Z" fill="#684337"/>
<path d="M155.43 51.95C155.22 52.2172 153.907 73.5237 153.907 73.5237L153.05 73.9819L154.173 52.7327L155.43 51.95Z" fill="#684337"/>
<path d="M147.871 54.2981L147.395 75.7382L146.481 75.8719L146.539 54.2981H147.871Z" fill="#684337"/>
<path d="M130.073 51.95C130.263 52.2172 131.577 73.5237 131.577 73.5237L132.434 73.9819L131.31 52.7327L130.073 51.95Z" fill="#684337"/>
<path d="M137.631 54.2981L138.107 75.7382L139.002 75.8719L138.945 54.2981H137.631Z" fill="#684337"/>
<path d="M124.725 45.1914C124.725 50.8235 132.797 55.3864 142.753 55.3864C152.708 55.3864 160.799 50.8235 160.799 45.1914C160.799 39.5593 152.728 35.0918 142.753 35.0918C132.778 35.0918 124.725 39.5784 124.725 45.1914Z" fill="#875A54"/>
<path d="M142.751 43.1103C136.146 43.1103 130.473 45.3823 128.017 48.6088C127.203 47.5958 126.747 46.3398 126.723 45.0386C126.723 40.0365 133.9 35.97 142.751 35.97C151.603 35.97 158.723 40.0365 158.723 45.0386C158.698 46.3398 158.243 47.5958 157.428 48.6088C155.049 45.3823 149.376 43.1103 142.751 43.1103Z" fill="#563729"/>
<path d="M142.751 54.1836C136.145 54.1836 130.473 51.9117 128.017 48.7043C130.473 45.4777 136.145 43.2058 142.751 43.2058C149.356 43.2058 155.048 45.4777 157.504 48.7043C155.048 51.8162 149.375 54.1836 142.751 54.1836Z" fill="#98BFF9"/>
<path d="M142.751 71.92C151.374 71.92 158.418 68.1016 159.008 63.3668L158.894 64.4933C158.456 69.3044 151.393 73.1419 142.751 73.1419C134.109 73.1419 127.16 69.3235 126.646 64.5887L126.513 63.3096C127.103 68.0825 134.147 71.92 142.751 71.92Z" fill="#D68954"/>
<path d="M142.752 60.7703C151.376 60.7703 159.523 56.952 160.113 52.2172L159.999 53.3436C159.561 58.1738 151.395 61.9922 142.752 61.9922C134.11 61.9922 126.077 58.1738 125.62 53.4391L125.487 52.1599C126.001 56.952 134.148 60.7703 142.752 60.7703Z" fill="#D68954"/>
<path d="M129.749 53.6492C129.912 51.5415 129.64 49.4228 128.95 47.4252C128.055 44.6187 126.113 42.0795 124.724 43.3396C123.334 44.5996 123.924 46.4706 124.286 47.9216C124.648 49.3726 124.648 50.5181 125.295 50.8999C125.942 51.2818 125.771 49.5635 125.656 48.9908C125.542 48.418 124.533 45.6879 125.409 45.306C126.285 44.9242 126.799 46.127 127.313 47.2152C127.954 48.8238 128.277 50.5422 128.264 52.2746C128.017 53.3437 127.922 54.0692 128.607 54.5465C129.292 55.0238 129.673 54.3747 129.749 53.6492Z" fill="#D68954"/>
<path d="M191.293 39.3493C190.931 39.2157 186.991 34.3664 184.25 39.9794C181.508 45.5924 172.695 67.6626 170.924 73.8674C170.09 77.2231 168.693 80.4122 166.793 83.2988C165.099 85.6853 161.901 82.1342 158.57 82.4206C155.239 82.7069 155.962 85.7044 158.456 86.3344C158.97 86.468 162.758 88.0717 163.31 88.2436C164.439 88.6041 165.61 88.8159 166.793 88.8736C171.4 88.8736 171.153 86.9644 171.876 84.8261C172.6 82.6878 177.587 74.4783 179.205 71.1373C180.652 67.7408 181.811 64.2283 182.67 60.6368L191.293 39.3493Z" fill="#FFC5B3"/>
<path d="M210.025 49.8307C208.788 47.0814 202.03 41.5066 202.03 41.5066C202.03 41.5066 197.043 45.4968 195.291 46.8714C193.54 48.2461 190.894 46.8714 192.626 42.0794C192.855 40.1105 192.758 38.1174 192.341 36.18C192.341 36.18 191.655 36.0082 190.647 35.8173C189.124 37.5164 184.422 45.7259 182.804 47.5778C181.572 49.4626 180.777 51.6003 180.477 53.8337C180.177 56.0671 180.38 58.3396 181.071 60.4839C181.585 62.2022 179.739 60.1975 180.653 62.3931C181.566 64.5887 184.041 67.4334 185.374 71.7672C186.249 74.4782 182.309 85.036 182.309 85.036C182.309 85.036 188.629 93.3792 197.804 93.3792H213.928C212.164 89.4788 210.62 85.4824 209.302 81.4086C208.445 78.2584 209.207 72.2063 208.902 68.197C208.445 61.133 213.509 57.5629 210.025 49.8307Z" fill="#FFC5B3"/>
<path d="M189.6 92.6728C184.847 97.6094 179.64 102.084 174.047 106.037C170.867 107.889 167.98 110.205 165.481 112.91C166.591 116.542 167.368 120.267 167.803 124.041C167.926 129.955 167.143 135.853 165.481 141.529C163.863 147.352 166.528 151.075 164.719 154.187C162.911 157.299 161.826 157.375 158.837 163.255C158.171 164.573 157.276 166.425 155.239 166.444C152.517 166.444 150.671 162.415 150.385 161.193C150.1 159.972 153.945 154.817 155.925 151.323C157.904 147.829 158.799 141.892 156.724 128.413C154.554 114.418 153.241 109.035 153.069 106.037C152.898 103.04 168.698 91.1646 171.801 89.4463C174.904 87.728 189.6 92.6728 189.6 92.6728Z" fill="#FFC5B3"/>
<path d="M204.523 101.188C199.752 106.111 194.539 110.585 188.952 114.552C185.772 116.404 182.885 118.72 180.386 121.425C181.49 125.026 182.267 128.719 182.708 132.46C182.832 138.375 182.049 144.273 180.386 149.948C178.768 155.676 181.433 159.494 179.624 162.606C177.816 165.718 176.731 165.795 173.742 171.675C172.181 174.749 163.71 173.584 163.196 171.427C162.872 170.129 168.907 163.255 170.81 159.762C172.714 156.268 173.685 150.216 171.591 136.851C169.421 122.857 168.107 117.454 167.955 114.457C167.803 111.459 183.565 99.5842 186.668 97.8659C189.77 96.1477 204.523 101.188 204.523 101.188Z" fill="#FFC5B3"/>
<path d="M209.91 61.5723C204.713 60.1145 199.655 58.1978 194.796 55.8447C190.54 53.5078 186.523 50.7582 182.803 47.6353C182.803 47.6353 177.339 53.4583 178.31 57.983C178.759 60.1812 179.646 62.2658 180.918 64.1115C182.753 67.0746 183.766 70.4758 183.85 73.9629C183.526 76.0439 182.574 76.2157 182.689 77.7813C182.689 79.0604 182.803 80.3014 182.803 80.3014C182.441 80.2872 182.086 80.3993 181.798 80.6187C181.51 80.8381 181.306 81.1511 181.223 81.5042C180.918 82.7643 180.671 84.0434 180.195 84.1961C179.719 84.3489 174.96 87.1554 171.476 89.0646L167.993 90.9737C167.97 93.1562 168.505 95.308 169.548 97.2234C170.592 99.1388 172.108 100.754 173.951 101.913C180.328 106.4 182.746 108.061 185.373 114.17C186.496 116.748 192.835 119.134 192.835 119.134C192.835 119.134 202.029 109.588 207.74 104.166C213.451 98.7441 215.83 93.933 213.927 88.0909C212.023 82.2488 211.052 80.9123 209.777 76.3112C208.444 71.2137 209.91 61.5723 209.91 61.5723Z" fill="#98BFF9"/>
<path d="M191.827 36.8481C191.846 39.4633 191.598 42.0735 191.085 44.6376C190.323 47.2532 192.493 49.3915 195.92 47.3868C198.311 45.7617 200.593 43.9824 202.754 42.0602C202.754 42.0602 201.022 38.8146 200.698 30.6051C197.785 29.8032 191.827 36.8481 191.827 36.8481Z" fill="#FFA08D"/>
<path d="M201.859 28.0469C201.859 28.0469 204.752 35.0918 206.313 39.6738C208.54 45.9359 203.648 48.4561 200.355 50.3652C198.69 51.3583 197.296 52.7502 196.3 54.4163C195.303 56.0823 194.734 57.9704 194.644 59.9112C193.638 58.7948 192.946 57.4306 192.638 55.958C192.331 54.4854 192.418 52.9573 192.893 51.5298C194.301 48.0551 197.48 48.2651 199.803 40.4375C200.274 37.45 200.522 34.4315 200.545 31.407L201.859 28.0469Z" fill="#432B1F"/>
<path d="M196.947 18.8827C195.746 18.0756 194.367 17.5731 192.93 17.4185C191.492 17.2639 190.039 17.4618 188.694 17.9951C187.35 18.5285 186.154 19.3814 185.211 20.4805C184.268 21.5796 183.605 22.8919 183.279 24.3048C180.729 32.8961 188.857 43.0721 192.797 41.0865C195.006 39.9792 199.898 36.7909 201.04 32.2661C202.335 27.1877 199.593 20.7155 196.947 18.8827Z" fill="#FFD1C5"/>
<path d="M182.842 28.2569C182.842 28.2569 184.099 27.5123 186.021 26.3477C187.401 28.1421 189.059 29.7021 190.933 30.968C192.772 32.2605 194.992 32.8928 197.234 32.7626C197.805 32.2089 198.775 30.2997 199.289 30.0897C200.85 29.4788 201.079 32.3044 201.079 32.3044C201.079 32.3044 207.513 22.6821 196.796 16.7064C193.274 14.7972 187.525 17.2218 184.993 19.7992C181.928 23.0258 182.842 28.2569 182.842 28.2569Z" fill="#432B1F"/>
<path d="M184.328 85.647C185.943 86.3367 187.519 87.1142 189.049 87.9762C191.725 88.9575 194.539 89.5053 197.387 89.599C194.488 90.7111 191.282 90.7111 188.383 89.599C184.061 87.6516 184.328 85.647 184.328 85.647Z" fill="#76A8E5"/>
<path d="M185.906 80.9121C188.537 81.0592 191.174 80.736 193.692 79.9575C195.554 79.1084 197.365 78.1522 199.117 77.0938C199.117 77.0938 196.795 81.6758 192.854 82.2676C191.669 82.5776 190.429 82.6167 189.227 82.3821C188.024 82.1475 186.889 81.6451 185.906 80.9121Z" fill="#76A8E5"/>
<path d="M199.879 68.197C199.879 68.197 196.433 73.6764 192.721 75.1083C191.099 75.9176 189.296 76.2925 187.486 76.1965C187.486 76.1965 189.637 74.841 192.721 73.0654C195.188 71.5655 197.577 69.9406 199.879 68.197Z" fill="#76A8E5"/>
<path d="M188.895 52.2744C188.895 52.2744 185.792 55.9783 185.906 58.3647C186.021 60.7512 186.497 67.2043 186.858 69.1135C187.386 71.3457 187.24 73.6849 186.439 75.8338C185.431 78.5257 184.726 78.5257 185.316 80.4349C185.906 82.3441 184.517 81.275 183.851 82.955C183.184 84.6351 185.392 85.9907 185.906 87.5371C186.457 91.153 186.775 94.8007 186.858 98.4576C187.106 101.913 190.57 109.55 190.57 109.55C190.57 109.55 186.382 106.801 185.906 99.3931C185.431 91.9855 185.412 88.9117 184.365 87.1553C183.318 85.3988 181.585 83.7187 182.804 82.3632C184.022 81.0077 184.593 82.0959 184.365 80.8358C184.136 79.5758 183.413 79.1176 184.365 77.6857C185.817 75.814 186.566 73.4884 186.478 71.1181C185.468 66.6786 184.762 62.1752 184.365 57.6392C184.365 54.1836 187.924 51.4535 187.924 51.4535L188.895 52.2744Z" fill="#76A8E5"/>
<path d="M207.723 46.7952C207.723 46.7952 201.079 49.9071 199.88 54.9856C198.681 60.064 200.946 73.161 201.155 78.2394C201.365 83.3179 201.384 101.15 202.678 107.297C203.097 109.34 202.221 113.025 203.63 115.182C204.933 117.34 206.364 119.418 207.913 121.406C208.338 121.89 208.888 122.247 209.502 122.437C210.116 122.627 210.771 122.643 211.394 122.483C212.016 122.323 212.583 121.993 213.03 121.53C213.478 121.067 213.789 120.489 213.929 119.86C214.443 117.168 207.304 110.715 207.78 107.985C208.256 105.254 210.731 91.2792 209.893 87.3653C209.118 84.3887 208.784 81.3137 208.903 78.2394C209.322 73.9056 212.71 57.983 211.397 52.7709C211.219 51.5773 210.802 50.4323 210.171 49.4051C209.539 48.3779 208.707 47.49 207.723 46.7952Z" fill="#FFC5B3"/>
<path d="M203.001 110.428C202.69 110.809 202.459 111.248 202.321 111.721C202.184 112.193 202.143 112.689 202.202 113.177C202.221 115.18 201.945 117.174 201.383 119.096C201.021 119.841 202.24 120.356 203.001 119.096C203.61 118.005 204.12 116.861 204.524 115.678C205.305 113.769 203.001 110.428 203.001 110.428Z" fill="#FFC5B3"/>
<path d="M168.698 84.7306C168.698 84.7306 170.487 86.6398 169.935 87.8044C169.383 88.969 167.175 89.8854 164.872 89.809C162.568 89.7327 162.035 89.809 161.236 89.809C160.037 89.809 160.265 88.568 161.902 88.4344C163.331 88.1591 164.711 87.67 165.995 86.9834L168.698 84.7306Z" fill="#FFC5B3"/>
<path d="M182.804 47.5779C183.91 46.5299 184.785 45.2618 185.374 43.855C185.661 43.041 185.846 42.1945 185.926 41.3348C185.105 42.0534 184.41 42.9053 183.87 43.855C183.407 45.0623 183.05 46.3081 182.804 47.5779Z" fill="#FFA08D"/>
<path d="M170.848 117.511C171.233 117.799 171.552 118.166 171.785 118.587C172.019 119.009 172.16 119.475 172.199 119.955C172.166 120.705 171.929 121.431 171.514 122.055C170.944 120.613 170.716 119.057 170.848 117.511Z" fill="#FFAA9C"/>
<path d="M156.82 108.443C157.207 108.729 157.528 109.095 157.761 109.517C157.995 109.939 158.135 110.406 158.172 110.886C158.139 111.633 157.909 112.358 157.506 112.986C156.929 111.546 156.695 109.99 156.82 108.443Z" fill="#FFAA9C"/>
<path d="M76.4874 72.1108C76.4874 72.1108 73.5368 72.3972 70.1293 77.8384C66.7218 83.2796 64.7421 91.5272 62.6101 95.0211C59.2379 100.071 55.2827 104.705 50.8267 108.824C47.5335 111.44 43.4026 112.318 41.499 113.636C39.5954 114.953 38.2248 117.225 41.0802 118.008C43.6872 118.486 46.3792 118.041 48.6946 116.748C50.7315 115.793 50.8077 116.041 50.7696 117.702C50.7315 119.363 50.7696 119.382 51.493 119.611C52.2163 119.84 52.3877 117.931 52.5019 116.862C52.4856 115.574 52.6458 114.289 52.9778 113.044C54.0628 111.364 58.346 110.18 61.4298 108.023C64.352 106.06 66.9258 103.621 69.0443 100.806C70.1674 98.8967 78.0293 77.132 78.0293 77.132L76.4874 72.1108Z" fill="#FFC5B3"/>
<path d="M68.322 158.635C67.9223 160.105 64.8194 161.423 61.964 159.399C59.1086 157.375 53.9878 157.49 50.4281 155.409C46.8683 153.328 44.8315 149.968 40.91 146.149C36.9886 142.331 33.8857 141.815 33.6573 138.742C33.4289 135.668 32.2296 135.324 34.6091 133.491C36.9886 131.658 42.8136 133.319 49.0004 134.484C55.1871 135.649 65.7712 140.899 67.3512 145.424C68.9312 149.948 68.322 158.635 68.322 158.635Z" fill="#6B8A3F"/>
<path d="M91.5063 79.003C94.6223 79.9166 97.4965 81.5144 99.9203 83.6805C102.014 85.5897 102.661 90.1908 101.71 96.3575C100.758 102.524 96.9697 106.82 95.047 112.127C92.3931 119.043 90.516 126.234 89.4504 133.568C88.8222 137.844 86.6521 140.708 83.1114 144.106C80.9603 146.187 77.7622 142.312 74.8878 141.376C69.1769 139.467 52.0445 128.527 56.023 123.296C60.0015 118.065 65.2745 113.884 66.9116 106.973C67.5589 104.223 68.3584 99.6986 69.2341 94.9447C68.0919 89.6945 72.4131 80.0531 74.9449 77.1702C79.0757 72.3781 81.5504 72.9891 81.5504 72.9891L91.5063 79.003Z" fill="#FFC5B3"/>
<path d="M79.4389 84.5587C78.5823 87.9952 82.7893 86.7352 84.9975 85.6278C88.2907 83.9477 89.6423 81.3513 91.5078 79.003C91.5078 79.003 90.8606 76.521 90.7083 75.5664C90.4608 74.1536 90.4418 69.8389 90.4418 69.8389L81.4948 76.0628C81.8021 77.3492 81.8021 78.6902 81.4948 79.9766C81.1141 81.3894 79.6673 83.6805 79.4389 84.5587Z" fill="#FFAA9C"/>
<path d="M86.6707 58.193C85.5625 57.355 84.2668 56.8016 82.8965 56.581C81.5262 56.3604 80.1228 56.4793 78.8088 56.9274C77.4948 57.3755 76.3101 58.1391 75.3578 59.1517C74.4055 60.1643 73.7147 61.3951 73.3454 62.7369C70.5091 70.8127 77.7999 80.9123 81.6833 79.194C85.3407 77.4234 88.206 74.3455 89.7165 70.5645C91.2203 65.7725 89.1264 60.0449 86.6707 58.193Z" fill="#FFD1C5"/>
<path d="M72.6035 65.9824C74.7356 66.4216 80.8652 66.8034 84.3108 64.8369C84.0383 65.5852 83.948 66.3879 84.0473 67.1783C84.1467 67.9686 84.4328 68.7237 84.8818 69.3808C84.8818 69.3808 85.7765 67.2998 87.604 67.6625C88.7652 67.9107 88.7081 69.6672 88.7081 69.6672C88.7081 69.6672 89.2411 73.7528 90.6117 74.9365C91.4303 73.7337 92.6486 65.0279 92.5153 62.8323C92.5153 59.7394 91.9442 55.1956 86.2905 54.5846C83.5112 50.7662 79.7611 52.6754 77.3816 53.9546C74.6548 55.4239 72.2677 57.4536 70.3763 59.9112C70.8043 62.0375 71.5554 64.0851 72.6035 65.9824Z" fill="#432B1F"/>
<path d="M5.08254 182.958C7.78568 181.049 14.6006 178.223 17.9129 172.763C20.5646 167.092 22.9219 161.286 24.9753 155.37C26.6799 150.722 28.1163 145.98 29.2775 141.166C29.9818 138.111 33.4464 135.439 35.2929 134.35C41.7651 130.398 48.6181 125.873 60.5157 119.802C64.3229 117.893 74.2598 121.807 74.2598 121.807C73.8763 126.36 71.9635 130.648 68.8345 133.968C61.6388 141.052 46.7336 140.288 42.6027 146.55C40.8895 149.185 39.4618 154.492 36.0924 162.282C33.4083 168.735 25.4702 174.462 23.224 178.777C23.7189 181.908 23.9473 184.161 22.2912 184.944C20.6351 185.726 17.0753 185.555 14.8291 186.643C9.8987 188.991 11.136 191.034 8.94688 191.053C4.73991 191.053 2.51269 190.232 0.818474 188.647C-1.18031 186.738 0.723274 185.917 5.08254 182.958Z" fill="#FFC5B3"/>
<path d="M19.3213 193.115C22.0435 191.206 28.8394 188.38 32.1517 182.92C34.822 177.684 37.2174 172.312 39.3283 166.826C41.4311 161.762 43.0872 156.524 44.2777 151.17C44.6964 148.345 47.7042 145.672 49.5697 144.545C56.042 140.593 62.7808 136.069 74.7925 129.978C78.5998 128.069 88.5176 132.002 88.5176 132.002C88.144 136.548 86.2372 140.831 83.1113 144.144C75.9537 151.227 61.315 151.781 57.0319 157.661C55.2996 160.067 55.1282 165.298 52.0444 171.98C49.4745 177.441 39.7851 184.715 37.4627 188.972C37.9767 192.103 38.2051 194.356 36.549 195.12C34.8929 195.883 32.5133 195.998 30.2671 197.029C25.3367 199.377 25.3748 201.191 23.2047 201.191C20.6222 201.351 18.0444 200.81 15.7425 199.625C13.1917 198.461 15.0382 196.131 19.3213 193.115Z" fill="#FFC5B3"/>
<path d="M92.0977 121.005C90.0411 122.408 87.687 123.311 85.222 123.642C82.7571 123.973 80.249 123.724 77.8967 122.914C70.9105 120.452 65.8278 117.511 63.5435 114.208C61.0117 117.435 59.5078 119.02 51.5317 122.895C45.5998 125.977 39.933 129.546 34.5896 133.568C36.4595 133.547 38.3121 133.928 40.0228 134.686C41.7335 135.443 43.2626 136.559 44.5074 137.959C48.9047 143.19 52.1218 142.846 52.1218 142.846C52.1218 142.846 55.2628 140.326 59.0129 145.424C61.5257 148.841 59.584 153.06 61.2401 155.409C62.8963 157.757 68.1502 158.635 68.1502 158.635C68.1502 158.635 71.5958 154.951 81.4945 149.643C91.3933 144.335 91.5075 136.011 91.5075 131.907C91.5075 127.802 92.0977 121.005 92.0977 121.005Z" fill="#7A994A"/>
<path d="M68.5117 121.005C67.7708 123.96 66.5625 126.777 64.9329 129.348C63.1247 131.606 62.0486 134.364 61.8491 137.252C61.6016 139.849 61.3732 142.483 61.3732 142.483C60.6364 140.18 60.3519 137.755 60.5356 135.343C60.5679 132.394 61.7182 129.568 63.7527 127.439C66.2464 124.232 68.5117 121.005 68.5117 121.005Z" fill="#6B8A3F"/>
<path d="M68.5109 125.339C69.2709 127.589 70.2663 129.752 71.4805 131.792C73.105 134.007 74.2878 136.516 74.9641 139.181C75.3091 140.631 75.4691 142.119 75.44 143.61C75.44 143.61 72.6036 137.749 70.5097 134.541C68.4157 131.334 68.5109 125.339 68.5109 125.339Z" fill="#6B8A3F"/>
<path d="M65.2366 111.459C65.3961 112.781 65.7623 114.07 66.3217 115.278C67.2354 116.9 69.7101 118.58 70.1289 119.401C68.6167 119.236 67.143 118.817 65.7696 118.16C62.7619 116.633 62.5145 115.488 62.5145 115.488C62.5145 115.488 63.5424 111.917 65.2366 111.459Z" fill="#6B8A3F"/>
<path d="M92.5729 119.459C92.6528 120.182 92.6528 120.912 92.5729 121.635C92.4736 122.383 92.2415 123.107 91.8876 123.773C91.8876 123.773 89.7556 126.675 83.3214 125.683C78.8588 125.155 74.5716 123.628 70.7766 121.215C69.4699 120.24 68.0958 119.36 66.6648 118.58C68.4525 118.395 70.2566 118.44 72.033 118.714C74.82 120.007 77.7111 121.061 80.6754 121.864C83.6413 122.628 86.7653 122.501 89.6604 121.501C90.8023 121.106 91.8112 120.399 92.5729 119.459Z" fill="#6B8A3F"/>
<path d="M75.5352 99.3168C75.5061 101.334 75.3152 103.345 74.9641 105.331C74.6049 107.182 74.0431 108.987 73.2889 110.715C72.5846 112.376 71.5566 115.488 71.5566 115.488C71.1202 113.984 71.2558 112.372 71.9373 110.963C72.9479 108.913 73.7024 106.745 74.1836 104.51C74.6976 102.352 75.5352 99.3168 75.5352 99.3168Z" fill="#FFAA9C"/>
<path d="M70.5482 85.6279C69.8945 87.4868 69.4227 89.405 69.1396 91.3555C69.062 92.3437 69.185 93.3374 69.5012 94.2765C70.2056 95.3266 72.7183 95.8039 74.2793 95.9375C73.3537 96.3028 72.3594 96.4592 71.3668 96.3957C69.8249 96.2812 69.4632 95.9184 69.1396 95.422C67.3502 92.6346 69.0824 88.0526 70.5482 85.6279Z" fill="#FFAA9C"/>
<path d="M82.3121 101.913C83.098 102.238 83.9059 102.506 84.7297 102.715C85.4256 102.791 86.1277 102.791 86.8236 102.715C88.2906 102.595 89.6545 101.911 90.6309 100.806C90.4984 101.375 90.23 101.904 89.8486 102.346C89.4673 102.789 88.9844 103.132 88.4417 103.345C86.8748 103.802 85.2182 103.855 83.6256 103.498H83.2639H82.9212C82.2527 103.339 81.6113 103.081 81.0176 102.734C80.1531 102.186 79.4278 101.443 78.8991 100.565C78.3705 99.6871 78.053 98.6975 77.9718 97.6749C78.933 99.5142 80.4532 100.999 82.3121 101.913Z" fill="#FFAA9C"/>
<path d="M96.931 81.4851C99.2786 82.3638 101.399 83.76 103.137 85.5708C104.772 87.7651 105.569 90.4744 105.383 93.2075C105.383 95.7085 104.431 107.755 104.679 111.459C104.926 115.163 106.582 125.377 106.125 129.654C105.821 132.479 103.974 139.486 105.992 143.648C108.01 147.81 111.437 152.755 110.275 155.103C108.6 158.597 104.983 155.103 103.955 153.194C102.927 151.285 101.462 148.345 100.624 148.497C99.7865 148.65 98.7204 149.338 98.2826 149.376C96.379 149.49 95.9983 148.536 96.7026 147.944C97.6956 147.153 98.6133 146.271 99.4438 145.309C99.758 144.449 99.8497 143.523 99.7103 142.617C99.4628 142.083 97.0453 131.487 96.2457 126.637C95.1797 120.051 96.1315 117.721 94.7038 114.132C93.2761 110.543 91.5248 99.1642 92.0959 96.3958C93.4348 91.3408 95.049 86.3631 96.931 81.4851Z" fill="#FFC5B3"/>
<path d="M93.6204 91.0117C92.922 93.9962 92.5769 97.053 92.5925 100.119C92.9085 104.613 93.5446 109.079 94.4961 113.483L93.8108 115.507C92.5191 112.686 91.7206 109.664 91.4503 106.572C91.4503 102.753 91.4503 100.844 91.4503 97.5984C91.6452 95.2618 92.3888 93.0047 93.6204 91.0117Z" fill="#FFAA9C"/>
<path d="M67.8631 102.429L68.7578 97.5793C67.9148 99.6093 66.8349 101.532 65.5407 103.307C64.7215 104.132 64.148 105.17 63.8846 106.304C65.3217 105.132 66.653 103.835 67.8631 102.429Z" fill="#FFAA9C"/>
<path d="M46.9809 151.552C47.1743 151.92 47.2754 152.329 47.2754 152.745C47.2754 153.161 47.1743 153.571 46.9809 153.938C46.8346 154.329 46.6004 154.68 46.2967 154.965C45.9929 155.25 45.6278 155.46 45.2296 155.58C45.3994 154.092 46.0094 152.689 46.9809 151.552Z" fill="#FFAA9C"/>
<path d="M32.229 141.605C32.4224 141.973 32.5234 142.383 32.5234 142.798C32.5234 143.214 32.4224 143.624 32.229 143.992C32.0841 144.381 31.8501 144.73 31.5459 145.012C31.2417 145.294 30.8758 145.5 30.4777 145.615C30.6489 144.133 31.2589 142.736 32.229 141.605Z" fill="#FFAA9C"/>
</g>
<defs>
<clipPath id="clip0_356_21326">
<rect width="246" height="192" fill="white" transform="matrix(-1 0 0 1 246 0)"/>
</clipPath>
</defs>
</svg>
