<svg width="244" height="268" viewBox="0 0 244 268" fill="none" xmlns="http://www.w3.org/2000/svg">
<g clip-path="url(#clip0_356_20524)">
<path d="M180.833 207.463L82.3496 150.454L158.872 106.167L257.333 163.176L180.833 207.463Z" fill="#875A54"/>
<path d="M180.833 277.196L82.3496 220.164L158.872 175.877L257.333 232.887L180.833 277.196Z" fill="#875A54"/>
<path d="M116.249 142.016C118.43 141.052 120.703 140.311 123.033 139.807C123.033 139.807 123.143 136.339 125.346 135.279C127.549 134.219 133.628 136.494 133.628 136.494C135.767 134.993 137.772 133.308 139.619 131.458C141.271 129.492 146.955 128.211 147.902 128.189C148.849 128.167 158.1 126.135 158.1 126.135C158.1 126.135 164.18 122.004 167.836 122.424C168.479 122.448 169.109 122.613 169.681 122.908C170.254 123.202 170.755 123.619 171.15 124.128C171.544 124.638 171.823 125.228 171.966 125.857C172.109 126.486 172.113 127.138 171.977 127.769C171.713 129.867 175.722 127.327 178.806 127.769C181.89 128.211 184.379 133.667 184.379 133.667L191.956 139.343C191.956 139.343 204.423 146.5 206.34 146.566C208.256 146.632 211.802 141.861 215.283 144.976C218.763 148.09 222.089 151.845 226.296 152.994C228.091 153.617 229.682 154.719 230.897 156.183C232.113 157.647 232.906 159.416 233.191 161.299C233.411 163.994 239.997 162.514 241.627 163.905C242.489 164.713 243.305 165.569 244.072 166.468L250.68 162.602L158.783 109.082L88.957 149.57L95.5652 153.436C98.858 151.021 102.605 149.3 106.579 148.377C111.469 147.693 112.13 143.739 116.249 142.016Z" fill="#563729"/>
<path d="M244.05 166.468C243.284 165.568 242.467 164.713 241.605 163.905C239.975 162.514 233.389 163.905 233.169 161.299C232.884 159.416 232.091 157.647 230.875 156.183C229.66 154.719 228.069 153.616 226.274 152.994C222.155 151.845 218.829 148.068 215.261 144.976C211.692 141.883 208.256 146.632 206.318 146.566C204.379 146.5 191.934 139.343 191.934 139.343L184.445 133.667C184.445 133.667 181.978 128.211 178.872 127.769C175.766 127.327 171.779 129.867 172.043 127.769C172.179 127.138 172.175 126.486 172.032 125.856C171.889 125.227 171.611 124.637 171.216 124.128C170.821 123.618 170.32 123.202 169.748 122.907C169.175 122.613 168.545 122.448 167.902 122.424C164.246 122.004 158.166 126.134 158.166 126.134C158.166 126.134 148.893 128.167 147.968 128.189C147.043 128.211 141.36 129.492 139.686 131.458C137.818 133.319 135.791 135.011 133.628 136.516C133.628 136.516 127.549 134.307 125.346 135.301C123.143 136.295 123.033 139.829 123.033 139.829C120.703 140.333 118.43 141.074 116.249 142.038C112.13 143.761 111.469 147.715 106.469 148.355C102.494 149.278 98.7479 150.999 95.4551 153.413L180.854 203.068L244.05 166.468Z" fill="#492C20"/>
<path d="M82.3496 150.454V220.164L180.833 277.196V207.463L82.3496 150.454Z" fill="#6D4338"/>
<path d="M257.334 163.177L180.834 207.463V277.196L257.334 232.887V163.177Z" fill="#563729"/>
<path d="M113.98 199.931C112.893 200.09 111.857 200.5 110.955 201.129C110.053 201.757 109.309 202.587 108.781 203.554C108.121 205.034 112.504 209.186 116.271 209.186C116.981 209.144 117.676 208.961 118.315 208.648C118.954 208.334 119.525 207.897 119.994 207.361C120.463 206.824 120.822 206.2 121.048 205.524C121.275 204.847 121.366 204.133 121.315 203.421C121.293 199.357 116.932 199.247 113.98 199.931Z" fill="#D68954"/>
<path d="M86.3587 168.389C84.8608 168.964 84.1559 170.178 84.4864 173.116C84.8168 176.054 86.2265 177.799 87.9666 177.048C88.8205 176.549 89.4824 175.777 89.846 174.856C90.2095 173.934 90.2536 172.917 89.9711 171.968C89.4425 170.134 87.416 167.97 86.3587 168.389Z" fill="#C47947"/>
<path d="M174.291 208.325C171.141 205.829 168.872 204.172 165.48 205.365C162.088 206.558 163.278 209.783 167.287 213.891C171.295 218 176.097 219.877 176.626 216.255C177.155 212.632 176.626 210.158 174.291 208.325Z" fill="#D68954"/>
<path d="M163.123 214.09C158.101 212.654 154.555 217.491 153.431 219.855C152.308 222.218 158.255 226.481 163.123 223.853C167.991 221.224 168.057 215.481 163.123 214.09Z" fill="#875A54"/>
<path d="M154.224 197.237C150.039 197.855 150.611 202.074 150.876 207.508C151.14 212.941 157.242 214.576 159.444 210.401C161.647 206.226 162.308 204.769 160.678 201.411C160.221 200.093 159.338 198.965 158.168 198.209C156.999 197.452 155.61 197.11 154.224 197.237Z" fill="#C47947"/>
<path d="M147.661 193.084C144.809 190.529 141.422 188.65 137.749 187.584C134.268 187.032 132.528 191.074 135.083 194.431C137.639 197.789 145.921 201.544 147.925 199.114C148.349 198.726 148.683 198.249 148.903 197.718C149.124 197.186 149.225 196.612 149.2 196.037C149.174 195.462 149.023 194.899 148.758 194.389C148.492 193.879 148.117 193.433 147.661 193.084V193.084Z" fill="#875A54"/>
<path d="M144.995 202.339C143.848 201.509 142.476 201.051 141.062 201.027C139.648 201.004 138.261 201.415 137.087 202.206C135.215 203.686 137.219 209.01 139.907 211.572C142.594 214.134 146.735 213.206 147.66 210.666C148.04 209.167 147.992 207.591 147.52 206.119C147.049 204.646 146.174 203.336 144.995 202.339V202.339Z" fill="#D68954"/>
<path d="M150.214 213.825C149.113 213.228 145.809 214.421 142.901 216.166C139.994 217.911 141.954 222.483 145.434 223.411C148.915 224.339 149.465 221.202 150.787 219.281C152.109 217.359 152.307 214.973 150.214 213.825Z" fill="#C47947"/>
<path d="M173.498 220.252C173.188 219.924 172.814 219.663 172.399 219.484C171.984 219.306 171.538 219.214 171.086 219.214C170.635 219.214 170.189 219.306 169.774 219.484C169.359 219.663 168.985 219.924 168.674 220.252C167.485 221.732 167.97 226.592 168.278 228.845C168.807 232.71 176.186 234.632 176.186 230.325C176.186 226.017 175.547 221.777 173.498 220.252Z" fill="#C47947"/>
<path d="M138.562 213.118C137.575 211.272 136.153 209.695 134.421 208.524C131.866 207.044 130.126 206.514 128.65 208.524C127.174 210.534 128.76 214.156 131.58 216.431C134.399 218.706 137.483 218.463 138.562 217.248C138.957 216.632 139.167 215.915 139.167 215.183C139.167 214.451 138.957 213.734 138.562 213.118V213.118Z" fill="#875A54"/>
<path d="M159.313 227.851C158.22 228 157.177 228.405 156.27 229.035C155.363 229.664 154.617 230.5 154.092 231.473C153.431 232.953 157.793 237.106 161.559 237.106C162.276 237.067 162.977 236.884 163.622 236.57C164.266 236.255 164.842 235.814 165.314 235.272C165.786 234.731 166.145 234.1 166.371 233.417C166.596 232.735 166.683 232.014 166.626 231.297C166.626 227.277 162.264 227.188 159.313 227.851Z" fill="#D68954"/>
<path d="M128.959 180.494C125.831 177.998 123.54 176.319 120.148 177.534C116.756 178.749 117.946 181.951 121.955 186.038C125.963 190.124 130.765 192.046 131.294 188.423C131.823 184.801 131.316 182.239 128.959 180.494Z" fill="#D68954"/>
<path d="M117.813 186.148C112.791 184.735 109.223 189.572 108.099 191.935C106.976 194.299 112.923 198.562 117.813 195.933C122.703 193.305 122.747 187.562 117.813 186.148Z" fill="#875A54"/>
<path d="M108.892 169.317C104.707 169.935 105.279 174.154 105.544 179.588C105.808 185.022 111.976 186.656 114.112 182.482C116.249 178.307 116.976 176.849 115.368 173.492C114.907 172.171 114.02 171.043 112.846 170.287C111.673 169.531 110.281 169.189 108.892 169.317V169.317Z" fill="#C47947"/>
<path d="M102.351 165.164C99.496 162.615 96.1097 160.736 92.4389 159.664C88.9586 159.112 87.2185 163.154 89.7516 166.512C92.2847 169.869 100.611 173.624 102.615 171.194C103.036 170.804 103.367 170.327 103.585 169.796C103.803 169.264 103.903 168.692 103.878 168.118C103.852 167.544 103.703 166.982 103.439 166.472C103.176 165.962 102.804 165.516 102.351 165.164V165.164Z" fill="#875A54"/>
<path d="M99.6628 174.419C98.5163 173.589 97.1436 173.132 95.7297 173.108C94.3158 173.084 92.9286 173.496 91.7551 174.287C89.8827 175.767 91.8872 181.09 94.5745 183.652C95.0932 184.217 95.7382 184.649 96.4564 184.914C97.1747 185.179 97.9454 185.269 98.7051 185.176C99.4647 185.083 100.191 184.81 100.825 184.38C101.459 183.95 101.982 183.375 102.35 182.702C102.716 181.208 102.658 179.64 102.184 178.177C101.709 176.713 100.836 175.412 99.6628 174.419V174.419Z" fill="#D68954"/>
<path d="M104.884 186.413C103.783 185.817 100.479 187.01 97.5713 188.755C94.6637 190.5 96.6462 195.072 100.126 195.955C103.607 196.839 104.135 193.747 105.479 191.825C106.823 189.903 106.977 187.562 104.884 186.413Z" fill="#C47947"/>
<path d="M128.165 192.267C127.858 191.936 127.486 191.673 127.073 191.493C126.66 191.312 126.215 191.219 125.764 191.219C125.314 191.219 124.868 191.312 124.455 191.493C124.042 191.673 123.67 191.936 123.363 192.267C122.152 193.747 122.658 198.606 122.945 200.859C123.473 204.791 130.808 206.646 130.808 202.339C130.808 198.032 130.236 193.857 128.165 192.267Z" fill="#C47947"/>
<path d="M93.8258 185.618C92.8347 183.768 91.405 182.19 89.6626 181.024C87.1295 179.544 85.3894 179.014 83.9136 181.024C82.4377 183.034 84.0237 186.656 86.7551 188.953C89.4864 191.251 92.6583 190.963 93.7377 189.749C94.1405 189.139 94.3626 188.427 94.3782 187.696C94.3938 186.965 94.2022 186.244 93.8258 185.618Z" fill="#875A54"/>
<path d="M115.39 229.552C114.5 229.677 113.652 230.011 112.913 230.525C112.175 231.039 111.567 231.719 111.139 232.511C110.588 233.726 114.156 237.106 117.24 237.106C117.819 237.069 118.385 236.918 118.906 236.662C119.427 236.406 119.892 236.049 120.274 235.611C120.657 235.174 120.95 234.666 121.136 234.115C121.322 233.564 121.398 232.981 121.359 232.401C121.381 229.088 117.813 229.088 115.39 229.552Z" fill="#D68954"/>
<path d="M86.3587 199.997C84.8608 200.594 84.1559 201.809 84.4864 204.724C84.8168 207.64 86.2265 209.407 87.9666 208.656C88.8205 208.157 89.4824 207.385 89.846 206.464C90.2095 205.543 90.2536 204.525 89.9711 203.576C89.4425 201.742 87.416 199.578 86.3587 199.997Z" fill="#C47947"/>
<path d="M174.291 239.933C171.141 237.437 168.872 235.78 165.48 236.995C162.088 238.21 163.278 241.413 167.287 245.499C171.295 249.586 176.097 251.485 176.626 247.863C177.155 244.24 176.626 241.788 174.291 239.933Z" fill="#D68954"/>
<path d="M163.123 245.698C158.101 244.262 154.555 249.1 153.431 251.463C152.308 253.827 158.255 258.222 163.123 255.461C167.991 252.7 168.057 247.09 163.123 245.698Z" fill="#875A54"/>
<path d="M143.783 224.206C141.395 222.08 138.566 220.511 135.501 219.612C132.593 219.17 131.095 222.528 133.298 225.333C135.501 228.138 142.329 231.297 144.025 229.242C144.377 228.916 144.654 228.517 144.835 228.072C145.016 227.627 145.098 227.148 145.075 226.668C145.052 226.188 144.924 225.719 144.701 225.293C144.478 224.868 144.165 224.497 143.783 224.206V224.206Z" fill="#875A54"/>
<path d="M145.524 232.997C144.379 232.164 143.006 231.705 141.591 231.681C140.176 231.657 138.789 232.071 137.616 232.865C135.744 234.323 137.749 239.646 140.436 242.23C140.951 242.796 141.594 243.232 142.31 243.5C143.026 243.768 143.795 243.862 144.555 243.774C145.314 243.685 146.042 243.417 146.678 242.991C147.313 242.565 147.839 241.994 148.211 241.325C148.586 239.824 148.533 238.247 148.058 236.775C147.583 235.303 146.705 233.994 145.524 232.997Z" fill="#D68954"/>
<path d="M150.214 245.433C149.113 244.837 145.809 246.029 142.901 247.774C139.994 249.519 141.954 254.092 145.434 255.041C148.915 255.991 149.465 252.833 150.787 250.889C152.109 248.945 152.307 246.582 150.214 245.433Z" fill="#C47947"/>
<path d="M175.259 252.369C174.996 252.089 174.678 251.867 174.326 251.715C173.974 251.563 173.594 251.484 173.211 251.484C172.827 251.484 172.448 251.563 172.096 251.715C171.744 251.867 171.426 252.089 171.162 252.369C170.149 253.628 170.568 257.736 170.832 259.658C171.273 262.927 177.44 264.539 177.44 260.895C177.44 257.25 177.066 253.716 175.259 252.369Z" fill="#C47947"/>
<path d="M138.805 243.622C137.814 241.771 136.384 240.194 134.642 239.027C132.108 237.548 130.368 237.017 128.892 239.027C127.417 241.038 129.003 244.682 131.822 246.957C134.642 249.232 137.725 248.967 138.805 247.752C139.189 247.133 139.393 246.417 139.393 245.687C139.393 244.957 139.189 244.242 138.805 243.622V243.622Z" fill="#875A54"/>
<path d="M163.85 256.566C163.087 256.672 162.361 256.958 161.729 257.399C161.097 257.841 160.579 258.425 160.215 259.106C159.73 260.122 162.792 263.037 165.436 263.037C165.932 263.007 166.418 262.877 166.865 262.657C167.312 262.437 167.711 262.129 168.039 261.754C168.366 261.378 168.617 260.94 168.775 260.467C168.933 259.993 168.996 259.493 168.96 258.995C168.85 256.168 165.81 256.102 163.85 256.566Z" fill="#D68954"/>
<path d="M125.919 212.742C123.32 210.688 121.514 209.297 118.672 210.313C115.831 211.329 116.932 213.891 120.17 217.359C123.408 220.827 127.417 222.329 127.923 219.325C128.277 218.152 128.275 216.9 127.919 215.728C127.562 214.556 126.866 213.517 125.919 212.742Z" fill="#D68954"/>
<path d="M117.813 217.779C112.791 216.343 109.223 221.18 108.099 223.544C106.976 225.907 112.923 230.17 117.813 227.542C122.703 224.913 122.747 219.17 117.813 217.779Z" fill="#875A54"/>
<path d="M107.482 207.729C104.794 208.126 105.169 210.821 105.279 214.355C105.389 217.889 109.376 218.773 110.742 216.21C112.107 213.648 112.57 212.61 111.535 210.445C111.254 209.607 110.704 208.885 109.971 208.393C109.237 207.902 108.362 207.668 107.482 207.729Z" fill="#C47947"/>
<path d="M99.5536 198.164C97.2775 196.121 94.5762 194.612 91.6459 193.747C88.8705 193.327 87.4828 196.53 89.4432 199.224C91.4036 201.919 98.0998 204.901 99.7078 202.979C100.047 202.672 100.315 202.294 100.494 201.872C100.672 201.45 100.757 200.994 100.743 200.536C100.728 200.078 100.614 199.628 100.409 199.219C100.203 198.809 99.9116 198.449 99.5536 198.164V198.164Z" fill="#875A54"/>
<path d="M99.6628 206.028C98.5163 205.198 97.1436 204.74 95.7297 204.716C94.3158 204.692 92.9286 205.104 91.7551 205.895C89.8827 207.375 91.8872 212.698 94.5745 215.283C97.2618 217.867 101.403 216.917 102.35 214.355C102.722 212.854 102.668 211.278 102.193 209.806C101.718 208.335 100.841 207.026 99.6628 206.028V206.028Z" fill="#D68954"/>
<path d="M104.884 218.044C103.783 217.447 100.479 218.662 97.5713 220.407C94.6637 222.152 96.6462 226.702 100.126 227.652C103.607 228.602 104.135 225.443 105.479 223.499C106.823 221.556 106.977 219.17 104.884 218.044Z" fill="#C47947"/>
<path d="M128.165 223.875C127.856 223.547 127.484 223.286 127.071 223.108C126.658 222.93 126.214 222.838 125.764 222.838C125.315 222.838 124.87 222.93 124.457 223.108C124.044 223.286 123.672 223.547 123.363 223.875C122.152 225.377 122.658 230.214 122.945 232.489C123.473 236.333 130.852 238.254 130.852 233.947C130.852 229.64 130.236 225.465 128.165 223.875Z" fill="#C47947"/>
<path d="M93.8258 217.226C92.8347 215.376 91.405 213.798 89.6626 212.632C87.1295 211.152 85.3894 210.622 83.9136 212.632C82.4377 214.642 84.0237 218.287 86.7551 220.562C89.4864 222.837 92.6583 222.572 93.7377 221.357C94.1405 220.747 94.3626 220.036 94.3782 219.304C94.3938 218.573 94.2022 217.853 93.8258 217.226V217.226Z" fill="#875A54"/>
<path d="M107.967 196.817C106.491 195.227 104.244 197.48 103.209 199.622C102.174 201.765 102.945 204.945 104.685 204.393C106.425 203.841 110.698 199.733 107.967 196.817Z" fill="#C47947"/>
<path d="M152.484 234.941C150.281 235.295 150.744 239.889 152.352 242.164C153.96 244.439 158.167 242.805 158.167 240.993C158.167 239.182 154.885 234.521 152.484 234.941Z" fill="#C47947"/>
<path d="M151.802 224.67C151.009 223.742 148.057 225.156 147.264 227.475C146.471 229.795 148.101 232.622 150.7 230.457C153.299 228.293 153.101 226.305 151.802 224.67Z" fill="#875A54"/>
<path d="M244.668 199.976C245.76 200.128 246.801 200.535 247.708 201.164C248.615 201.793 249.362 202.627 249.889 203.598C250.549 205.078 246.166 209.23 242.399 209.23C241.688 209.191 240.992 209.01 240.351 208.698C239.711 208.385 239.139 207.948 238.669 207.411C238.199 206.874 237.841 206.249 237.615 205.571C237.39 204.894 237.301 204.178 237.355 203.465C237.355 199.401 241.717 199.313 244.668 199.976Z" fill="#D68954"/>
<path d="M185.613 208.325C188.741 205.829 191.032 204.172 194.424 205.365C197.816 206.558 196.517 209.783 192.618 213.891C188.719 218 183.807 219.877 183.256 216.255C182.706 212.632 183.278 210.158 185.613 208.325Z" fill="#D68954"/>
<path d="M196.892 214.09C201.892 212.654 205.46 217.491 206.584 219.855C207.707 222.218 201.76 226.481 196.892 223.853C192.024 221.224 191.825 215.481 196.892 214.09Z" fill="#875A54"/>
<path d="M205.701 197.237C209.886 197.855 209.313 202.074 209.049 207.508C208.785 212.941 202.617 214.576 200.48 210.401C198.344 206.226 197.617 204.769 199.247 201.411C199.703 200.093 200.587 198.965 201.757 198.209C202.926 197.452 204.315 197.11 205.701 197.237Z" fill="#C47947"/>
<path d="M212.31 193.084C215.154 190.53 218.534 188.65 222.201 187.584C225.681 187.032 227.421 191.074 224.888 194.431C222.355 197.789 214.05 201.544 212.024 199.114C211.601 198.724 211.269 198.246 211.05 197.714C210.832 197.181 210.733 196.607 210.76 196.032C210.788 195.457 210.941 194.894 211.208 194.385C211.476 193.876 211.852 193.431 212.31 193.084V193.084Z" fill="#875A54"/>
<path d="M214.909 202.339C216.055 201.509 217.428 201.051 218.842 201.027C220.256 201.004 221.643 201.415 222.816 202.206C224.689 203.686 222.684 209.01 219.997 211.572C217.31 214.134 213.169 213.206 212.243 210.666C211.863 209.167 211.912 207.591 212.383 206.119C212.855 204.646 213.73 203.336 214.909 202.339V202.339Z" fill="#D68954"/>
<path d="M209.689 213.825C210.791 213.228 214.095 214.421 217.003 216.166C219.91 217.911 217.95 222.461 214.513 223.411C211.077 224.361 210.482 221.202 209.161 219.281C207.839 217.359 207.597 214.973 209.689 213.825Z" fill="#C47947"/>
<path d="M186.406 220.252C186.715 219.925 187.087 219.664 187.5 219.486C187.913 219.307 188.358 219.215 188.807 219.215C189.257 219.215 189.701 219.307 190.114 219.486C190.527 219.664 190.899 219.925 191.208 220.252C192.419 221.732 191.935 226.592 191.626 228.845C191.098 232.71 183.719 234.632 183.719 230.325C183.719 226.017 184.336 221.776 186.406 220.252Z" fill="#C47947"/>
<path d="M221.341 213.118C222.341 211.267 223.778 209.69 225.526 208.524C228.081 207.044 229.931 206.514 231.297 208.524C232.663 210.534 231.297 214.156 228.367 216.431C225.438 218.706 222.442 218.463 221.385 217.248C220.983 216.637 220.766 215.922 220.758 215.19C220.75 214.457 220.952 213.738 221.341 213.118Z" fill="#875A54"/>
<path d="M200.592 227.851C201.684 228.003 202.725 228.41 203.632 229.039C204.538 229.668 205.285 230.502 205.812 231.473C206.473 232.953 202.111 237.106 198.323 237.106C197.608 237.067 196.907 236.885 196.264 236.569C195.62 236.254 195.046 235.813 194.576 235.271C194.105 234.729 193.748 234.098 193.525 233.416C193.302 232.733 193.219 232.012 193.279 231.297C193.279 227.277 197.64 227.188 200.592 227.851Z" fill="#D68954"/>
<path d="M230.923 180.494C234.073 177.998 236.364 176.319 239.734 177.534C243.104 178.749 241.937 181.951 237.928 186.038C233.919 190.124 229.117 192.046 228.588 188.423C228.06 184.801 228.588 182.239 230.923 180.494Z" fill="#D68954"/>
<path d="M242.09 186.148C247.112 184.735 250.68 189.572 251.804 191.935C252.927 194.299 246.958 198.562 242.09 195.933C237.222 193.305 237.156 187.562 242.09 186.148Z" fill="#875A54"/>
<path d="M250.99 169.317C255.175 169.936 254.624 174.154 254.338 179.588C254.052 185.022 247.928 186.656 245.769 182.482C243.611 178.307 242.928 176.849 244.536 173.492C244.996 172.175 245.88 171.05 247.049 170.294C248.218 169.538 249.604 169.194 250.99 169.317V169.317Z" fill="#C47947"/>
<path d="M231.716 192.267C232.025 191.936 232.399 191.672 232.814 191.491C233.228 191.311 233.676 191.218 234.128 191.218C234.58 191.218 235.028 191.311 235.443 191.491C235.857 191.672 236.231 191.936 236.54 192.267C237.752 193.747 237.245 198.606 236.937 200.859C236.54 204.791 229.051 206.646 229.051 202.339C229.051 198.032 229.668 193.857 231.716 192.267Z" fill="#C47947"/>
<path d="M244.469 229.552C245.363 229.674 246.215 230.006 246.958 230.52C247.7 231.034 248.311 231.716 248.742 232.511C249.293 233.726 245.702 237.106 242.641 237.106C242.062 237.069 241.496 236.918 240.975 236.662C240.454 236.406 239.989 236.049 239.607 235.611C239.224 235.174 238.931 234.666 238.745 234.115C238.559 233.564 238.483 232.981 238.522 232.401C238.522 229.088 242.068 229.088 244.469 229.552Z" fill="#D68954"/>
<path d="M185.613 239.933C188.741 237.437 191.032 235.78 194.424 236.995C197.816 238.21 196.517 241.413 192.618 245.499C188.719 249.586 183.807 251.485 183.256 247.863C182.706 244.24 183.278 241.788 185.613 239.933Z" fill="#D68954"/>
<path d="M196.892 245.698C201.892 244.262 205.46 249.1 206.584 251.463C207.707 253.827 201.76 258.222 196.892 255.461C192.024 252.7 191.825 247.09 196.892 245.698Z" fill="#875A54"/>
<path d="M216.122 224.206C218.501 222.08 221.323 220.51 224.382 219.612C227.289 219.17 228.787 222.528 226.585 225.333C224.382 228.138 217.575 231.297 215.901 229.242C215.548 228.918 215.27 228.519 215.087 228.075C214.904 227.632 214.82 227.153 214.841 226.673C214.862 226.193 214.988 225.723 215.209 225.297C215.43 224.871 215.742 224.499 216.122 224.206V224.206Z" fill="#875A54"/>
<path d="M214.381 232.997C215.522 232.163 216.892 231.703 218.303 231.679C219.715 231.655 221.099 232.069 222.267 232.865C224.139 234.323 222.135 239.646 219.47 242.23C218.954 242.796 218.312 243.232 217.596 243.5C216.879 243.768 216.11 243.862 215.351 243.774C214.591 243.685 213.864 243.417 213.228 242.991C212.592 242.565 212.066 241.994 211.694 241.325C211.319 239.823 211.372 238.247 211.847 236.775C212.323 235.302 213.201 233.994 214.381 232.997V232.997Z" fill="#D68954"/>
<path d="M209.69 245.433C210.791 244.837 214.095 246.029 217.003 247.774C219.91 249.519 217.95 254.092 214.47 255.041C210.989 255.991 210.439 252.833 209.117 250.889C207.795 248.945 207.597 246.582 209.69 245.433Z" fill="#C47947"/>
<path d="M184.644 252.369C184.903 252.087 185.219 251.862 185.569 251.709C185.92 251.555 186.298 251.475 186.681 251.475C187.064 251.475 187.442 251.555 187.793 251.709C188.144 251.862 188.459 252.087 188.719 252.369C189.754 253.628 189.335 257.736 189.071 259.658C188.63 262.927 182.463 264.539 182.463 260.895C182.463 257.25 182.903 253.716 184.644 252.369Z" fill="#C47947"/>
<path d="M221.122 243.622C222.113 241.771 223.543 240.194 225.285 239.027C227.818 237.548 229.558 237.017 231.034 239.027C232.51 241.038 231.034 244.682 228.104 246.957C225.175 249.232 222.201 248.967 221.122 247.752C220.732 247.134 220.525 246.418 220.525 245.687C220.525 244.956 220.732 244.24 221.122 243.622V243.622Z" fill="#875A54"/>
<path d="M196.163 256.566C196.925 256.672 197.652 256.958 198.283 257.399C198.915 257.841 199.434 258.425 199.797 259.106C200.26 260.122 197.22 263.037 194.577 263.037C194.079 263.009 193.591 262.882 193.143 262.663C192.695 262.443 192.295 262.136 191.967 261.76C191.638 261.383 191.388 260.945 191.231 260.47C191.074 259.995 191.014 259.494 191.052 258.995C191.052 256.168 194.092 256.102 196.163 256.566Z" fill="#D68954"/>
<path d="M233.962 213.626C236.583 211.572 238.367 210.18 241.231 211.174C244.094 212.168 242.971 214.775 239.733 218.242C236.495 221.71 232.464 223.212 231.979 220.208C231.623 219.038 231.621 217.787 231.974 216.615C232.327 215.444 233.019 214.403 233.962 213.626V213.626Z" fill="#D68954"/>
<path d="M243.346 217.779C248.368 216.343 251.914 221.18 253.038 223.544C254.161 225.907 248.214 230.17 243.346 227.542C238.478 224.913 238.412 219.17 243.346 217.779Z" fill="#875A54"/>
<path d="M231.716 223.875C232.027 223.547 232.401 223.286 232.816 223.107C233.23 222.928 233.677 222.836 234.128 222.836C234.579 222.836 235.026 222.928 235.441 223.107C235.855 223.286 236.229 223.547 236.54 223.875C237.752 225.377 237.245 230.214 236.937 232.489C236.43 236.333 229.051 238.254 229.051 233.947C229.051 229.64 229.668 225.465 231.716 223.875Z" fill="#C47947"/>
<path d="M207.419 234.941C209.622 235.295 209.159 239.889 207.551 242.164C205.944 244.439 201.736 242.805 201.736 240.993C201.736 239.182 204.996 234.521 207.419 234.941Z" fill="#C47947"/>
<path d="M208.103 224.67C208.874 223.742 211.826 225.156 212.641 227.475C213.456 229.795 211.804 232.622 209.205 230.457C206.605 228.293 206.804 226.305 208.103 224.67Z" fill="#875A54"/>
<path d="M137.858 126.974C134.443 128.343 132.681 131.391 134.443 133.755C136.206 136.118 143.078 135.853 145.677 132.43C148.276 129.006 143.519 124.743 137.858 126.974Z" fill="#D68954"/>
<path d="M157.836 119.994C154.4 121.363 152.659 124.412 154.422 126.797C156.184 129.183 163.056 128.873 165.655 125.472C168.255 122.07 163.475 117.763 157.836 119.994Z" fill="#D68954"/>
<path d="M105.874 142.944C102.57 143.297 102.107 144.954 100.653 149.128C99.1994 153.303 100.125 154.695 104.376 154.893C108.627 155.092 115.852 152.419 116.226 148.267C116.601 144.114 110.984 142.259 105.874 142.944Z" fill="#6D4338"/>
<path d="M132.175 134.616C128.409 136.825 125.854 140.867 127.374 143.717C128.893 146.566 136.933 146.5 141.823 142.944C146.713 139.387 143.409 135.279 140.127 134.727C136.845 134.175 134.334 133.379 132.175 134.616Z" fill="#6D4338"/>
<path d="M136.581 141.287C132.859 144.291 131.89 145.705 133.409 149.592C134.929 153.48 141.471 151.801 144.247 148.819C147.022 145.837 149.181 140.978 146.449 138.968C143.718 136.958 139.621 138.791 136.581 141.287Z" fill="#875A54"/>
<path d="M154.532 152C150.81 155.004 149.841 156.417 151.361 160.305C152.88 164.192 159.423 162.514 162.198 159.532C164.973 156.55 167.132 151.691 164.401 149.681C161.669 147.67 157.572 149.57 154.532 152Z" fill="#875A54"/>
<path d="M194.688 166.07C190.966 169.096 189.997 170.488 191.495 174.375C192.992 178.263 199.579 176.584 202.354 173.602C205.129 170.62 207.288 165.761 204.557 163.751C201.825 161.741 197.75 163.596 194.688 166.07Z" fill="#875A54"/>
<path d="M119.4 144.932C123.013 147.317 127.418 146.897 128.718 144.932C130.017 142.966 129.312 138.305 126.251 138.106C124.775 137.974 119.29 136.737 117.44 138.106C115.589 139.476 117.594 143.695 119.4 144.932Z" fill="#875A54"/>
<path d="M169.027 146.367C172.639 148.753 177.045 148.333 178.344 146.367C179.644 144.401 178.939 139.741 175.877 139.542C174.401 139.409 168.939 138.173 167.066 139.542C165.194 140.911 167.176 145.152 169.027 146.367Z" fill="#875A54"/>
<path d="M207.068 177.931C210.68 180.317 215.086 179.897 216.385 177.931C217.685 175.966 216.98 171.305 213.918 171.106C212.442 170.974 206.98 169.737 205.107 171.106C203.235 172.476 205.217 176.695 207.068 177.931Z" fill="#875A54"/>
<path d="M188.08 148.068C191.692 150.454 196.097 150.056 197.375 148.068C198.653 146.08 197.97 141.442 194.93 141.265C193.454 141.132 187.969 139.895 186.119 141.265C184.269 142.634 186.119 146.831 188.08 148.068Z" fill="#875A54"/>
<path d="M110.104 150.52C106.536 151.823 106.624 154.938 110.104 158.869C113.585 162.801 117.594 163.552 119.202 161.498C120.809 159.444 122.219 157.544 119.4 154.695C116.58 151.845 113.188 149.393 110.104 150.52Z" fill="#D68954"/>
<path d="M136.581 148.819C132.484 149.813 133.188 154.761 134.818 157.654C136.448 160.548 140.832 160.548 142.969 158.847C145.105 157.146 147.264 154.43 144.576 151.801C141.889 149.173 139.753 148.046 136.581 148.819Z" fill="#D68954"/>
<path d="M142.044 152.353C139.268 153.59 139.004 159.93 143.233 162.536C147.462 165.142 153.696 163.486 152.749 158.715C151.802 153.944 147.771 149.813 142.044 152.353Z" fill="#6D4338"/>
<path d="M119.399 157.964C121.602 160.946 129.62 165.496 131.8 159.819C132.275 158.81 132.537 157.713 132.57 156.598C132.603 155.482 132.407 154.372 131.994 153.336C131.58 152.3 130.959 151.36 130.168 150.576C129.376 149.791 128.433 149.178 127.395 148.775C117.329 146.169 117.108 154.96 119.399 157.964Z" fill="#6D4338"/>
<path d="M126.25 158.869C121.14 160.703 122.506 165.694 126.25 167.704C129.995 169.715 137.947 169.913 138.497 167.704C139.048 165.496 138.497 162.249 134.268 160.062C131.817 158.737 128.98 158.315 126.25 158.869V158.869Z" fill="#875A54"/>
<path d="M139.445 161.498C136.053 163.574 133.982 164.745 135.59 167.682C137.198 170.62 140.26 174.309 142.969 172.696C145.678 171.084 147.727 164.656 146.427 162.624C145.555 161.683 144.394 161.061 143.129 160.857C141.864 160.653 140.567 160.878 139.445 161.498Z" fill="#6D4338"/>
<path d="M145.876 122.733C142.77 124.345 140.259 126.93 142.968 129.691C145.678 132.452 153.629 134.241 156.074 132.341C158.519 130.442 160.039 125.892 156.074 124.367C152.11 122.843 147.484 121.916 145.876 122.733Z" fill="#6D4338"/>
<path d="M162.837 133.07C159.709 134.683 157.22 137.267 159.929 140.028C162.639 142.789 170.569 144.578 173.146 142.678C175.723 140.779 177.111 136.229 173.146 134.705C169.181 133.181 164.423 132.253 162.837 133.07Z" fill="#6D4338"/>
<path d="M187.704 134.771C184.576 136.406 182.087 138.968 184.797 141.729C187.506 144.49 195.436 146.279 198.013 144.379C200.59 142.48 201.978 137.93 198.013 136.428C194.048 134.926 189.29 133.954 187.704 134.771Z" fill="#6D4338"/>
<path d="M154.247 164.215C151.119 165.849 148.63 168.411 151.317 171.172C154.005 173.933 161.978 175.723 164.423 173.823C166.868 171.923 168.388 167.373 164.423 165.871C160.459 164.369 155.833 163.397 154.247 164.215Z" fill="#6D4338"/>
<path d="M151.934 128.454C147.529 129.956 148.74 135.08 151.934 137.466C155.128 139.851 160.745 140.293 161.538 136.516C162.331 132.739 158.19 126.289 151.934 128.454Z" fill="#875A54"/>
<path d="M166.053 124.301C161.648 125.803 162.859 130.928 166.053 133.313C169.247 135.699 174.864 136.14 175.657 132.341C176.45 128.542 172.353 122.114 166.053 124.301Z" fill="#875A54"/>
<path d="M152.837 135.301C148.586 137.399 145.965 139.299 144.974 142.723C143.982 146.146 147.176 149.349 151.934 147.494C156.692 145.638 160.393 140.669 158.234 138.106C156.075 135.544 155.04 134.263 152.837 135.301Z" fill="#D68954"/>
<path d="M165.481 145.152C162.903 149.15 161.604 152.11 162.507 155.578C163.41 159.046 167.86 160.128 170.943 156.086C174.027 152.044 174.71 145.881 171.538 144.799C168.366 143.717 166.736 143.142 165.481 145.152Z" fill="#D68954"/>
<path d="M178.059 150.166C174.645 151.536 172.882 154.584 174.645 156.947C176.407 159.311 183.279 159.046 185.878 155.622C188.478 152.198 183.676 147.935 178.059 150.166Z" fill="#D68954"/>
<path d="M146.075 166.026C142.771 166.379 142.308 168.036 140.854 172.211C139.401 176.385 140.326 177.887 144.577 178.086C148.828 178.285 156.053 175.612 156.428 171.46C156.802 167.307 151.273 165.452 146.075 166.026Z" fill="#875A54"/>
<path d="M226.803 157.721C223.499 158.074 223.037 159.731 221.583 163.905C220.129 168.08 221.12 169.582 225.306 169.781C229.491 169.98 236.782 167.307 237.134 163.154C237.487 159.002 232.002 157.146 226.803 157.721Z" fill="#D68954"/>
<path d="M212.309 145.837C209.005 146.213 208.543 147.847 207.089 152.022C205.635 156.197 206.56 157.721 210.811 157.897C215.063 158.074 222.287 155.446 222.64 151.271C222.992 147.096 217.486 145.285 212.309 145.837Z" fill="#875A54"/>
<path d="M172.375 157.809C168.608 160.018 166.053 164.06 167.573 166.909C169.093 169.759 177.133 169.693 181.979 166.026C186.825 162.359 183.675 158.405 180.282 157.809C176.89 157.213 174.533 156.572 172.375 157.809Z" fill="#6D4338"/>
<path d="M176.781 164.48C173.058 167.484 172.089 168.897 173.609 172.785C175.128 176.672 181.671 174.994 184.446 172.012C187.221 169.03 189.38 164.17 186.649 162.16C183.917 160.15 179.82 162.006 176.781 164.48Z" fill="#875A54"/>
<path d="M159.599 168.124C163.212 170.51 167.617 170.09 168.917 168.124C170.216 166.158 169.511 161.498 166.45 161.299C164.974 161.166 159.489 159.93 157.639 161.299C155.788 162.668 157.749 166.887 159.599 168.124Z" fill="#875A54"/>
<path d="M155.238 122.225C158.828 124.61 163.234 124.191 164.533 122.225C165.833 120.259 165.128 115.598 162.066 115.4C160.59 115.267 155.128 114.03 153.255 115.4C151.383 116.769 153.365 120.988 155.238 122.225Z" fill="#875A54"/>
<path d="M150.304 173.735C146.735 175.016 146.823 178.152 150.304 182.062C153.784 185.972 157.727 186.745 159.445 184.69C161.163 182.636 162.463 180.737 159.643 177.887C156.824 175.038 153.453 172.586 150.304 173.735Z" fill="#D68954"/>
<path d="M197.529 138.393C193.983 139.674 194.071 142.811 197.529 146.743C200.987 150.674 204.974 151.403 206.648 149.371C208.322 147.339 209.666 145.417 206.847 142.568C204.027 139.719 200.679 137.267 197.529 138.393Z" fill="#D68954"/>
<path d="M176.78 172.012C172.683 173.006 173.388 177.954 175.018 180.847C175.468 181.47 176.039 181.997 176.696 182.395C177.352 182.794 178.082 183.056 178.842 183.168C179.601 183.279 180.376 183.236 181.119 183.043C181.861 182.849 182.558 182.508 183.168 182.04C185.37 180.339 187.463 177.622 184.776 174.994C182.088 172.365 179.952 171.239 176.78 172.012Z" fill="#D68954"/>
<path d="M206.099 153.215C202.002 154.209 202.729 159.178 204.337 162.05C205.945 164.921 210.35 164.966 212.509 163.265C214.668 161.564 216.782 158.847 214.117 156.219C211.452 153.59 209.293 152.464 206.099 153.215Z" fill="#D68954"/>
<path d="M180.613 128.432C176.516 129.426 177.243 134.373 178.851 137.267C180.459 140.161 184.864 140.161 187.023 138.46C189.181 136.759 191.296 134.042 188.631 131.414C185.965 128.785 183.807 127.659 180.613 128.432Z" fill="#D68954"/>
<path d="M182.243 175.546C179.467 176.783 179.203 183.144 183.432 185.729C187.661 188.313 193.895 186.678 192.948 181.907C192.001 177.136 188.08 173.006 182.243 175.546Z" fill="#6D4338"/>
<path d="M203.719 161.63C200.944 162.845 200.702 169.207 204.909 171.791C209.116 174.375 215.372 172.741 214.425 167.97C213.477 163.199 209.469 159.09 203.719 161.63Z" fill="#6D4338"/>
<path d="M159.598 181.156C161.801 184.138 169.819 188.688 172 183.012C172.474 182.002 172.736 180.906 172.769 179.79C172.802 178.675 172.606 177.565 172.193 176.529C171.78 175.493 171.158 174.553 170.367 173.768C169.576 172.984 168.632 172.371 167.594 171.968C157.528 169.45 157.241 178.152 159.598 181.156Z" fill="#6D4338"/>
<path d="M152.484 151.116C154.686 154.098 162.682 158.648 164.863 152.972C165.341 151.963 165.605 150.866 165.64 149.749C165.675 148.633 165.479 147.522 165.066 146.485C164.652 145.448 164.029 144.508 163.236 143.723C162.443 142.939 161.497 142.328 160.458 141.928C150.413 139.321 150.193 148.112 152.484 151.116Z" fill="#6D4338"/>
<path d="M166.449 182.062C161.339 183.895 162.705 188.887 166.449 190.897C170.194 192.907 178.146 193.106 178.697 190.897C179.247 188.688 178.586 185.441 174.467 183.255C172.016 181.93 169.179 181.508 166.449 182.062Z" fill="#875A54"/>
<path d="M179.644 184.69C176.252 186.899 174.181 187.937 175.789 190.875C177.397 193.813 180.459 197.502 183.168 195.889C185.878 194.277 187.926 187.849 186.627 185.817C185.754 184.876 184.593 184.254 183.328 184.05C182.063 183.846 180.767 184.071 179.644 184.69V184.69Z" fill="#6D4338"/>
<path d="M186.075 145.925C182.969 147.538 180.458 150.122 183.167 152.883C185.877 155.644 193.829 157.433 196.274 155.534C198.719 153.634 200.239 149.084 196.274 147.56C192.309 146.036 187.683 145.152 186.075 145.925Z" fill="#6D4338"/>
<path d="M192.133 151.646C187.728 153.148 188.939 158.273 192.133 160.658C195.327 163.044 200.944 163.486 201.737 159.709C202.53 155.932 198.389 149.57 192.133 151.646Z" fill="#875A54"/>
<path d="M213.764 160.614C209.359 162.116 210.57 167.241 213.764 169.626C216.958 172.012 222.575 172.454 223.368 168.676C224.161 164.899 220.02 158.538 213.764 160.614Z" fill="#875A54"/>
<path d="M193.037 158.405C188.785 160.504 186.164 162.403 185.173 165.827C184.182 169.251 187.376 172.453 192.133 170.598C196.891 168.743 200.592 163.773 198.433 161.211C196.275 158.648 195.129 157.456 193.037 158.405Z" fill="#D68954"/>
<path d="M197.289 178.638C193.037 180.847 190.416 182.614 189.425 186.06C188.434 189.506 191.628 192.686 196.385 190.831C201.143 188.976 204.844 184.006 202.685 181.443C200.527 178.881 199.381 177.6 197.289 178.638Z" fill="#D68954"/>
<path opacity="0.5" d="M189.82 155.976C190.434 159.311 190.019 162.756 188.63 165.849C186.427 170.024 181.493 173.933 181.868 178.925C182.242 183.917 187.771 187.12 187.771 187.12C187.771 187.12 184.753 182.04 187.771 178.395C190.789 174.751 194.511 169.692 193.917 165.429C193.167 162.044 191.776 158.835 189.82 155.976V155.976Z" fill="#CFE5FF"/>
<path opacity="0.5" d="M230.108 133.909C229.775 131.251 228.434 128.822 226.363 127.128C228.357 123.937 229.298 120.196 229.051 116.438C228.103 109.524 222.442 101.219 222.442 101.219C222.442 101.219 224.249 110.43 220.504 117.189C216.759 123.948 208.984 130.287 209.49 138.327C209.997 146.367 219.006 151.58 219.006 151.58C219.006 151.58 214.16 143.363 219.006 137.466C220.107 136.162 221.209 134.727 222.354 133.225C222.414 133.457 222.488 133.686 222.575 133.909C224.425 137.952 224.337 139.1 221.958 142.745C220.921 144.587 220.329 146.648 220.229 148.762C220.13 150.875 220.526 152.983 221.385 154.915C222.302 151.323 223.928 147.951 226.165 144.998C227.577 143.541 228.66 141.797 229.34 139.884C230.02 137.971 230.282 135.933 230.108 133.909V133.909Z" fill="#CFE5FF"/>
<path opacity="0.5" d="M162.065 124.39C162.065 124.39 160.259 133.622 164.004 140.359C167.748 147.096 175.524 153.458 175.017 161.52C174.511 169.582 165.501 174.773 165.501 174.773C165.501 174.773 170.347 166.556 165.501 160.658C160.656 154.761 154.488 146.61 155.523 139.697C156.558 132.783 162.065 124.39 162.065 124.39Z" fill="#CFE5FF"/>
<path opacity="0.5" d="M134.509 116.438C135.123 119.774 134.708 123.218 133.32 126.311C131.007 130.486 126.205 134.418 126.557 139.387C126.91 144.357 132.461 147.56 132.461 147.56C132.461 147.56 129.443 142.458 132.461 138.725C135.478 134.992 139.201 130.044 138.628 125.759C137.843 122.423 136.447 119.262 134.509 116.438V116.438Z" fill="#CFE5FF"/>
<path opacity="0.5" d="M177.771 109.237C177.162 111.945 175.941 114.477 174.202 116.637C172.943 118.026 172.057 119.714 171.629 121.543C171.201 123.371 171.245 125.278 171.757 127.084C173.585 132.584 177.242 131.723 177.242 131.723C175.869 129.403 175.203 126.731 175.326 124.036C176.141 119.906 177.925 120.215 178.476 115.731C178.929 113.546 178.683 111.273 177.771 109.237Z" fill="#CFE5FF"/>
<path opacity="0.5" d="M146.383 147.361C146.99 150.063 148.211 152.588 149.952 154.739C151.211 156.128 152.097 157.817 152.525 159.645C152.953 161.473 152.909 163.38 152.397 165.186C150.568 170.708 146.912 169.847 146.912 169.847C148.285 167.527 148.951 164.855 148.828 162.16C148.013 158.096 146.229 158.405 145.678 153.988C145.195 151.76 145.443 149.436 146.383 147.361Z" fill="#CFE5FF"/>
<path opacity="0.5" d="M183.498 121.916C183.498 121.916 180.238 129.094 181.516 132.032C182.714 134.517 184.083 136.916 185.613 139.211C186.934 141.42 185.238 145.55 185.238 145.55C185.238 145.55 191.516 139.476 189.203 135.301C186.67 130.707 183.344 125.03 183.498 121.916Z" fill="#CFE5FF"/>
<path opacity="0.5" d="M139.841 100.976C139.841 100.976 136.581 108.155 137.88 111.114C139.18 114.074 140.083 114.008 141.823 116.769C143.784 120.06 141.603 124.61 141.603 124.61C141.603 124.61 147.859 118.647 145.546 114.361C143.035 109.811 139.62 104.09 139.841 100.976Z" fill="#CFE5FF"/>
<path opacity="0.5" d="M195.768 147.825C195.768 147.825 192.486 155.004 193.808 157.964C195.129 160.923 196.011 160.857 197.751 163.618C199.711 166.909 197.53 171.482 197.53 171.482C197.53 171.482 203.786 165.385 201.473 161.211C198.94 156.638 195.614 150.94 195.768 147.825Z" fill="#CFE5FF"/>
<path opacity="0.5" d="M200.702 107.602C199.842 109.624 198.772 111.55 197.508 113.345C195.614 115.863 196.451 118.116 198.697 120.612C200.067 122.204 200.967 124.147 201.297 126.223C201.891 123.596 201.597 120.844 200.459 118.404C198.565 114.98 203.918 112.462 200.702 107.602Z" fill="#CFE5FF"/>
<path opacity="0.5" d="M121.029 140.934C121.029 140.934 117.196 144.954 117.086 147.361C116.926 149.981 117.751 152.566 119.399 154.606C120.608 156.449 121.328 158.57 121.491 160.769C121.491 160.769 125.456 156.351 122.901 152.905C120.346 149.46 120.963 145.55 121.029 140.934Z" fill="#CFE5FF"/>
</g>
<g clip-path="url(#clip1_356_20524)">
<path d="M47.0388 199.384C46.7478 196.079 47.1525 192.749 48.226 189.615C49.6151 185.238 52.6069 181.258 54.7558 183.224C56.9047 185.189 55.943 188.144 55.4206 190.46C54.9695 192.317 54.8626 194.524 53.8891 195.115C52.9156 195.706 53.1412 193.028 53.3074 192.124C53.4736 191.219 55.0882 186.902 53.7229 186.323C52.7375 185.889 51.5859 187.529 50.9092 189.471C50.2325 191.412 48.8196 195.501 49.1996 197.201C49.5795 198.901 49.7219 200.023 48.6772 200.819C47.6324 201.615 47.1338 200.505 47.0388 199.384Z" fill="#D68954"/>
<path d="M89.327 206.74C87.368 217.992 83.7233 229.437 76.9086 235.684C61.7358 249.649 47.7502 243.004 40.4844 237.348L40.8643 241.135C40.8643 248.889 51.8462 255.173 65.3924 255.173C78.9387 255.173 89.9325 248.889 89.9325 241.135L93.2923 206.74H89.327Z" fill="#563729"/>
<path d="M76.908 235.684C83.7227 229.437 87.3675 217.992 89.3264 206.74H37.5039L40.4838 237.348C47.7497 243.004 61.7352 249.649 76.908 235.684Z" fill="#563729"/>
<path opacity="0.5" d="M76.908 235.684C83.7227 229.437 87.3675 217.992 89.3264 206.74H37.5039L40.4838 237.348C47.7497 243.004 61.7352 249.649 76.908 235.684Z" fill="#684337"/>
<path d="M45.8145 217.317C46.1231 217.727 48.1889 251.084 48.1889 251.084L49.5186 251.784L47.7378 218.547L45.8145 217.317Z" fill="#684337"/>
<path d="M57.498 220.983L58.246 254.558L59.6351 254.775L59.5401 220.983H57.498Z" fill="#684337"/>
<path d="M85.0167 217.317C84.7199 217.727 82.6422 251.084 82.6422 251.084L81.3125 251.784L83.1052 218.547L85.0167 217.317Z" fill="#684337"/>
<path d="M73.3361 220.983L72.6 254.558L71.2109 254.775L71.294 220.983H73.3361Z" fill="#684337"/>
<path d="M93.2918 206.74C93.2918 215.544 80.8022 222.683 65.3919 222.683C49.9817 222.683 37.5039 215.544 37.5039 206.74C37.5039 197.937 49.9936 190.797 65.3919 190.797C80.7903 190.797 93.2918 197.937 93.2918 206.74Z" fill="#875A54"/>
<path d="M65.393 203.472C75.6269 203.472 84.3887 207.018 88.1997 212.071C89.4668 210.485 90.1807 208.517 90.2298 206.475C90.2298 198.648 79.0936 192.353 65.393 192.353C51.6924 192.353 40.5918 198.648 40.5918 206.475C40.6341 208.514 41.3396 210.482 42.5982 212.071C46.3973 207.018 55.171 203.472 65.393 203.472Z" fill="#563729"/>
<path d="M65.3925 220.657C75.6264 220.657 84.3881 217.112 88.1991 212.071C84.4 207.018 75.6264 203.472 65.3925 203.472C55.1585 203.472 46.3968 207.018 42.5977 212.071C46.3968 217.112 55.1704 220.657 65.3925 220.657Z" fill="#98BFF9"/>
<path d="M65.4051 248.588C52.0963 248.588 41.1857 242.667 40.2715 235.189L40.4496 236.974C41.1382 244.512 52.0369 250.517 65.3814 250.517C78.7258 250.517 89.4821 244.596 90.3132 237.119L90.515 235.117C89.6246 242.594 78.7258 248.588 65.4051 248.588Z" fill="#D68954"/>
<path d="M65.4036 231.125C52.0948 231.125 39.4746 225.216 38.5723 217.739L38.7385 219.512C39.4271 227.049 52.0354 233.055 65.4036 233.055C78.7718 233.055 91.2021 227.133 92.0213 219.656L92.2231 217.679C91.3209 225.144 78.7244 231.125 65.4036 231.125Z" fill="#D68954"/>
<path d="M85.4811 219.982C85.1962 216.677 85.6008 213.349 86.6683 210.214C88.0574 205.836 91.0611 201.856 93.21 203.822C95.3588 205.788 94.3972 208.742 93.8748 210.997C93.4118 212.855 93.3168 215.062 92.3314 215.653C91.346 216.243 91.5953 213.566 91.7497 212.662C91.904 211.757 93.5068 207.5 92.1414 206.909C91.156 206.475 90.0044 208.175 89.3277 210.057C88.651 211.938 87.2382 216.087 87.6181 217.787C87.998 219.488 88.1405 220.609 87.0838 221.345C86.0272 222.08 85.6354 221.092 85.4811 219.982Z" fill="#D68954"/>
<path d="M57.8893 242.775C57.8893 242.775 56.3103 242.269 55.5979 243.161C55.3441 242.875 55.1911 242.511 55.1632 242.127C55.1352 241.742 55.2339 241.36 55.4436 241.038C55.0739 241.135 54.7294 241.312 54.4341 241.558C54.1388 241.804 53.8999 242.112 53.734 242.462C53.734 242.462 53.3422 240.58 52.6061 240.339C52.3568 241.171 51.1696 241.871 51.1696 241.871C51.1624 241.381 51.0402 240.9 50.813 240.468C50.5859 240.036 50.2604 239.665 49.8636 239.386C49.2591 239.119 48.5932 239.027 47.9403 239.121C47.9403 239.121 47.5367 237.626 47.0974 237.493C46.7564 237.345 46.3817 237.296 46.0149 237.351C45.6482 237.407 45.3037 237.564 45.0197 237.806C45.0476 237.465 45.1467 237.134 45.3104 236.834C45.4742 236.535 45.6989 236.274 45.9695 236.07C45.7439 235.599 43.9156 235.732 43.9156 235.732C43.9156 235.732 43.5713 234.442 42.6453 234.526C42.1542 234.548 41.6851 234.74 41.3156 235.069C41.1165 234.76 41.0258 234.392 41.0581 234.024C41.0904 233.657 41.2439 233.311 41.4937 233.043C40.627 232.645 39.4279 234.02 39.4279 234.02C39.4549 233.702 39.4052 233.382 39.2831 233.087C39.1611 232.793 38.9704 232.534 38.7274 232.331C38.4871 232.22 38.2259 232.162 37.9617 232.162C37.6974 232.162 37.4362 232.22 37.1959 232.331C37.1943 231.969 37.0977 231.614 36.9162 231.303C36.7346 230.991 36.4747 230.734 36.163 230.558C35.8073 230.342 35.4047 230.218 34.9906 230.197C34.5765 230.176 34.1637 230.259 33.7885 230.438C33.7927 229.995 33.658 229.562 33.404 229.203C33.15 228.843 32.7899 228.574 32.3757 228.436C32.0829 228.278 31.7506 228.212 31.4209 228.247C31.0911 228.281 30.7789 228.414 30.5237 228.629C30.5147 228.263 30.4071 227.906 30.2124 227.598C30.0177 227.289 29.7435 227.041 29.4195 226.88C29.1514 226.758 28.851 226.73 28.5653 226.8C28.2796 226.87 28.0248 227.034 27.8405 227.266C27.5877 227.077 27.4143 226.799 27.3549 226.486C27.2955 226.173 27.3544 225.849 27.52 225.578C27.1044 225.325 25.656 226.133 25.656 226.133C25.656 226.133 26.1309 224.492 25.5373 223.829C25.0706 224.39 24.5583 224.911 24.0058 225.385C24.0831 225.181 24.1008 224.958 24.0565 224.744C24.0123 224.53 23.9081 224.334 23.7565 224.179C23.3765 223.672 22.6879 223.383 22.9491 222.768C22.2825 222.837 21.6649 223.155 21.2158 223.66C21.1087 223.011 21.0847 222.35 21.1446 221.695C20.7646 221.827 19.6843 222.334 19.6843 222.334C19.5759 221.801 19.3061 221.316 18.9126 220.947C18.3071 220.428 17.476 221.092 17.476 221.092C17.4306 220.686 17.2741 220.302 17.0244 219.982C16.7746 219.662 16.4416 219.42 16.0632 219.283C15.7829 219.217 15.4922 219.213 15.21 219.269C14.9278 219.325 14.6603 219.44 14.4248 219.608C14.4248 219.608 14.5554 218.402 12.9883 218.535C12.1097 218.631 12.0741 219.656 12.0741 219.656C11.6354 219.832 11.1475 219.832 10.7088 219.656C9.31975 219.21 9.36724 221.646 9.36724 221.646C9.36724 221.646 7.93069 221.236 7.30146 221.646C6.89808 221.91 6.6078 222.319 6.48888 222.791C6.36996 223.263 6.43122 223.763 6.66036 224.191C5.55623 224.191 4.66581 222.732 4.66581 222.732C4.42984 223.163 4.30601 223.649 4.30601 224.143C4.30601 224.636 4.42984 225.122 4.66581 225.554C4.2859 225.879 3.39548 225.554 2.55254 227.146C2.35323 227.822 2.35323 228.543 2.55254 229.22C2.25484 229.23 1.96453 229.317 1.70888 229.472C1.45323 229.627 1.24063 229.846 1.09106 230.107C0.941495 230.369 0.859865 230.665 0.853843 230.968C0.84782 231.27 0.917603 231.569 1.05663 231.837C1.20906 232.068 1.27815 232.345 1.25218 232.622C1.22622 232.899 1.1068 233.159 0.914166 233.356C0.542286 233.672 0.286878 234.106 0.18981 234.588C0.092742 235.07 0.159772 235.571 0.379913 236.01C0.902294 236.974 0 237.312 0 238.53C0 239.242 1.10412 239.832 1.10412 239.832C0.775489 240.467 0.698997 241.205 0.890422 241.895C1.07375 242.399 1.37837 242.848 1.77652 243.202C2.17467 243.556 2.65369 243.803 3.1699 243.921C2.85026 244.145 2.59939 244.456 2.44609 244.819C2.29278 245.182 2.24327 245.581 2.30322 245.971C3.24114 245.609 5.28317 245.971 5.47313 246.405C5.80555 247.261 4.2859 247.864 4.2859 247.864C5.30708 248.024 6.34375 248.057 7.37269 247.961C7.07454 248.333 6.92392 248.806 6.95027 249.285C6.97661 249.765 7.17803 250.217 7.51516 250.554C8.00192 249.746 9.88962 249.722 9.88962 249.722C9.5935 250.123 9.44351 250.617 9.46516 251.118C9.4868 251.619 9.67875 252.097 10.0083 252.471C11.0412 250.771 13.7244 251.844 13.7244 251.844C13.7244 251.844 13.0002 253.737 14.3892 254.618C15.2072 254.228 16.1147 254.074 17.013 254.172C17.1405 254.563 17.228 254.968 17.2742 255.378C17.3573 256.415 17.6541 257.428 18.2121 257.645C18.782 256.439 20.7053 256.439 20.7053 256.439C20.7053 256.439 20.7053 258.067 21.1089 258.405C21.9609 258.12 22.8747 258.087 23.7446 258.308C23.3663 258.841 23.2047 259.502 23.2934 260.153C24.2788 259.876 24.9199 260.274 25.9528 259.9C25.8341 260.997 26.4396 260.853 26.4633 262.312C27.4725 262.396 28.0898 261.323 28.5054 261.106C27.9949 261.697 28.7428 263.325 28.7428 263.325C29.5395 262.762 30.4616 262.41 31.426 262.3C31.0724 263.22 30.9658 264.219 31.1173 265.194C31.608 264.753 32.2316 264.493 32.8862 264.459C33.4812 264.458 34.0757 264.49 34.6671 264.555C34.713 265.39 35.0496 266.181 35.6169 266.786C36.2817 265.858 37.1247 266.292 37.7183 265.58C37.9201 267.027 38.49 268.173 39.1667 267.884C39.8434 267.594 40.8644 267.558 41.0781 268.487C41.4937 270.187 42.5978 269.439 43.6782 269.439C44.438 270.115 44.6992 270.573 46.1951 270.259C47.0024 270.091 47.6791 269.27 48.8545 269.439C50.9677 269.753 50.5047 268.752 51.7988 268.161C52.8436 267.703 52.4043 266.762 53.271 266.412C54.1376 266.063 54.755 265.845 54.9212 265.46C55.3011 264.603 54.9212 264.061 55.2299 263.434C55.776 262.493 56.7258 263.144 56.2628 261.54C57.5569 262.047 57.6518 260.334 57.6518 260.334C57.6518 260.334 55.4673 260.334 57.9724 258.019C58.7322 257.307 58.4948 256.342 58.2098 255.112C58.5896 254.813 58.8495 254.384 58.9412 253.905C59.033 253.426 58.9502 252.929 58.7085 252.507C59.4802 252.387 60.1094 250.976 60.1094 250.976C59.7245 250.739 59.3981 250.416 59.1553 250.031C58.9124 249.647 58.7596 249.211 58.7085 248.757C59.4091 248.463 59.9937 247.941 60.3706 247.273C59.6701 247.08 59.1834 244.861 57.545 245.151C57.2811 244.789 57.1692 244.336 57.2337 243.891C57.2983 243.445 57.534 243.044 57.8893 242.775V242.775Z" fill="#CDD1D3"/>
<path d="M38.6566 255.064C37.7002 255.361 36.8501 255.935 36.2109 256.716C35.8183 257.375 35.5148 258.085 35.3086 258.827C35.8141 258.438 36.3745 258.129 36.9707 257.91C37.3506 257.814 38.4429 257.717 38.4429 257.717C37.6952 258.221 37.1221 258.951 36.8045 259.804C36.5789 260.648 36.1278 261.926 36.1278 261.926C36.8514 261.906 37.5566 261.69 38.1698 261.299C38.6448 260.907 39.0749 260.462 39.452 259.972L37.5406 260.033C37.984 259.588 38.3818 259.1 38.7278 258.573C39.179 257.862 39.6895 256.825 39.6895 256.825L37.4812 256.752C37.9337 256.236 38.3279 255.67 38.6566 255.064V255.064Z" fill="#BCBFC1"/>
<path d="M47.407 240.351C47.1023 240.915 46.9277 241.542 46.8965 242.184C46.8965 242.932 47.039 244.029 47.039 244.029C47.4652 243.49 47.7655 242.859 47.9175 242.184C47.8395 241.55 47.6674 240.932 47.407 240.351V240.351Z" fill="#BCBFC1"/>
<path d="M44.9609 241.002C45.0122 241.809 45.235 242.595 45.6139 243.306C45.9839 243.77 46.3249 244.257 46.6349 244.765C46.6334 244.162 46.5207 243.565 46.3025 243.004C45.9368 242.284 45.4863 241.612 44.9609 241.002Z" fill="#BCBFC1"/>
<path d="M18.9949 249.179C18.3273 249.474 17.7962 250.018 17.5109 250.698C17.3706 251.139 17.2907 251.598 17.2734 252.061C17.5418 251.648 17.8655 251.274 18.2351 250.952C18.5526 250.732 18.9207 250.599 19.3036 250.566C19.0736 251.276 19.1031 252.046 19.3867 252.736C19.5492 253.089 19.6458 253.469 19.6716 253.858C20.1374 253.599 20.5856 253.309 21.0132 252.99C21.2872 252.776 21.5171 252.51 21.6899 252.206C21.6899 252.206 22.2598 253.761 22.4972 254.352C22.6596 254.773 22.7597 255.216 22.7941 255.667L23.6014 254.702C23.839 254.372 23.9902 253.986 24.0406 253.581C24.4459 254.347 24.7683 255.156 25.0023 255.993C25.0839 256.504 25.0839 257.025 25.0023 257.536C25.4305 256.954 25.7375 256.289 25.9046 255.583C25.942 254.95 25.8448 254.316 25.6197 253.725L24.9548 254.557C24.8189 253.906 24.6242 253.268 24.3731 252.652C24.1957 252.284 23.9679 251.942 23.6963 251.639L22.984 253.629C22.984 253.629 22.4379 251.928 22.3429 251.555C22.2564 251.157 22.1969 250.754 22.1648 250.349L20.8707 251.723C20.6288 251.985 20.4103 252.267 20.2178 252.568C20.2178 252.568 19.8022 250.927 20.4552 250.156C20.8351 249.697 21.3456 248.95 21.3456 248.95C20.5592 248.752 19.73 248.833 18.9949 249.179V249.179Z" fill="#BCBFC1"/>
<path d="M3.83398 241.256C3.9899 241.462 4.19822 241.622 4.43664 241.718C4.67506 241.813 4.93459 241.841 5.18743 241.798C5.66911 241.778 6.14897 241.725 6.62397 241.641C6.39695 241.331 6.0687 241.113 5.69793 241.026C4.9856 240.773 4.74815 241.388 3.83398 241.256Z" fill="#BCBFC1"/>
<path d="M4.52345 239.652C5.00769 239.865 5.45628 240.154 5.85315 240.508C5.83758 240.156 5.73111 239.815 5.54447 239.519C5.31645 239.131 5.11417 238.728 4.93898 238.313L5.79378 238.952C6.02351 239.148 6.24155 239.357 6.44676 239.579C6.32086 238.96 6.05686 238.378 5.67506 237.879C5.2714 237.336 4.42847 237.035 4.19102 236.335C4.02249 236.856 4.02249 237.418 4.19102 237.939C3.79924 237.722 2.86133 237.071 2.86133 237.071C2.86133 237.071 3.40745 239.302 4.52345 239.652Z" fill="#BCBFC1"/>
<path d="M7.51562 246.031C7.63518 245.826 7.81171 245.662 8.02298 245.559C8.23425 245.456 8.47081 245.419 8.70285 245.452C9.47455 245.573 10.1394 245.706 10.1394 245.706C9.78632 245.936 9.37154 246.05 8.95217 246.031C8.47548 245.966 7.99232 245.966 7.51562 246.031V246.031Z" fill="#BCBFC1"/>
<path d="M8.83203 247.044C9.18983 246.688 9.64476 246.448 10.138 246.357C10.5183 246.316 10.8883 246.205 11.2302 246.031C11.2302 246.031 11.349 246.912 10.5535 247.044C9.75807 247.177 9.27131 246.875 8.83203 247.044Z" fill="#BCBFC1"/>
<path d="M18.0694 247.72C18.0694 247.72 16.8821 247.623 16.5022 248.142C16.2171 248.624 16.054 249.171 16.0273 249.734C16.2585 249.407 16.5253 249.107 16.8228 248.841C17.3689 248.335 18.0694 247.72 18.0694 247.72Z" fill="#BCBFC1"/>
<path d="M9.72266 222.997C9.72266 222.997 10.2332 223.974 10.7437 224.203C11.2542 224.432 12.1209 224.878 12.1209 224.878C12.1209 224.878 12.1921 223.938 11.4798 223.672C10.7674 223.407 9.72266 222.997 9.72266 222.997Z" fill="#BCBFC1"/>
<path d="M8.38281 225.108C8.6544 224.899 8.96572 224.751 9.29689 224.672C9.62806 224.593 9.97179 224.586 10.3061 224.649C10.7783 224.801 11.1767 225.129 11.4221 225.566C10.9215 225.677 10.4031 225.677 9.90247 225.566C9.17826 225.373 8.38281 225.108 8.38281 225.108Z" fill="#BCBFC1"/>
<path d="M13.2143 224.577C13.2143 224.577 12.7987 223.455 13.6535 222.997C14.1369 222.753 14.5812 222.436 14.9714 222.056C15.0701 222.389 15.0404 222.747 14.8883 223.057C14.7702 223.344 14.671 223.638 14.5914 223.938C14.8914 223.603 15.2782 223.36 15.7074 223.238C16.1404 223.1 16.5434 222.879 16.8947 222.587C16.8197 223.115 16.6634 223.628 16.4316 224.107C15.9923 224.562 15.624 225.082 15.3394 225.65C15.2036 225.416 15.1195 225.154 15.0929 224.884C15.0662 224.613 15.0977 224.34 15.1851 224.082C14.721 224.333 14.3159 224.683 13.9978 225.108C13.8997 224.559 13.9447 223.993 14.1284 223.467C13.7129 223.636 13.4992 223.974 13.2143 224.577Z" fill="#BCBFC1"/>
<path d="M27.1866 228.231C27.0522 228.732 27.0942 229.265 27.3053 229.738C27.5196 230.224 27.7021 230.724 27.8514 231.234C28.0115 231.025 28.1144 230.776 28.1499 230.514C28.1853 230.251 28.152 229.984 28.0533 229.738C27.6971 229.075 27.1866 228.231 27.1866 228.231Z" fill="#BCBFC1"/>
<path d="M24.7891 227.809C24.8367 228.041 24.9295 228.26 25.062 228.455C25.1946 228.65 25.3641 228.815 25.5608 228.942C25.979 229.167 26.3764 229.429 26.748 229.726C26.6435 229.28 26.4266 228.868 26.1188 228.532C25.7041 228.241 25.258 227.998 24.7891 227.809V227.809Z" fill="#BCBFC1"/>
<path d="M32.114 232.778C32.7488 232.648 33.4026 232.648 34.0374 232.778C34.481 232.924 34.959 232.924 35.4027 232.778C35.1523 233.024 34.8866 233.253 34.6072 233.465C34.3904 233.588 34.1641 233.693 33.9305 233.778C34.3432 233.874 34.7657 233.919 35.189 233.911C35.574 233.877 35.9509 233.779 36.305 233.622C36.305 233.622 36.0913 234.731 35.4383 234.828C34.2511 234.984 33.4675 235.177 33.4675 235.177L34.0492 234.562C33.3442 234.521 32.6597 234.305 32.0547 233.935C32.5491 233.82 33.0221 233.624 33.4556 233.356C32.9661 233.286 32.5034 233.087 32.114 232.778Z" fill="#BCBFC1"/>
<path d="M40.6383 237.384C40.5078 238.108 40.643 238.854 41.0182 239.483C41.3705 239.937 41.6767 240.426 41.9324 240.942C41.9324 240.942 42.5141 239.869 41.9324 239.169C41.3506 238.47 40.6383 237.384 40.6383 237.384Z" fill="#BCBFC1"/>
<path d="M38.4297 236.757C38.4902 237.264 38.7308 237.732 39.1064 238.072C39.5599 238.475 39.9807 238.915 40.3649 239.386C40.4018 238.839 40.2272 238.298 39.8781 237.879C39.4768 237.407 38.9836 237.025 38.4297 236.757Z" fill="#BCBFC1"/>
<path d="M34.7381 248.407C34.1855 248.602 33.7021 248.958 33.3491 249.432C33.1393 249.837 33.037 250.29 33.0523 250.747C33.4691 250.386 33.8472 249.982 34.1801 249.541C34.4144 249.189 34.602 248.808 34.7381 248.407Z" fill="#DCDFE2"/>
<path d="M32.7676 247.72C33.2086 247.927 33.6967 248.011 34.1804 247.961C34.8123 247.903 35.448 247.903 36.0799 247.961C35.9574 247.7 35.7683 247.478 35.5323 247.316C35.2964 247.155 35.0222 247.061 34.7384 247.044C34.0422 247.127 33.3708 247.357 32.7676 247.72Z" fill="#DCDFE2"/>
<path d="M12.6211 243.342C12.844 243.151 13.1046 243.012 13.3852 242.933C13.6659 242.854 13.96 242.837 14.2476 242.884C15.2093 243.04 16.0284 243.101 16.0284 243.101C15.497 243.438 14.8719 243.59 14.2476 243.535C13.7136 243.413 13.1684 243.348 12.6211 243.342V243.342Z" fill="#DCDFE2"/>
<path d="M13.0586 241.002C13.0586 241.002 13.4385 242.208 14.2458 242.208C14.8264 242.247 15.4003 242.357 15.9554 242.534C15.9554 242.534 16.2404 241.919 15.1362 241.617L13.0586 241.002Z" fill="#DCDFE2"/>
<path d="M6.44727 229.401C6.61626 229.61 6.82558 229.782 7.06238 229.907C7.29919 230.031 7.5585 230.105 7.82445 230.124H9.49844C9.49844 230.124 9.49844 229.545 8.42994 229.401C7.77207 229.31 7.10513 229.31 6.44727 229.401V229.401Z" fill="#DCDFE2"/>
<path d="M5.56836 231.596C6.31498 231.2 7.11518 230.92 7.94282 230.763C8.53023 230.69 9.12438 230.69 9.71179 230.763L8.61954 231.258C8.34522 231.418 8.03377 231.502 7.71724 231.499C8.1092 231.719 8.479 231.978 8.82137 232.271C9.13909 232.576 9.43655 232.903 9.71179 233.248C9.17376 232.846 8.57679 232.532 7.94282 232.319C7.13996 232.118 6.34748 231.877 5.56836 231.596V231.596Z" fill="#DCDFE2"/>
<path d="M7.95392 235.768C7.95392 235.768 8.15575 235.298 9.02242 235.165C9.69843 235.015 10.342 234.741 10.922 234.357C10.2895 234.315 9.65492 234.315 9.02242 234.357C8.71076 234.43 8.43368 234.61 8.23872 234.868C8.04376 235.125 7.94307 235.444 7.95392 235.768V235.768Z" fill="#DCDFE2"/>
<path d="M26.3438 232.681C26.3438 232.681 27.1273 233.754 27.6378 234.357C27.9883 234.916 28.1737 235.564 28.1721 236.227C28.1721 236.227 29.0744 234.707 28.3502 233.923C27.7684 233.379 27.0865 232.957 26.3438 232.681V232.681Z" fill="#DCDFE2"/>
<path d="M25.2871 233.356C25.4765 233.958 25.8458 234.485 26.3437 234.864C26.7865 235.126 27.187 235.455 27.531 235.841C27.5127 235.561 27.4342 235.288 27.3008 235.042C27.1675 234.796 26.9826 234.583 26.7593 234.418C26.2911 234.033 25.7994 233.678 25.2871 233.356Z" fill="#DCDFE2"/>
<path d="M38.4297 242.884C38.9321 242.532 39.5512 242.398 40.1512 242.51C40.6744 242.634 41.2188 242.634 41.7421 242.51C41.7421 242.51 41.0178 243.716 40.0799 243.39C39.5414 243.185 38.9902 243.015 38.4297 242.884V242.884Z" fill="#DCDFE2"/>
<path d="M31.4267 254.835C31.2462 255.122 31.1275 255.444 31.0784 255.781C31.0293 256.117 31.0509 256.461 31.1418 256.789C31.5217 257.621 31.8541 258.477 31.8541 258.477C32.1546 257.921 32.2271 257.266 32.056 256.656C31.7117 255.812 31.4267 254.835 31.4267 254.835Z" fill="#DCDFE2"/>
<path d="M30.3702 253.424C30.3702 253.424 29.3136 253.81 29.183 254.63C29.0796 255.313 29.0796 256.009 29.183 256.692C29.183 256.692 30.2396 255.92 30.2396 255.076C30.2244 254.522 30.2682 253.968 30.3702 253.424V253.424Z" fill="#DCDFE2"/>
<path d="M18.6155 225.891C18.4073 226.239 18.2779 226.629 18.2369 227.034C18.1958 227.439 18.244 227.848 18.3781 228.231C18.9005 229.256 19.0904 229.726 19.0904 229.726C19.3275 229.115 19.365 228.443 19.1973 227.809C18.9447 227.19 18.7499 226.548 18.6155 225.891V225.891Z" fill="#DCDFE2"/>
<path d="M20.1822 225.65C20.0486 226.363 20.0486 227.096 20.1822 227.809C20.3296 228.444 20.4327 229.089 20.4909 229.738C20.734 229.493 20.9067 229.184 20.9904 228.847C21.074 228.509 21.0655 228.154 20.9658 227.821C20.5858 226.711 20.1822 225.65 20.1822 225.65Z" fill="#DCDFE2"/>
<path d="M52.9625 241.967C52.7627 242.518 52.4558 243.022 52.0602 243.45C51.8156 243.728 51.684 244.091 51.6922 244.463C51.3437 244.071 51.0483 243.633 50.8136 243.161C50.6101 242.728 50.4625 242.27 50.3743 241.798C50.1849 241.958 50.0364 242.163 49.9413 242.394C49.8463 242.625 49.8075 242.875 49.8282 243.125C49.8567 243.502 49.9123 243.877 49.9944 244.246C49.4271 243.927 48.8307 243.665 48.2136 243.462C48.3981 244.155 48.3307 244.891 48.0236 245.537C47.6386 245.669 47.2214 245.669 46.8364 245.537C46.3488 245.315 45.8802 245.053 45.4355 244.753C45.484 245.098 45.5883 245.432 45.7441 245.742C45.9751 246.134 46.2589 246.491 46.5871 246.803C46.0867 246.794 45.5905 246.708 45.1149 246.55C44.6994 246.393 44.4144 245.597 44.4144 245.597C44.2703 246.074 44.2458 246.58 44.3432 247.068C44.4786 247.506 44.6918 247.915 44.9724 248.274C44.5834 248.166 44.1864 248.089 43.7852 248.045C43.3547 248.048 42.9254 248.093 42.503 248.178C42.9086 248.358 43.3048 248.56 43.6902 248.781C43.9204 248.963 44.1139 249.188 44.2601 249.444C43.8031 249.639 43.3179 249.757 42.8236 249.794C42.2926 249.7 41.8011 249.448 41.4108 249.07C41.3542 249.33 41.376 249.602 41.4734 249.849C41.5708 250.097 41.7393 250.308 41.9569 250.457C42.3314 250.722 42.7288 250.952 43.1441 251.145C42.528 250.958 41.8687 250.984 41.2683 251.217C40.9198 251.465 40.6148 251.771 40.366 252.121C40.83 252.041 41.3061 252.074 41.755 252.218C41.9871 252.297 42.1983 252.429 42.3724 252.604C41.7874 252.734 41.2291 252.967 40.7222 253.291C40.3631 253.571 40.1079 253.967 39.9979 254.413C39.9979 254.413 40.9121 253.93 41.1852 254.413C41.6482 255.124 40.7815 254.992 40.5203 255.824C40.3422 256.391 40.7815 256.945 40.7815 257.524C40.7815 258.103 40.1879 258.139 39.8911 259.044C39.7368 259.55 39.9742 260.792 39.4637 261.287C39.09 261.609 38.6587 261.854 38.1934 262.01C38.1934 262.01 39.1788 262.348 39.6655 262.01C39.5587 262.77 39.3094 263.072 39.7486 263.904C40.1879 264.736 40.366 264.712 40.366 265.098C40.366 265.484 40.1285 266.026 40.5559 266.412C40.9833 266.798 41.4226 266.919 41.3751 267.413C41.3569 267.562 41.3694 267.713 41.412 267.856C41.4546 268 41.5263 268.133 41.6225 268.246C41.7187 268.36 41.8372 268.452 41.9704 268.516C42.1037 268.58 42.2487 268.615 42.3962 268.619C42.8473 268.619 43.429 268.282 43.8921 268.692C44.3551 269.102 45.0793 269.668 45.8272 269.27C46.5752 268.872 47.0145 268.209 47.6556 268.45C48.0348 268.629 48.4638 268.667 48.8676 268.556C49.2713 268.446 49.624 268.195 49.8638 267.847C50.1369 267.244 50.1962 266.967 50.7068 266.858C50.9097 266.825 51.1175 266.843 51.312 266.91C51.5065 266.978 51.6819 267.092 51.8228 267.244C51.8777 267.011 51.8777 266.767 51.8228 266.533C51.8074 266.365 51.7546 266.202 51.6681 266.058C51.5817 265.914 51.4641 265.792 51.3241 265.701C51.7434 265.82 52.187 265.82 52.6063 265.701C52.9959 265.492 53.3622 265.242 53.6986 264.953L52.6894 264.29C52.6894 264.29 53.7461 264.29 54.0785 263.856C54.2803 263.566 54.0785 263.06 54.2091 262.65C54.399 262.01 54.7789 262.3 55.1351 261.576C55.221 261.179 55.221 260.768 55.1351 260.37C55.2027 260.512 55.3046 260.634 55.4312 260.725C55.5579 260.815 55.7052 260.872 55.8593 260.889C56.0753 260.865 56.2848 260.8 56.4767 260.696C56.1811 260.462 55.9245 260.181 55.7169 259.864C55.6114 259.584 55.5644 259.286 55.5787 258.987C55.593 258.688 55.6683 258.395 55.8 258.127C55.8 258.127 56.6666 258.224 56.9872 257.572C57.114 257.064 57.0637 256.527 56.8447 256.053C56.6548 255.546 56.7141 255.378 57.2959 255.04C57.5793 254.86 57.7953 254.589 57.9093 254.27C58.0234 253.951 58.0289 253.602 57.9251 253.279C57.5808 252.736 57.2484 252.592 57.6877 252.073C57.8719 251.828 57.9776 251.531 57.9903 251.222C58.0031 250.914 57.9223 250.609 57.7589 250.349L57.2603 249.625C57.4026 249.303 57.595 249.005 57.8301 248.745C58.1951 248.458 58.594 248.219 59.0174 248.033C58.6979 247.801 58.3013 247.706 57.9132 247.768C57.6023 247.747 57.2946 247.842 57.0466 248.033C57.1507 247.71 57.1834 247.367 57.1424 247.029C57.1014 246.692 56.9876 246.367 56.8091 246.079C56.6725 245.694 56.6238 245.281 56.6666 244.873C56.3799 244.943 56.1247 245.109 55.9424 245.344C55.7966 245.587 55.6297 245.817 55.4438 246.031C55.4438 246.031 55.8 245.006 55.4438 244.463C55.1285 244.001 54.8506 243.513 54.6127 243.004C54.4356 243.172 54.2994 243.379 54.2149 243.609C54.1304 243.839 54.0999 244.086 54.126 244.331C53.5826 243.632 53.1866 242.828 52.9625 241.967V241.967Z" fill="#DCDFE2"/>
<path d="M49.7801 245.742C49.7937 246.19 49.7376 246.638 49.6139 247.068C49.4873 247.383 49.3406 247.69 49.1746 247.985C49.1746 247.985 48.8422 247.165 48.4148 247.044C47.9004 246.919 47.3593 246.979 46.8833 247.213C47.2648 247.289 47.6206 247.463 47.9162 247.72C48.1843 248.011 48.3976 248.351 48.5454 248.721C47.9944 248.637 47.4343 248.637 46.8833 248.721C46.349 248.889 46.349 249.927 46.349 249.927C46.1355 249.901 45.9191 249.923 45.7143 249.989C45.5095 250.056 45.3212 250.166 45.1618 250.313C44.9907 250.53 44.8788 250.789 44.8371 251.064C44.7955 251.339 44.8255 251.621 44.9243 251.88C44.9243 252.025 44.4851 252.58 43.8202 252.821C43.3999 252.976 42.9669 253.093 42.5261 253.171C42.7048 253.411 42.9263 253.616 43.1791 253.774C43.5071 253.905 43.8721 253.905 44.2001 253.774C44.14 254.012 44.029 254.233 43.8752 254.423C43.7213 254.613 43.5283 254.766 43.3097 254.871C43.0824 255.012 42.9085 255.227 42.8159 255.481C42.7233 255.735 42.7174 256.013 42.7992 256.27C42.9417 256.716 43.0841 257.392 42.5618 257.548C42.1585 257.627 41.7409 257.568 41.3745 257.38C41.3654 257.75 41.4924 258.111 41.7307 258.393C41.9864 258.528 42.2746 258.586 42.5618 258.561C42.5618 258.561 42.0275 259.152 41.6951 259.49C41.3627 259.828 41.5526 260.129 41.6951 260.563C41.723 260.851 41.685 261.141 41.584 261.411C41.4831 261.681 41.322 261.923 41.1133 262.119C40.8669 262.204 40.6 262.204 40.3535 262.119C40.3998 262.26 40.4744 262.389 40.5725 262.499C40.6706 262.609 40.7901 262.698 40.9234 262.758C41.1148 262.838 41.3221 262.871 41.5283 262.854C41.7346 262.837 41.9341 262.771 42.1106 262.662C42.1106 262.662 41.3745 263.59 41.6595 264.025C41.9444 264.459 41.9325 264.314 42.1106 264.712C42.2887 265.11 41.7544 265.628 42.0394 266.026C42.1913 266.246 42.4012 266.417 42.6449 266.521C42.6449 266.521 42.6449 265.882 43.001 265.773C43.3572 265.665 43.8202 266.075 44.0577 266.509C44.2951 266.943 44.4851 267.45 44.9718 267.22C45.4586 266.991 46.0285 266.364 46.5508 266.75C47.0732 267.136 47.8924 267.341 48.1299 266.847C48.3673 266.352 48.0349 265.93 48.4742 265.93C48.9274 265.971 49.3762 266.052 49.8157 266.171L49.2815 265.194C49.6906 265.285 50.1101 265.318 50.5281 265.291C50.9173 265.269 51.2957 265.153 51.6322 264.953L50.445 264.169C50.8564 264.24 51.2791 264.154 51.6322 263.928C52.2614 263.542 51.834 263.144 52.024 262.722C52.2139 262.3 52.9381 262.553 53.0806 261.866C53.2231 261.178 52.9025 260.998 53.6861 260.165C54.1729 259.659 53.5199 258.742 53.5199 258.742C53.989 258.937 54.4792 259.075 54.9802 259.152C54.1966 257.946 55.5263 257.56 55.5738 256.873C55.6213 256.186 55.2889 255.957 55.2889 255.534C55.2889 255.112 55.9537 254.823 56.1912 254.389C56.4286 253.955 55.9537 253.955 55.9062 253.364C55.8587 252.773 56.1437 252.676 56.4405 252.158C56.7373 251.639 56.8679 251.422 56.4405 250.952C56.2887 250.782 56.1961 250.566 56.1768 250.337C56.1575 250.108 56.2126 249.879 56.3336 249.685C56.4943 249.379 56.6768 249.085 56.8797 248.805C56.8797 248.805 56.2861 248.902 55.9062 248.998C55.7923 249.029 55.6866 249.085 55.5963 249.162C55.5061 249.239 55.4335 249.336 55.3838 249.444C55.5599 248.97 55.6988 248.482 55.7994 247.985C55.8502 247.502 55.8017 247.013 55.6569 246.55C55.4684 246.982 55.2249 247.388 54.9327 247.756C54.7248 247.969 54.5342 248.199 54.3628 248.443C54.5397 247.652 54.5719 246.834 54.4578 246.031C54.3024 245.593 54.0735 245.185 53.7811 244.825C53.7644 245.329 53.6387 245.823 53.413 246.273C53.2207 246.577 53.0022 246.863 52.7601 247.129C52.667 246.524 52.4615 245.943 52.1546 245.416C51.7911 245.045 51.3482 244.765 50.8605 244.596C51.0097 245.322 51.0418 246.067 50.9555 246.803C50.9555 246.803 50.4093 245.754 49.7801 245.742Z" fill="#CDD1D3"/>
<path d="M52.7961 247.985C52.6392 248.31 52.4214 248.601 52.155 248.841C51.9926 249.008 51.8883 249.224 51.8582 249.456C51.6996 249.171 51.576 248.867 51.4901 248.552C51.4171 248.252 51.3773 247.944 51.3714 247.635C51.247 247.731 51.1444 247.852 51.0706 247.992C50.9968 248.131 50.9536 248.285 50.944 248.443C50.9271 248.684 50.9271 248.926 50.944 249.167C50.6642 248.916 50.3576 248.697 50.0298 248.515C50.0658 248.97 49.9621 249.425 49.733 249.818C49.5199 249.864 49.2978 249.834 49.1038 249.734C48.8501 249.549 48.6118 249.343 48.3914 249.118C48.3845 249.339 48.4126 249.559 48.4746 249.77C48.5605 250.036 48.6845 250.288 48.8426 250.517C48.5501 250.468 48.2686 250.366 48.0115 250.216C47.7978 250.083 47.7147 249.553 47.7147 249.553C47.5889 249.845 47.5281 250.162 47.5366 250.481C47.5711 250.751 47.6514 251.012 47.7741 251.253C47.5563 251.149 47.3298 251.064 47.0974 251C46.8604 250.979 46.622 250.979 46.385 251C46.385 251 46.6581 251.193 47.0024 251.494C47.1189 251.632 47.2077 251.792 47.2636 251.965C46.994 252.045 46.7129 252.077 46.4325 252.061C46.1395 251.946 45.8871 251.745 45.7083 251.482C45.6558 251.639 45.6446 251.808 45.6759 251.971C45.7071 252.133 45.7797 252.285 45.8864 252.411C46.0725 252.605 46.2751 252.783 46.4919 252.941C46.1686 252.776 45.7967 252.737 45.4471 252.833C45.2252 252.965 45.0249 253.132 44.8535 253.327C45.1186 253.313 45.3823 253.375 45.6133 253.508C45.7395 253.585 45.8486 253.688 45.9339 253.81C45.5902 253.841 45.2557 253.94 44.9485 254.099C44.7145 254.256 44.5357 254.484 44.438 254.75C44.438 254.75 44.996 254.521 45.1147 254.835C45.2928 255.329 44.8298 255.173 44.6042 255.679C44.3786 256.186 44.6042 256.415 44.6042 256.776C44.6042 257.138 44.2124 257.114 43.9631 257.657C43.8325 257.97 43.8444 258.778 43.5119 259.044C43.2828 259.216 43.0195 259.335 42.7402 259.393C42.7402 259.393 43.2507 259.707 43.5594 259.526C43.4288 259.996 43.2626 260.165 43.4288 260.732C43.595 261.299 43.7019 261.359 43.6544 261.6C43.6069 261.842 43.4407 262.167 43.6544 262.445C43.8681 262.722 44.0818 262.843 44.0106 263.144C43.9393 263.446 44.1055 263.988 44.4736 264.012C44.8416 264.036 45.0791 263.88 45.2928 264.181C45.5065 264.483 45.827 264.893 46.3138 264.712C46.8006 264.531 47.0736 264.145 47.406 264.35C47.5948 264.468 47.8192 264.512 48.0376 264.474C48.256 264.436 48.4534 264.319 48.5933 264.145C48.807 263.783 48.8663 263.614 49.1631 263.59C49.2811 263.588 49.3975 263.618 49.4999 263.678C49.6023 263.737 49.687 263.824 49.7449 263.928C49.8096 263.796 49.8498 263.653 49.8636 263.506C49.8636 263.072 49.6618 262.939 49.6618 262.939C49.8862 263.037 50.135 263.062 50.3741 263.011C50.616 262.915 50.8437 262.785 51.0508 262.625L50.5641 262.119C50.5641 262.119 51.1458 262.24 51.3714 261.962C51.597 261.685 51.4426 261.456 51.5495 261.202C51.6563 260.949 51.9056 261.034 52.1787 260.599C52.2619 260.343 52.302 260.074 52.2974 259.803C52.3166 259.894 52.3582 259.978 52.4185 260.048C52.4788 260.118 52.5556 260.171 52.6417 260.201C52.7677 260.2 52.8924 260.176 53.0098 260.129C52.8637 259.951 52.7437 259.752 52.6536 259.538C52.6004 259.183 52.6719 258.82 52.8554 258.513C52.9848 258.549 53.122 258.542 53.2477 258.495C53.3733 258.447 53.4811 258.361 53.5559 258.248C53.6534 257.934 53.6534 257.597 53.5559 257.283C53.5559 256.945 53.5559 256.837 53.9121 256.68C54.0911 256.574 54.2352 256.417 54.3261 256.228C54.417 256.039 54.4506 255.827 54.4226 255.619C54.2801 255.245 54.1139 255.124 54.4226 254.799C54.5491 254.653 54.6337 254.474 54.6672 254.283C54.7007 254.092 54.6818 253.895 54.6125 253.713L54.4107 253.207C54.5257 252.998 54.6742 252.811 54.85 252.652C55.0637 252.503 55.295 252.381 55.5386 252.29C55.4634 252.207 55.3715 252.141 55.269 252.098C55.1665 252.054 55.056 252.033 54.9449 252.037C54.7727 252.003 54.5944 252.038 54.4463 252.133C54.5903 251.745 54.5903 251.316 54.4463 250.927C54.3929 250.661 54.3929 250.386 54.4463 250.119C54.278 250.141 54.1225 250.222 54.007 250.349C53.9037 250.491 53.7885 250.624 53.6627 250.747C53.8202 250.438 53.8624 250.083 53.7815 249.746C53.6747 249.439 53.5913 249.125 53.5321 248.805C53.4134 248.9 53.3168 249.021 53.2491 249.159C53.1814 249.296 53.1442 249.447 53.1404 249.601C52.925 249.089 52.8082 248.541 52.7961 247.985Z" fill="#DCDFE2"/>
<path d="M46.3028 260.129C46.2532 260.683 46.2532 261.24 46.3028 261.793C46.3978 262.24 46.5878 262.999 46.5878 262.999C46.5878 262.999 47.1339 262.348 47.0627 261.902C47.3165 262.083 47.6191 262.18 47.9293 262.18C48.2395 262.18 48.5422 262.083 48.796 261.902C48.796 261.902 47.7038 261.902 47.5257 261.034C47.4572 260.762 47.2976 260.523 47.0744 260.358C46.8512 260.193 46.5784 260.112 46.3028 260.129Z" fill="#CDD1D3"/>
<path d="M45.7906 259.888C45.7906 259.888 45.4226 260.636 44.9595 260.768C44.6451 260.821 44.3243 260.821 44.0098 260.768C44.0098 260.768 44.6509 261.48 45.197 261.251C45.7431 261.022 45.7906 259.888 45.7906 259.888Z" fill="#CDD1D3"/>
<path d="M48.3672 260.262C48.3933 260.458 48.4814 260.641 48.6184 260.782C48.7555 260.924 48.9339 261.016 49.127 261.046C49.5356 261.075 49.9446 260.996 50.3142 260.817C49.9992 260.651 49.6638 260.53 49.317 260.455L48.3672 260.262Z" fill="#CDD1D3"/>
<path d="M52.2971 250.457C52.1274 250.742 51.8855 250.975 51.5966 251.133C51.2645 251.339 51.0225 251.667 50.9199 252.049C51.3014 251.978 51.6624 251.822 51.9766 251.591C52.1547 251.472 52.2849 251.292 52.3438 251.084C52.4026 250.876 52.386 250.654 52.2971 250.457Z" fill="#CDD1D3"/>
<path d="M51.502 252.242C51.665 252.105 51.861 252.015 52.0697 251.982C52.2785 251.948 52.4923 251.971 52.6892 252.049C53.354 252.302 53.8764 252.471 53.8764 252.471C53.8764 252.471 53.2353 253.243 52.6892 252.857C52.3195 252.604 51.9208 252.397 51.502 252.242V252.242Z" fill="#CDD1D3"/>
<path d="M49.4837 250.747C49.4837 250.747 49.0326 251.555 49.4837 252.049C49.7519 252.335 49.998 252.641 50.2198 252.966C50.2725 252.797 50.2849 252.619 50.256 252.445C50.2271 252.271 50.1577 252.106 50.0536 251.965C49.822 251.58 49.6309 251.172 49.4837 250.747V250.747Z" fill="#CDD1D3"/>
<path d="M47.7505 252.278C48.1827 252.435 48.5845 252.668 48.9377 252.966C49.2255 253.258 49.4952 253.568 49.745 253.894C49.8006 253.627 49.7814 253.35 49.6896 253.094C49.5978 252.837 49.437 252.612 49.2256 252.444C49.0142 252.275 48.7606 252.171 48.4935 252.141C48.2265 252.112 47.9567 252.16 47.7148 252.278H47.7505Z" fill="#CDD1D3"/>
<path d="M50.9199 255.064C51.0908 255.216 51.2303 255.401 51.3302 255.608C51.4301 255.815 51.4884 256.04 51.5017 256.27C51.5397 256.507 51.6421 256.729 51.7973 256.91C51.9525 257.091 52.1544 257.224 52.3802 257.295C52.1392 257.004 51.9866 256.648 51.9409 256.27C51.9438 255.977 51.8418 255.694 51.6539 255.472C51.4661 255.25 51.2052 255.105 50.9199 255.064Z" fill="#CDD1D3"/>
<path d="M45.1152 258.188C45.298 258.357 45.5224 258.473 45.7647 258.524C46.0071 258.575 46.2584 258.559 46.4924 258.477C46.9044 258.338 47.2785 258.102 47.5847 257.79C46.7987 258.099 45.9569 258.234 45.1152 258.188Z" fill="#CDD1D3"/>
<path d="M45.9336 256.186C45.9336 256.186 46.1829 257.078 46.6341 257.211C47.0586 257.282 47.4917 257.282 47.9163 257.211C47.7301 256.94 47.4573 256.744 47.1446 256.656C46.7312 256.526 46.3266 256.369 45.9336 256.186Z" fill="#DCDFE2"/>
<path d="M50.0776 257.573C50.0776 257.573 49.8283 258.778 50.0776 259.14C50.2639 259.382 50.4345 259.636 50.5881 259.9C50.6609 259.759 50.6899 259.6 50.6712 259.442C50.6712 259.14 50.6712 258.694 50.6712 258.694C50.7595 258.919 50.9074 259.116 51.0986 259.261C51.3434 259.397 51.6153 259.475 51.8941 259.49C51.7137 259.092 51.4778 258.722 51.1936 258.393C50.8453 258.087 50.472 257.813 50.0776 257.573V257.573Z" fill="#CDD1D3"/>
<path d="M47.5723 254.123C47.6026 254.295 47.6817 254.454 47.7998 254.58C47.918 254.707 48.07 254.795 48.2371 254.835C48.807 254.967 49.2819 255.04 49.2819 255.04C49.3104 254.89 49.2805 254.734 49.1986 254.606C49.1167 254.478 48.9891 254.387 48.8426 254.352C48.4267 254.238 48.0016 254.161 47.5723 254.123Z" fill="#CDD1D3"/>
<path d="M50.9211 253.665C50.5649 253.737 50.1494 253.737 50.1256 254.123C50.0719 254.584 49.9134 255.026 49.6626 255.414C49.5277 255.597 49.3446 255.737 49.1344 255.818C48.9242 255.899 48.6957 255.918 48.4754 255.872C48.2939 255.827 48.1239 255.744 47.9765 255.628C47.8292 255.511 47.7078 255.364 47.6206 255.197C47.6403 255.528 47.7001 255.857 47.7986 256.174C47.9649 256.596 48.606 256.656 48.606 256.656C48.4047 256.886 48.2331 257.141 48.0955 257.416C48.0593 257.63 47.9738 257.832 47.8458 258.006C47.7179 258.18 47.5512 258.321 47.3594 258.417C47.0506 258.617 46.8133 258.913 46.6827 259.261C46.5521 259.49 46.8251 259.647 47.3712 259.454C47.9174 259.261 48.4398 259.948 48.8909 259.623C49.0898 259.439 49.2493 259.216 49.3596 258.967C49.4699 258.718 49.5286 258.448 49.532 258.175C49.5032 257.946 49.5506 257.714 49.6667 257.515C49.7829 257.316 49.9611 257.162 50.1731 257.078C50.7192 256.921 51.2297 256.282 50.9686 255.956C50.7074 255.631 50.3987 254.968 50.9686 254.75C51.5384 254.533 51.9658 254.835 52.2864 254.533L53.1174 253.713C52.8891 253.679 52.6572 253.679 52.4288 253.713C52.1647 253.79 51.9157 253.912 51.6928 254.075C51.6928 254.075 52.0964 253.472 51.9183 253.159C51.7511 252.923 51.5367 252.725 51.2891 252.58C51.2891 252.58 51.574 253.544 50.9211 253.665Z" fill="#CDD1D3"/>
</g>
<defs>
<clipPath id="clip0_356_20524">
<rect width="174.984" height="176.22" fill="white" transform="translate(82.3496 100.976)"/>
</clipPath>
<clipPath id="clip1_356_20524">
<rect width="94.634" height="87.6627" fill="white" transform="translate(0 182.705)"/>
</clipPath>
</defs>
</svg>
