<svg width="176" height="192" viewBox="0 0 176 192" fill="none" xmlns="http://www.w3.org/2000/svg">
<g clip-path="url(#clip0_356_20413)">
<path d="M133.61 103C133.61 103 128.002 102.907 130.788 107.127C134.864 108.624 139.05 109.807 143.311 110.665C151.713 109.306 159.814 106.472 167.237 102.294C173.394 97.5782 179.919 93.3643 186.75 89.6934C190.714 88.5116 187.681 84.4447 183.609 85.8639C180.676 87.0417 177.873 88.5222 175.247 90.2809C168.579 94.1545 161.665 97.5874 154.55 100.557C147.699 102.257 140.661 103.078 133.61 103Z" fill="#5E362E"/>
<path d="M130.919 98.3822C136.398 98.2267 141.88 98.4632 147.323 99.0899C153.504 99.6559 159.679 97.836 164.577 94.0046C171.548 89.685 174.213 85.9949 176.174 86.8181C178.136 87.6412 179.851 88.6173 178.761 90.9916C174.061 95.31 168.675 98.8194 162.826 101.375C158.17 102.816 152.115 106.823 146.654 105.45C141.632 104.439 136.538 103.819 131.417 103.595C131.417 103.595 128.22 102.432 130.919 98.3822Z" fill="#6D4338"/>
<path d="M134.366 117.311C134.675 117.12 144.883 112.238 154.298 106.489C161.037 101.707 168.759 98.4896 176.895 97.0742C179.146 97.0097 181.388 96.7568 183.598 96.3182C183.598 96.3182 184.316 91.9659 182.336 91.6639C176.538 92.8669 170.829 94.4741 165.253 96.4735C159.405 98.3754 153.749 100.828 148.361 103.797C143.712 106.792 138.86 109.458 133.84 111.777C129.036 113.394 134.366 117.311 134.366 117.311Z" fill="#6D4338"/>
<path d="M114.438 90.2474C113.016 90.5248 111.692 91.1761 110.605 92.1339C109.517 93.0917 108.704 94.3212 108.251 95.6949C107.545 94.8249 106.671 94.1059 105.68 93.5803C104.689 93.0547 103.601 92.7333 102.482 92.6351C101.362 92.5369 100.233 92.6638 99.1616 93.0085C98.09 93.3531 97.0976 93.9084 96.2431 94.6415C94.7861 93.5956 93.097 92.9153 91.318 92.6578C89.539 92.4002 87.722 92.573 86.02 93.1616C85.163 90.1252 85.8027 88.5396 83.825 85.3481C82.2438 86.161 80.8649 87.3182 79.7909 88.7337C78.7168 90.1492 77.9753 91.7866 77.6215 93.5241C72.4072 91.9984 70.2793 90.7688 67.6494 91.2092C68.9862 92.2914 70.1176 93.6039 70.9901 95.085C72.3212 97.2331 69.9171 100.931 69.9171 100.931C70.5382 101.456 71.0008 102.143 71.2536 102.916C71.5065 103.689 71.5397 104.517 71.3496 105.31C71.0378 107.287 67.1615 110.538 67.1615 110.538C68.9983 109.936 70.9319 109.689 72.8582 109.811C74.4158 110.12 77.3837 110.914 77.3837 110.914C76.2627 112.272 74.9838 113.492 73.5742 114.549C71.9714 115.407 70.2897 116.107 68.5527 116.641C70.2093 117.016 71.8 117.633 73.2735 118.473C74.2908 119.135 75.2592 119.869 76.1714 120.669C74.7176 121.228 73.2225 121.671 71.7 121.996C69.8506 122.118 67.9946 122.074 66.1545 121.865C66.1545 121.865 67.7501 122.235 69.0677 125.326C69.7537 126.974 69.8026 128.82 69.2047 130.507C69.2047 130.507 67.6083 129.033 66.5156 128.097C65.4229 127.16 61.9967 123.422 61.9967 123.422C60.7768 124.326 59.3157 124.847 57.8009 124.918C56.3991 125.029 54.9903 124.863 53.6558 124.428C53.6777 126.099 53.4763 127.766 53.0567 129.386C52.3047 131.253 51.0984 132.906 49.5472 134.194C50.4881 133.73 51.4879 133.396 52.5185 133.202C54.7496 132.669 58.0412 134.537 58.0412 134.537C56.8034 135.827 55.4197 136.97 53.9182 137.941C52.4376 138.859 47.5725 140.514 47.5725 140.514C49.8685 141.291 51.8087 142.859 53.0454 144.937C53.7684 145.799 54.2567 146.832 54.4638 147.938C54.6708 149.044 54.5896 150.186 54.2279 151.255C54.2279 151.255 51.7864 149.795 49.0981 148.488C47.5714 147.763 46.2227 146.715 45.1455 145.416C45.7529 147.96 45.63 150.626 44.7908 153.11C44.3599 154.025 43.7422 154.841 42.9774 155.505C42.2125 156.169 41.3175 156.667 40.35 156.966C40.7298 157.857 41.2427 158.685 41.8712 159.421C36.1435 168.916 41.7491 173.003 46.8533 167.461C47.8642 172.951 51.5048 171.799 56.5212 169.285C56.3726 173.455 56.5612 177.755 62.0737 178.246C65.9434 178.566 65.6566 170.25 65.6566 170.25C68.0718 173.652 71.0205 176.643 74.3901 179.108C75.9424 177.63 76.927 175.656 77.1718 173.533C77.4165 171.409 76.9059 169.271 75.7292 167.491C79.651 166.277 83.1987 164.079 86.0314 161.107C88.6556 165.342 95.5092 162.624 95.5092 162.624C95.698 164.121 96.2065 165.558 97.0004 166.839C97.7942 168.12 98.8549 169.215 100.111 170.051C103.334 169.328 102.501 166.192 102.781 160.582C105.262 163.207 106.678 165.217 111.079 165.293C114.056 159.626 110.897 157.421 108.748 153.402C112.1 153.807 115.501 153.599 118.784 152.789C119.352 150.398 117.489 147.391 114.315 145.025C117.955 142.77 117.48 136.354 117.48 136.354C118.936 137.995 120.585 139.454 122.392 140.7C125.477 138.789 124.234 133.613 124.234 133.613C125.404 134.542 126.753 135.222 128.198 135.612C129.643 136.002 131.155 136.093 132.639 135.88C133.962 134.295 133.102 133.044 131.478 127.255C138.28 125.069 144.445 121.249 149.43 116.131C148.77 115.07 147.905 114.151 146.885 113.427C145.865 112.704 144.71 112.189 143.488 111.914C145.085 109.395 147.129 105.666 146.538 103.059C145.565 100.438 143.671 98.2615 141.206 96.9343C132.61 95.8755 123.922 95.7078 115.283 96.434C115.702 95.4176 115.845 94.3099 115.696 93.2233C115.548 92.1367 115.114 91.11 114.438 90.2474Z" fill="#6B8A3F"/>
<path d="M44.6383 152.865C45.4818 150.471 45.657 147.895 45.1452 145.416C46.2391 146.822 47.6435 147.957 49.2499 148.733C52.0903 150.286 54.2039 151.354 54.2039 151.354C54.5656 150.286 54.6468 149.144 54.4397 148.038C54.2327 146.932 53.7443 145.899 53.0214 145.037C51.7846 142.958 49.8445 141.39 47.5484 140.614C47.5484 140.614 52.2995 138.774 53.8941 138.041C55.4513 136.951 56.868 135.674 58.1119 134.238C58.1119 134.238 54.8202 132.37 52.5891 132.904C51.5186 133.185 50.4938 133.62 49.5469 134.194C51.1428 132.968 52.4094 131.366 53.2322 129.532C53.6517 127.912 53.8531 126.245 53.8312 124.574C55.1657 125.009 56.5745 125.175 57.9763 125.063C59.4912 124.992 60.9522 124.472 62.1722 123.568C62.1722 123.568 65.6363 127.367 66.691 128.243C67.7457 129.118 69.3802 130.653 69.3802 130.653C69.941 128.856 69.7794 126.915 68.9296 125.242C67.612 122.151 66.0164 121.78 66.0164 121.78C67.8565 121.99 69.7124 122.034 71.5619 121.912C73.0844 121.587 74.5794 121.143 76.0332 120.585C75.121 119.785 74.1526 119.051 73.1353 118.388C71.6619 117.549 70.0711 116.931 68.4146 116.557C70.1516 116.023 71.8333 115.322 73.4361 114.465C74.8457 113.408 76.1246 112.188 77.2456 110.83C77.2456 110.83 74.2776 110.036 72.7201 109.727C70.7938 109.605 68.8602 109.852 67.0234 110.454C67.0234 110.454 70.8997 107.202 71.2115 105.225C71.4016 104.433 71.3684 103.604 71.1155 102.832C70.8627 102.059 70.4001 101.372 69.7789 100.847C69.7789 100.847 71.998 97.2633 70.852 95.0005C69.9794 93.5194 68.8481 92.2069 67.5112 91.1247C65.0614 91.5518 62.7111 92.432 60.5816 93.7198C59.6217 98.6466 68.7006 100.071 68.7006 100.071C65.317 100.706 62.0993 102.035 59.2509 103.973C57.0759 102.997 54.6066 102.883 52.3427 103.655C50.0789 104.427 48.1896 106.027 47.0573 108.131C44.9237 108.673 42.9183 109.634 41.1583 110.958C39.3984 112.282 37.9195 113.942 36.8083 115.841C28.6218 114.203 22.1468 115.327 20.4973 118.728C20.4973 118.728 22.6617 124.012 30.8497 121.656C28.5841 122.782 26.5842 124.377 24.9847 126.335C23.3851 128.293 22.2231 130.569 21.5769 133.008C25.1075 133.605 28.7415 132.92 31.821 131.078C31.0843 133.032 30.8202 135.131 31.0504 137.203C31.2806 139.274 31.9985 141.26 33.1457 142.998C31.9424 146.292 28.3838 149.092 30.7797 152.958C32.4739 152.984 34.1536 152.625 35.6913 151.907C37.229 151.19 38.5844 150.133 39.6547 148.818C39.1655 151.528 39.3919 154.315 40.3116 156.905C41.2755 156.571 42.1591 156.039 42.9046 155.343C43.6501 154.647 44.2409 153.802 44.6383 152.865Z" fill="#7A994A"/>
<path d="M57.5188 170.62C54.683 172.322 52.3953 174.802 50.9299 177.761C49.9885 179.954 49.5336 182.323 49.5965 184.703C52.1099 184.048 54.3685 182.648 56.074 180.689C59.0765 177.13 57.5188 170.62 57.5188 170.62Z" fill="#6B8A3F"/>
<path d="M32.1846 158.118C30.5391 160.055 29.454 162.402 29.047 164.904C29.1083 167.213 29.4659 169.504 30.1112 171.72C31.3553 171.029 32.4337 170.076 33.2704 168.926C34.107 167.777 34.6815 166.459 34.9533 165.067C35.0269 163.775 34.8173 162.484 34.3391 161.284C33.861 160.084 33.1257 159.004 32.1846 158.118Z" fill="#6B8A3F"/>
<path d="M81.8643 169.125C83.3437 171.267 85.4143 172.934 87.8265 173.925C89.7981 174.906 92.0639 175.133 94.1985 174.564C92.7806 172.233 90.728 170.353 88.2785 169.143C86.226 168.315 83.9289 168.308 81.8643 169.125Z" fill="#6B8A3F"/>
<path d="M120.015 160.011C122.319 158.716 124.969 158.173 127.591 158.459C129.805 158.468 131.933 159.299 133.561 160.791C131.206 162.225 128.495 162.962 125.743 162.917C124.641 162.836 123.567 162.538 122.583 162.039C121.6 161.54 120.727 160.851 120.015 160.011Z" fill="#6B8A3F"/>
<path d="M120.493 169.738C120.921 172.478 122.194 175.014 124.135 176.994C125.597 178.799 127.34 180.357 129.3 181.608C130.297 180.442 130.799 178.936 130.7 177.411C130.6 175.885 129.906 174.462 128.766 173.445C127.756 172.247 126.488 171.293 125.056 170.651C123.624 170.009 122.065 169.697 120.493 169.738Z" fill="#6B8A3F"/>
<path d="M119.452 126.723C117.354 128.819 114.799 130.402 111.988 131.348L107.554 132.736C107.554 132.736 108.736 125.549 112.619 124.926C115.044 124.667 117.477 125.306 119.452 126.723Z" fill="#5E7A31"/>
<path d="M118.763 132.501C118.791 131.719 115.049 125.543 119.238 121.419C120.916 119.834 122.44 118.094 123.787 116.222C124.38 118.667 124.474 121.208 124.064 123.695C122.708 126.856 120.924 129.819 118.763 132.501Z" fill="#5E7A31"/>
<path d="M108.871 105.928C110.293 106.848 111.848 107.546 113.483 107.997C115.425 108.238 118.52 108.273 118.52 108.273C118.233 107.467 117.774 106.733 117.175 106.122C116.575 105.511 115.849 105.037 115.047 104.734C112.921 104.573 110.788 104.985 108.871 105.928Z" fill="#5E7A31"/>
<path d="M89.7111 113.724C90.671 113.664 91.6021 113.367 92.4205 112.86C93.2389 112.353 93.9191 111.651 94.3996 110.818C95.146 109.134 96.0728 107.534 97.1637 106.048C97.1637 106.048 92.7008 106.01 91.1738 108.23C90.2284 109.91 89.7251 111.801 89.7111 113.724Z" fill="#5E7A31"/>
<path d="M97.3981 144.041C98.7982 142.352 99.8213 140.386 100.399 138.274C100.842 136.49 100.697 134.614 99.9863 132.924C98.3983 134.079 97.1538 135.643 96.3864 137.448C96.35 139.688 96.692 141.917 97.3981 144.041Z" fill="#5E7A31"/>
<path d="M91.1234 133.914C91.1234 133.914 97.8191 135.626 100.486 134.143L104.434 131.697C102.63 130.477 100.449 129.933 98.2753 130.162C95.6659 130.924 93.2339 132.2 91.1234 133.914Z" fill="#5E7A31"/>
<path d="M74.3194 150.612C74.1478 152.716 74.5154 154.826 75.3878 156.745C75.8572 158.077 76.6096 159.291 77.5936 160.305C77.5936 160.305 80.482 156.561 79.0368 154.229C77.5916 151.897 74.3194 150.612 74.3194 150.612Z" fill="#5E7A31"/>
<path d="M70.2902 163.811C70.2902 163.811 71.4623 163.085 72.3706 159.04C72.8095 157.151 72.9869 155.212 72.8978 153.277C71.0285 154.417 69.5721 156.123 68.7426 158.145C68.6472 160.152 69.1888 162.135 70.2902 163.811Z" fill="#5E7A31"/>
<path d="M48.9188 173.826C50.0533 173.01 50.9793 171.939 51.6211 170.7C52.2629 169.46 52.6024 168.089 52.6116 166.696C52.2379 162.511 51.0557 162.394 51.0557 162.394C49.4873 164.445 48.3564 166.794 47.733 169.295C47.4831 170.087 47.4618 170.932 47.6716 171.734C47.8813 172.535 48.3136 173.26 48.9188 173.826Z" fill="#5E7A31"/>
<path d="M47.7364 150.011C48.9689 149.727 50.1225 149.169 51.1116 148.38C52.1006 147.59 52.8996 146.59 53.4491 145.452C54.0263 143.843 54.2184 142.124 54.0101 140.432C53.0564 140.516 52.1349 140.822 51.3203 141.327C50.5056 141.832 49.8209 142.521 49.3216 143.337C48.1817 145.374 47.6327 147.685 47.7364 150.011Z" fill="#5E7A31"/>
<path d="M50.261 130.524C51.004 131.273 51.9415 131.8 52.9692 132.048C53.9969 132.296 55.0747 132.254 56.0828 131.928C57.8628 131.197 59.5098 130.177 60.9564 128.908C60.2578 128.321 59.4318 127.903 58.543 127.688C57.6542 127.472 56.7266 127.465 55.8326 127.666C53.8483 128.347 51.9717 129.309 50.261 130.524Z" fill="#5E7A31"/>
<path d="M60.816 136.81C61.7078 136.226 62.4607 135.454 63.0212 134.549C63.5818 133.644 63.9362 132.628 64.0593 131.572C64.1552 129.782 63.9402 127.99 63.4236 126.275C63.4236 126.275 59.3511 127.695 59.1543 130.959C59.0878 133.037 59.6683 135.081 60.816 136.81Z" fill="#5E7A31"/>
<path d="M64.344 113.983C65.9248 114.176 67.53 114.049 69.0629 113.607C70.9232 112.82 72.6507 111.75 74.1832 110.434C73.2761 110.115 72.3135 109.979 71.3516 110.036C70.3897 110.092 69.4479 110.339 68.5811 110.763C67.0127 111.614 65.5837 112.7 64.344 113.983Z" fill="#5E7A31"/>
<path d="M73.2965 123.47C73.0076 121.493 73.5052 119.477 74.6832 117.854C76.7417 115.389 78.3262 113.813 78.3262 113.813C78.7683 114.663 78.991 115.61 78.9744 116.57C78.9577 117.529 78.7022 118.47 78.2309 119.308C76.9296 121.057 75.2405 122.481 73.2965 123.47Z" fill="#5E7A31"/>
<path d="M49.9668 100.977C51.2896 102.555 52.9477 103.819 54.822 104.679C56.6893 105.46 58.6075 106.116 60.5636 106.642C60.4664 105.657 60.1453 104.709 59.6246 103.869C59.104 103.028 58.3976 102.319 57.5591 101.793C55.0985 101.076 52.5281 100.8 49.9668 100.977Z" fill="#5E7A31"/>
<path d="M43.1138 116.096C43.1138 116.096 47.1026 117.022 48.7488 115.407C50.0372 114.054 51.2246 112.608 52.3014 111.082C50.6234 110.627 48.8299 110.853 47.3121 111.711C45.5049 112.72 44.0419 114.249 43.1138 116.096Z" fill="#5E7A31"/>
<path d="M61.9156 146.576C61.9156 146.576 61.4288 143.31 63.1603 141.558C64.016 140.669 64.9187 139.826 65.8645 139.033C65.8645 139.033 67.0468 139.15 66.4316 141.739C65.5074 143.807 63.9177 145.51 61.9156 146.576Z" fill="#7A994A"/>
<path d="M64.3099 142.035C64.6097 143.84 65.0298 145.623 65.5675 147.371C66.1104 148.748 66.8961 150.016 67.8874 151.115C68.8798 149.6 69.3271 147.795 69.1557 145.997C68.8785 143.621 64.3099 142.035 64.3099 142.035Z" fill="#7A994A"/>
<path d="M70.9367 134.956C70.2654 136.832 69.989 138.825 70.1247 140.81C70.582 142.65 71.6148 145.833 71.6148 145.833C72.4662 145.139 73.1496 144.262 73.6134 143.269C74.0773 142.275 74.3095 141.19 74.2927 140.096C74.1473 139.044 73.7713 138.038 73.1912 137.15C72.6112 136.261 71.8414 135.512 70.9367 134.956Z" fill="#7A994A"/>
<path d="M74.9375 133.835C76.8501 133.186 78.4585 131.857 79.4544 130.102C80.3969 128.662 80.8394 126.955 80.7134 125.245C80.7134 125.245 77.3423 125.04 76.7035 127.729C75.9876 129.726 75.3977 131.766 74.9375 133.835Z" fill="#7A994A"/>
<path d="M56.3599 163.1C56.3599 163.1 58.5909 162.567 59.5238 159.525C60.0627 157.987 60.3904 156.384 60.498 154.76C60.498 154.76 56.2633 155.09 56.118 157.474C55.9816 159.353 56.0628 161.241 56.3599 163.1Z" fill="#7A994A"/>
<path d="M78.9558 105.184C80.5557 105.524 82.2175 105.458 83.7889 104.992C85.7918 104.224 87.7337 103.304 89.5979 102.242C87.9237 101.36 85.9668 101.17 84.1471 101.712C82.1627 102.435 80.3814 103.626 78.9558 105.184Z" fill="#7A994A"/>
<path d="M83.3433 118.604C84.7215 117.536 85.6231 115.97 85.8513 114.246C85.9581 112.69 85.8514 111.127 85.5343 109.601C84.0293 110.511 82.9421 111.975 82.5088 113.674C82.0754 115.374 82.331 117.173 83.2199 118.68L83.3433 118.604Z" fill="#7A994A"/>
<path d="M89.3403 148.949C89.3403 148.949 90.9695 143.862 89.9426 142.205C89.2075 141.067 88.3928 139.982 87.5045 138.959C86.9288 139.657 86.5134 140.471 86.2876 141.345C86.0619 142.219 86.0313 143.131 86.1981 144.016C86.8748 145.869 87.9468 147.552 89.3403 148.949Z" fill="#7A994A"/>
<path d="M100.945 120.693C100.945 120.693 104.289 116.582 104.235 114.152C104.169 112.688 103.854 111.246 103.301 109.89C101.911 111.113 100.881 112.691 100.323 114.453C99.9538 116.553 100.169 118.711 100.945 120.693Z" fill="#7A994A"/>
<path d="M95.2233 101.814C96.9506 101.595 98.6322 101.098 100.203 100.342C101.414 99.3887 102.466 98.2494 103.319 96.9672C102.544 96.8052 101.742 96.8168 100.97 97.0012C100.199 97.1855 99.4771 97.538 98.857 98.0332C97.5816 99.2304 96.3688 100.492 95.2233 101.814Z" fill="#7A994A"/>
<path d="M69.4482 84.7432C70.4321 86.0198 71.7896 86.959 73.334 87.4318C75.5135 87.7801 77.7454 88.3507 77.7454 88.3507C77.7454 88.3507 78.7873 85.072 75.9334 84.462C73.7786 84.0918 71.567 84.1876 69.4482 84.7432Z" fill="#7A994A"/>
<path d="M26.707 105.877C28.0061 107.557 29.7284 108.863 31.6999 109.663C34.1693 110.341 36.5482 110.736 36.5482 110.736C35.6045 109.081 34.3939 107.592 32.9649 106.331C31.6728 105.348 26.707 105.877 26.707 105.877Z" fill="#7A994A"/>
</g>
<defs>
<clipPath id="clip0_356_20413">
<rect width="176" height="192" fill="white" transform="translate(0 0.274902)"/>
</clipPath>
</defs>
</svg>
