<svg width="176" height="192" viewBox="0 0 176 192" fill="none" xmlns="http://www.w3.org/2000/svg">
<g clip-path="url(#clip0_356_20454)">
<path d="M117.974 149.635C107.491 158.652 94.8037 164.758 81.1786 167.342C76.2137 168.539 71.0193 168.465 66.0779 167.126C61.3067 165.329 57.1433 162.213 54.0779 158.146C50.1225 153.285 47.1788 147.691 45.4201 141.691C43.6613 135.691 43.1231 129.407 43.837 123.209C46.0417 123.217 48.2089 122.662 50.1327 121.599C52.0565 120.535 53.6731 118.998 54.8291 117.133C57.4041 113.564 58.9001 109.357 61.2848 105.725C64.4323 101.006 68.6949 97.1328 73.7006 94.4426C80.2578 90.7678 87.7208 88.988 95.255 89.3022C102.789 89.6164 110.098 92.0123 116.364 96.2219C123.214 101.052 128.138 108.135 130.262 116.215C131.278 120.234 131.49 124.409 130.886 128.501C130.282 132.594 128.873 136.523 126.741 140.065C124.312 143.673 121.358 146.898 117.974 149.635Z" fill="#706425"/>
<path d="M71.6018 171.497C75.7493 166.274 74.5496 162.171 71.1771 159.518C67.8046 156.865 63.5392 156.629 59.4069 161.822C55.2746 167.016 56.1654 178.388 56.1654 178.388C56.1654 178.388 67.4403 176.675 71.6018 171.497Z" fill="#87782D"/>
<path opacity="0.1" d="M71.1478 159.503C74.5203 162.156 75.72 166.259 71.5725 171.481C67.425 176.704 56.1653 178.388 56.1653 178.388L71.1478 159.503Z" fill="#1D1D1B"/>
<path d="M99.1587 167.031C99.375 160.934 96.1905 158.49 92.3058 158.379C88.4212 158.268 85.0896 160.369 84.9025 166.482C84.7154 172.594 91.5357 180.527 91.5357 180.527C91.5357 180.527 98.9272 173.158 99.1587 167.031Z" fill="#A69944"/>
<path opacity="0.1" d="M92.3058 158.379C96.2489 158.521 99.375 160.934 99.1587 167.031C98.9424 173.129 91.5357 180.527 91.5357 180.527L92.3058 158.379Z" fill="#1D1D1B"/>
<path d="M89.2694 167.732C92.3333 161.24 90.1478 157.102 85.9085 155.252C81.6692 153.402 77.1981 154.056 74.1049 160.533C71.0118 167.01 74.7676 178.736 74.7676 178.736C74.7676 178.736 86.2055 174.225 89.2694 167.732Z" fill="#6F842D"/>
<path opacity="0.1" d="M85.8796 155.237C90.0581 157.202 92.3044 161.225 89.2404 167.717C86.1765 174.209 74.7842 178.634 74.7842 178.634L85.8796 155.237Z" fill="#1D1D1B"/>
<path d="M68.5681 118.925L85.0586 116.695L84.7054 114.192L68.2149 116.422L68.5681 118.925Z" fill="#4F3E35"/>
<path d="M75.1063 131.726L86.2422 124.847L84.8992 122.699L73.7633 129.578L75.1063 131.726Z" fill="#4F3E35"/>
<path d="M110.498 106.936L122.045 106.658L121.971 104.134L110.424 104.411L110.498 106.936Z" fill="#4F3E35"/>
<path d="M59.2881 164.607C63.3188 159.323 62.028 155.394 58.6543 152.815C55.2806 150.235 51.2184 150.179 47.294 155.26C43.3696 160.34 44.3621 171.803 44.3621 171.803C44.3621 171.803 55.4337 169.909 59.2881 164.607Z" fill="#87782D"/>
<path opacity="0.1" d="M58.7715 152.876C62.1452 155.455 63.3905 159.471 59.4053 164.668C55.4201 169.865 44.3625 171.803 44.3625 171.803L58.7715 152.876Z" fill="#1D1D1B"/>
<path d="M173.564 55.7393C162.174 64.5644 150.932 74.2435 140.139 83.4919C129.346 92.7404 118.18 102.274 106.789 111.173L108.71 113.472C120.1 104.647 131.326 94.9971 142.164 85.7349C153.001 76.4727 164.077 67.0395 175.468 58.1411L173.564 55.7393Z" fill="#634E42"/>
<path d="M180.126 64.1654C169.356 72.0208 156.768 81.2168 144.077 90.3959L108.027 116.626L109.887 119.042L145.937 92.8114C158.496 83.6002 171.099 74.3752 181.986 66.5809L180.126 64.1654Z" fill="#4F3E35"/>
<path d="M181.883 66.5641C155.143 86.0232 130.683 103.829 107.345 120.484L109.161 122.914C132.528 106.273 156.822 88.7136 183.743 68.9796L181.883 66.5641Z" fill="#634E42"/>
<path d="M180.713 60.5546C168.72 68.4723 156.022 78.0913 143.696 87.4248C131.371 96.7583 118.733 106.261 106.843 114.196L108.628 116.683C120.595 108.603 133.292 99.0577 145.587 89.7823C157.882 80.5068 170.549 70.9458 182.411 62.9961L180.713 60.5546Z" fill="#634E42"/>
<path d="M180.622 60.7288L178.703 58.356C169.767 65.6193 159.431 72.9998 148.368 80.7757C133.211 91.2375 118.626 102.495 104.674 114.502L106.684 116.774C120.619 104.855 135.168 93.6658 150.271 83.2508C161.393 75.5055 171.759 68.067 180.622 60.7288Z" fill="#4F3E35"/>
<path d="M169.607 61.8755L167.643 59.5165L106.32 110.151L108.284 112.51L169.607 61.8755Z" fill="#4F3E35"/>
<path d="M177.688 59.2294L175.709 56.8994C162.702 68.3161 149.559 79.0699 136.892 89.4817C127.582 97.1039 117.96 104.969 108.377 113.113L110.341 115.472C119.924 107.328 129.441 99.5927 138.827 91.8255C151.435 81.3831 164.549 70.614 177.688 59.2294Z" fill="#634E42"/>
<path d="M123.823 112.031L116.13 102.568C116.024 102.422 115.864 102.322 115.686 102.291C115.507 102.26 115.324 102.3 115.175 102.402C115.05 102.527 114.978 102.697 114.976 102.874C114.973 103.052 115.039 103.224 115.16 103.355L122.884 112.759C122.989 112.91 123.147 113.016 123.327 113.055C123.507 113.094 123.695 113.064 123.852 112.97C123.955 112.834 124.008 112.667 124.002 112.496C123.997 112.325 123.934 112.161 123.823 112.031Z" fill="#CBBBA0"/>
<path d="M126.24 110.043L118.834 101.027C118.724 100.882 118.566 100.78 118.388 100.742C118.211 100.703 118.025 100.729 117.866 100.815C117.737 100.949 117.664 101.127 117.664 101.313C117.664 101.499 117.736 101.678 117.864 101.813L125.255 110.858C125.307 110.936 125.374 111.003 125.452 111.054C125.53 111.106 125.617 111.141 125.709 111.158C125.801 111.175 125.895 111.174 125.986 111.153C126.077 111.133 126.163 111.094 126.239 111.04C126.368 110.907 126.44 110.728 126.44 110.543C126.441 110.357 126.369 110.178 126.24 110.043Z" fill="#CBBBA0"/>
<path d="M164.498 81.937L155.417 70.8616C155.368 70.7835 155.304 70.7159 155.228 70.6629C155.153 70.6099 155.067 70.5724 154.977 70.5527C154.887 70.533 154.793 70.5315 154.703 70.5483C154.612 70.5651 154.526 70.5998 154.449 70.6505C154.32 70.7839 154.248 70.9621 154.248 71.1479C154.247 71.3337 154.319 71.5128 154.448 71.6479L163.513 82.7524C163.565 82.8303 163.632 82.8971 163.71 82.9487C163.787 83.0003 163.875 83.0357 163.967 83.0528C164.059 83.0698 164.153 83.0681 164.244 83.0477C164.335 83.0274 164.421 82.9889 164.497 82.9345C164.626 82.801 164.698 82.6229 164.698 82.4371C164.698 82.2512 164.627 82.0721 164.498 81.937Z" fill="#CBBBA0"/>
<path d="M167.427 80.2532L157.869 68.6689C157.761 68.5561 157.621 68.4807 157.467 68.4537C157.314 68.4267 157.156 68.4495 157.017 68.5189C156.888 68.6524 156.816 68.8306 156.816 69.0164C156.816 69.2022 156.887 69.3813 157.016 69.5164L166.387 80.818C166.437 80.8961 166.501 80.9636 166.577 81.0167C166.652 81.0697 166.738 81.1072 166.828 81.1269C166.918 81.1466 167.011 81.148 167.102 81.1313C167.193 81.1145 167.279 81.0797 167.356 81.0291C167.441 80.9206 167.493 80.7897 167.506 80.6522C167.518 80.5146 167.491 80.3762 167.427 80.2532Z" fill="#CBBBA0"/>
<path d="M80.1829 118.797C87.2089 115.821 88.2425 111.075 86.3281 106.561C84.4136 102.047 80.1686 99.6396 73.2185 102.471C66.2684 105.302 60.8778 117.305 60.8778 117.305C60.8778 117.305 73.172 121.744 80.1829 118.797Z" fill="#6F842D"/>
<path opacity="0.1" d="M86.3281 106.561C88.2425 111.075 87.2089 115.821 80.1829 118.797C73.1568 121.773 60.8778 117.305 60.8778 117.305L86.3281 106.561Z" fill="#1D1D1B"/>
<path d="M54.8216 156.797C59.8986 152.357 59.3787 148.092 56.6055 144.792C53.8324 141.492 49.5496 140.507 44.4434 144.932C39.3372 149.357 38.1362 160.817 38.1362 160.817C38.1362 160.817 49.7154 161.222 54.8216 156.797Z" fill="#7A9132"/>
<path opacity="0.1" d="M56.6055 144.792C59.4675 148.065 60.0446 152.433 54.7924 156.782C49.5402 161.13 38.1362 160.817 38.1362 160.817L56.6055 144.792Z" fill="#1D1D1B"/>
<path d="M47.5305 132.426C54.5761 130.975 56.2648 126.683 55.1562 122.406C54.0476 118.129 50.8014 114.951 43.8574 116.491C36.9135 118.032 30.1895 127.821 30.1895 127.821C30.1895 127.821 40.6018 133.937 47.5305 132.426Z" fill="#6F842D"/>
<path opacity="0.1" d="M55.1567 122.406C56.1742 126.858 54.3851 130.986 47.4855 132.513C40.5859 134.039 30.19 127.821 30.19 127.821L55.1567 122.406Z" fill="#1D1D1B"/>
<path d="M72.873 153.862C77.6849 149.431 77.1486 145.269 74.2691 142.172C71.3896 139.075 67.296 138.226 62.4841 142.657C57.6722 147.088 56.8451 158.189 56.8451 158.189C56.8451 158.189 67.9863 158.365 72.873 153.862Z" fill="#6F842D"/>
<path opacity="0.1" d="M74.195 142.243C77.0745 145.341 77.6108 149.503 72.7989 153.934C67.987 158.365 56.7406 158.319 56.7406 158.319L74.195 142.243Z" fill="#1D1D1B"/>
<path d="M118.924 121.741C125.307 116.653 124.876 111.437 121.556 107.406C118.235 103.376 113.237 101.979 106.839 107.096C100.441 112.213 98.659 125.919 98.659 125.919C98.659 125.919 112.557 126.799 118.924 121.741Z" fill="#968A3B"/>
<path opacity="0.1" d="M121.616 107.437C124.936 111.467 125.234 116.725 118.984 121.771C112.735 126.818 98.8067 125.996 98.8067 125.996L121.616 107.437Z" fill="#1D1D1B"/>
<path d="M53.1303 145.745C60.0759 142.283 60.8467 137.4 58.6076 132.938C56.3685 128.475 51.9459 126.123 45.0307 129.527C38.1155 132.931 33.4244 145.374 33.4244 145.374C33.4244 145.374 46.1556 149.192 53.1303 145.745Z" fill="#A69944"/>
<path opacity="0.1" d="M58.5784 132.922C60.8176 137.385 60.0467 142.268 53.1012 145.73C46.1556 149.192 33.3648 145.417 33.3648 145.417L58.5784 132.922Z" fill="#1D1D1B"/>
<path d="M64.4894 128.808C72.7125 126.458 74.489 121.288 72.9252 116.033C71.3613 110.778 67.0733 107.387 58.835 109.766C50.5967 112.145 43.0347 124.6 43.0347 124.6C43.0347 124.6 56.2804 131.202 64.4894 128.808Z" fill="#A69944"/>
<path opacity="0.1" d="M72.9404 116.004C74.5042 121.259 72.7277 126.429 64.5046 128.779C56.2816 131.128 43.0347 124.6 43.0347 124.6L72.9404 116.004Z" fill="#1D1D1B"/>
<path d="M95.0832 96.7269C102.143 99.8681 106.394 97.3613 108.293 92.8101C110.192 88.2588 109.429 83.5341 102.253 80.3318C95.076 77.1295 82.788 81.4178 82.788 81.4178C82.788 81.4178 88.0095 93.5414 95.0832 96.7269Z" fill="#A69944"/>
<path opacity="0.1" d="M108.397 92.827C106.411 97.3324 102.16 99.8391 95.1876 96.7438C88.2155 93.6485 82.7896 81.4178 82.7896 81.4178L108.397 92.827Z" fill="#1D1D1B"/>
<path d="M76.3347 140.074C83.139 136.242 83.6283 131.47 81.2397 127.151C78.851 122.832 74.3665 120.669 67.6229 124.385C60.8793 128.101 56.7769 140.556 56.7769 140.556C56.7769 140.556 69.5619 143.774 76.3347 140.074Z" fill="#A69944"/>
<path opacity="0.1" d="M81.2104 127.136C83.599 131.455 83.049 136.343 76.3054 140.058C69.5618 143.774 56.7476 140.541 56.7476 140.541L81.2104 127.136Z" fill="#1D1D1B"/>
<path d="M139.334 123.33C136.402 116.212 131.621 115.041 127.042 116.895C122.464 118.749 119.746 122.946 122.709 130.005C125.671 137.065 137.65 142.818 137.65 142.818C137.65 142.818 142.236 130.505 139.334 123.33Z" fill="#A69944"/>
<path opacity="0.1" d="M127.012 116.88C131.678 115.071 136.371 116.197 139.303 123.314C142.236 130.432 137.648 142.818 137.648 142.818L127.012 116.88Z" fill="#1D1D1B"/>
<path d="M91.1526 150.493C94.9267 143.781 92.8347 139.321 88.5021 136.868C84.1695 134.415 79.2884 134.928 75.5143 141.64C71.7402 148.353 74.802 161.12 74.802 161.12C74.802 161.12 87.3645 157.16 91.1526 150.493Z" fill="#A69944"/>
<path opacity="0.1" d="M88.5021 136.868C92.8347 139.321 94.8659 143.897 91.1526 150.493C87.4392 157.088 74.802 161.12 74.802 161.12L88.5021 136.868Z" fill="#1D1D1B"/>
<path d="M125.291 132.319C127.793 125.052 124.943 121.046 120.259 119.407C115.574 117.768 110.856 119.106 108.31 126.387C105.763 133.668 111.104 145.706 111.104 145.706C111.104 145.706 122.759 139.57 125.291 132.319Z" fill="#A69944"/>
<path opacity="0.1" d="M120.126 119.448C124.811 121.087 127.661 125.093 125.158 132.36C122.656 139.627 110.971 145.747 110.971 145.747L120.126 119.448Z" fill="#1D1D1B"/>
<path d="M81.0126 104.777C89.4935 103.782 92.0583 99.0248 91.4102 93.5838C90.7621 88.1427 87.043 84.1625 78.5621 85.1572C70.0812 86.152 60.7162 97.2201 60.7162 97.2201C60.7162 97.2201 72.5925 105.655 81.0126 104.777Z" fill="#A69944"/>
<path opacity="0.1" d="M91.4099 93.5837C92.0581 99.0248 89.5388 103.695 81.0124 104.777C72.4859 105.859 60.7159 97.22 60.7159 97.22L91.4099 93.5837Z" fill="#1D1D1B"/>
<path d="M118.413 105.169C127.006 105.453 130.315 101.122 130.448 95.6093C130.581 90.0967 127.548 85.5882 118.955 85.3044C110.363 85.0207 99.2261 94.5699 99.2261 94.5699C99.2261 94.5699 109.835 104.929 118.413 105.169Z" fill="#6F842D"/>
<path opacity="0.1" d="M130.447 95.6093C130.314 101.122 127.005 105.453 118.413 105.169C109.82 104.885 99.3421 94.6311 99.3421 94.6311L130.447 95.6093Z" fill="#1D1D1B"/>
<path d="M111.962 156.359C114.201 148.103 110.736 143.85 105.401 142.388C100.066 140.926 94.9571 142.798 92.7185 151.054C90.4799 159.309 97.2628 172.287 97.2628 172.287C97.2628 172.287 109.636 164.568 111.962 156.359Z" fill="#7A9132"/>
<path opacity="0.1" d="M105.314 142.342C110.649 143.804 114.114 148.057 111.875 156.313C109.636 164.568 97.1758 172.241 97.1758 172.241L105.314 142.342Z" fill="#1D1D1B"/>
<path d="M104.955 113.613C113.765 111.349 115.811 105.95 114.341 100.301C112.872 94.6521 108.413 90.9496 99.5004 93.1234C90.5883 95.2973 82.3534 108.399 82.3534 108.399C82.3534 108.399 96.0135 115.772 104.955 113.613Z" fill="#7A9132"/>
<path opacity="0.1" d="M114.342 100.301C115.811 105.95 113.766 111.349 104.955 113.613C96.1444 115.877 82.4704 108.46 82.4704 108.46L114.342 100.301Z" fill="#1D1D1B"/>
<path d="M129.728 139.263C127.867 132.3 123.536 130.698 119.085 131.88C114.635 133.062 111.678 136.579 113.554 143.513C115.429 150.447 125.863 157.018 125.863 157.018C125.863 157.018 131.664 146.08 129.728 139.263Z" fill="#6F842D"/>
<path opacity="0.1" d="M119.119 131.749C123.481 130.52 127.901 132.168 129.761 139.131C131.621 146.094 125.896 156.887 125.896 156.887L119.119 131.749Z" fill="#1D1D1B"/>
<path d="M106.951 138.431C111.217 132.272 109.582 127.793 105.608 125.01C101.634 122.227 96.8625 122.317 92.626 128.491C88.3895 134.666 90.2168 147.304 90.2168 147.304C90.2168 147.304 102.626 144.632 106.951 138.431Z" fill="#6F842D"/>
<path opacity="0.1" d="M105.578 125.068C109.552 127.851 111.188 132.33 106.922 138.489C102.656 144.648 90.1291 147.332 90.1291 147.332L105.578 125.068Z" fill="#1D1D1B"/>
<path d="M137.878 111.256C140.049 104.481 137.282 100.814 132.917 99.4165C128.553 98.0191 124.188 99.3939 121.944 106.168C119.7 112.941 125.128 124.101 125.128 124.101C125.128 124.101 135.722 118.075 137.878 111.256Z" fill="#A69944"/>
<path opacity="0.1" d="M132.89 99.4013C137.284 100.814 140.051 104.481 137.851 111.241C135.651 118.001 125.13 124.101 125.13 124.101L132.89 99.4013Z" fill="#1D1D1B"/>
<path d="M93.1686 131.436C100.306 127.964 101.268 123.07 98.8993 118.429C96.5306 113.788 92.1816 111.437 85.0597 114.881C77.9378 118.324 73.0259 130.763 73.0259 130.763C73.0259 130.763 86.0175 134.865 93.1686 131.436Z" fill="#87782D"/>
<path opacity="0.1" d="M98.8703 118.414C101.093 122.978 100.277 127.948 93.1396 131.421C86.0025 134.894 73.1849 130.957 73.1849 130.957L98.8703 118.414Z" fill="#1D1D1B"/>
<path d="M121.499 152.995C123.022 146.177 120.028 142.872 115.643 141.87C111.257 140.868 107.122 142.585 105.614 149.374C104.106 156.163 110.107 166.514 110.107 166.514C110.107 166.514 119.961 159.769 121.499 152.995Z" fill="#87782D"/>
<path opacity="0.1" d="M115.613 141.855C119.998 142.857 122.992 146.162 121.469 152.98C119.945 159.798 110.092 166.47 110.092 166.47L115.613 141.855Z" fill="#1D1D1B"/>
<path d="M58.8102 114.929C66.2434 114.088 68.5627 109.942 67.9775 105.162C67.3923 100.383 64.2256 96.8393 56.7632 97.6649C49.3008 98.4904 41.0177 108.202 41.0177 108.202C41.0177 108.202 51.377 115.77 58.8102 114.929Z" fill="#87782D"/>
<path opacity="0.1" d="M68.081 105.179C68.6663 109.959 66.3469 114.105 58.9137 114.946C51.4805 115.787 41.1212 108.219 41.1212 108.219L68.081 105.179Z" fill="#1D1D1B"/>
</g>
<defs>
<clipPath id="clip0_356_20454">
<rect width="176" height="192" fill="white" transform="translate(176 192.275) rotate(-180)"/>
</clipPath>
</defs>
</svg>
