<svg width="40" height="40" viewBox="0 0 40 40" fill="none" xmlns="http://www.w3.org/2000/svg">
<path d="M22.3502 20.0001L32.8502 9.51673C33.1641 9.20289 33.3404 8.77723 33.3404 8.3334C33.3404 7.88956 33.1641 7.4639 32.8502 7.15006C32.5364 6.83623 32.1107 6.65991 31.6669 6.65991C31.2231 6.65991 30.7974 6.83623 30.4836 7.15006L20.0002 17.6501L9.51689 7.15006C9.20305 6.83623 8.77739 6.65991 8.33356 6.65991C7.88972 6.65991 7.46406 6.83623 7.15022 7.15006C6.83638 7.4639 6.66007 7.88956 6.66007 8.3334C6.66007 8.77723 6.83638 9.20289 7.15022 9.51673L17.6502 20.0001L7.15022 30.4834C6.99401 30.6383 6.87002 30.8227 6.78541 31.0258C6.70079 31.2289 6.65723 31.4467 6.65723 31.6667C6.65723 31.8867 6.70079 32.1046 6.78541 32.3077C6.87002 32.5108 6.99401 32.6951 7.15022 32.8501C7.30516 33.0063 7.4895 33.1303 7.6926 33.2149C7.89569 33.2995 8.11354 33.3431 8.33356 33.3431C8.55358 33.3431 8.77142 33.2995 8.97452 33.2149C9.17762 33.1303 9.36195 33.0063 9.51689 32.8501L20.0002 22.3501L30.4836 32.8501C30.6385 33.0063 30.8228 33.1303 31.0259 33.2149C31.229 33.2995 31.4469 33.3431 31.6669 33.3431C31.8869 33.3431 32.1048 33.2995 32.3079 33.2149C32.511 33.1303 32.6953 33.0063 32.8502 32.8501C33.0064 32.6951 33.1304 32.5108 33.215 32.3077C33.2997 32.1046 33.3432 31.8867 33.3432 31.6667C33.3432 31.4467 33.2997 31.2289 33.215 31.0258C33.1304 30.8227 33.0064 30.6383 32.8502 30.4834L22.3502 20.0001Z" fill="#333"/>
</svg>
