<svg width="17" height="16" viewBox="0 0 17 16" fill="none" xmlns="http://www.w3.org/2000/svg">
<path d="M12.3039 7.70508C11.9207 8.2589 11.4089 8.71154 10.8124 9.02418C10.2158 9.33682 9.55239 9.50014 8.87891 9.50014C8.20542 9.50014 7.54198 9.33682 6.94546 9.02418C6.34894 8.71154 5.83713 8.2589 5.45391 7.70508C4.8078 8.2193 4.28578 8.8724 3.92657 9.61593C3.56735 10.3595 3.38017 11.1743 3.37891 12.0001V14.0001C3.37891 14.3979 3.53694 14.7794 3.81825 15.0607C4.09955 15.342 4.48108 15.5001 4.87891 15.5001H12.8789C13.2767 15.5001 13.6583 15.342 13.9396 15.0607C14.2209 14.7794 14.3789 14.3979 14.3789 14.0001V12.0001C14.3776 11.1743 14.1905 10.3595 13.8312 9.61593C13.472 8.8724 12.95 8.2193 12.3039 7.70508Z" fill="#374D4A"/>
<path d="M5.70398 5.54004C5.76741 6.33858 6.12942 7.0839 6.71785 7.62745C7.30628 8.171 8.07793 8.47285 8.87898 8.47285C9.68004 8.47285 10.4517 8.171 11.0401 7.62745C11.6286 7.0839 11.9906 6.33858 12.054 5.54004L12.164 4.04004C12.1994 3.5871 12.1407 3.13173 11.9916 2.70256C11.8426 2.27338 11.6064 1.87966 11.2979 1.54614C10.9894 1.21261 10.6153 0.94649 10.199 0.764484C9.78272 0.582479 9.33331 0.488525 8.87898 0.488525C8.42466 0.488525 7.97525 0.582479 7.55898 0.764484C7.14271 0.94649 6.76857 1.21261 6.46008 1.54614C6.15158 1.87966 5.91539 2.27338 5.76634 2.70256C5.6173 3.13173 5.55862 3.5871 5.59398 4.04004L5.70398 5.54004Z" fill="#374D4A"/>
</svg>
