<svg width="143" height="40" viewBox="0 0 143 40" fill="none" xmlns="http://www.w3.org/2000/svg">
<path d="M107.668 20.2768C107.751 20.1389 107.702 20.2197 107.668 20.2768C107.825 20.0106 107.974 19.7348 108.099 19.4448C108.022 20.051 108.243 20.7356 108.29 21.3346C108.16 21.1872 107.515 20.5311 107.668 20.2768ZM106.413 19.8133C105.613 19.7301 104.811 19.7443 104.01 19.7871C104.431 19.1144 104.645 18.7888 105.356 18.7959C106.248 18.8292 107.135 18.9005 108.016 18.9742C107.869 19.2285 107.678 19.4472 107.547 19.7111C107.322 20.1556 106.827 19.8561 106.415 19.8133H106.413ZM103.229 1.55315C102.473 1.56266 101.707 1.56741 100.954 1.50561C100.625 1.48184 100.274 1.42241 99.9517 1.527C99.7182 1.33684 99.5144 0.94226 99.2894 0.709314C99.508 0.70456 99.7224 0.709315 99.9411 0.725954C100.007 0.728331 100.043 0.730706 100.058 0.730706C100.034 0.730706 99.9793 0.725954 99.9411 0.725954C102.594 0.892344 105.174 0.547682 107.816 0.528666C107.676 0.744974 107.447 0.908984 107.294 1.1348C106.946 1.64823 106.802 1.59594 106.224 1.58643C105.73 1.58167 105.231 1.56979 104.738 1.56266C104.452 1.55553 103.424 1.33685 103.229 1.55315ZM103.32 19.4448C103.055 19.2285 102.113 18.765 102.236 18.3942C102.582 15.3208 102.747 12.1284 102.745 9.02644C102.741 7.53844 102.705 6.05282 102.679 4.56244C102.671 4.19638 102.665 3.82794 102.658 3.45951C102.648 2.72977 102.76 2.7155 103.212 2.15216C103.157 5.10677 103.367 8.05901 103.263 11.0089C103.212 12.4493 103.151 13.8874 103.242 15.3279C103.323 16.6447 103.414 18.128 103.32 19.4448ZM100.714 19.887C100.119 19.9416 100.09 20.0058 99.6609 19.5708C99.3679 19.2713 99.0347 19.0146 98.7736 18.6795L98.9476 18.6224C99.6099 18.563 100.27 18.6961 100.926 18.7888C101.259 18.8411 101.59 18.853 101.928 18.853C102.382 19.124 102.788 19.4567 103.178 19.8275C102.359 19.8656 101.533 19.8133 100.714 19.887ZM98.729 21.6245C98.6589 21.6103 98.608 21.5699 98.574 21.5057C98.5379 21.4106 98.7396 20.6595 98.7502 20.5169C98.7863 20.051 98.8012 19.5732 98.7566 19.1097C99.092 19.4353 99.3361 19.8846 99.5866 20.2364C99.491 20.5573 98.574 21.2918 98.7311 21.6245H98.729ZM98.8988 2.74879C98.9582 2.14265 98.9604 1.55078 98.9667 0.937511C99.0856 1.06825 99.6927 1.527 99.6609 1.75757C99.5059 1.95011 98.9328 2.55387 98.8988 2.74879ZM107.999 0.837674C107.889 1.43668 107.935 2.06658 107.982 2.67034C107.732 2.39461 107.352 2.22822 107.347 1.85741C107.313 1.45332 107.77 1.11816 107.999 0.837674ZM108.863 20.7902C108.784 20.1865 108.908 18.7222 108.489 18.3776C107.969 17.9521 106.621 18.1209 105.965 18.09C105.711 18.0757 105.299 18.1399 105.165 17.983C105.042 17.8356 105.14 17.0322 105.133 16.861C105.106 15.9364 105.006 15.0189 104.938 14.099C104.825 12.5373 104.898 10.9637 104.883 9.39963C104.866 7.59786 104.694 5.79372 104.764 3.99671C104.798 3.24082 105.148 3.50704 105.779 3.53081C106.284 3.55458 108.704 3.87549 108.612 3.24083C108.697 2.87239 108.534 2.35658 108.572 1.962C108.612 1.54602 108.636 1.06824 108.574 0.652268C108.477 -0.0180467 108.061 0.592846 108.111 0.626124C108.097 0.695057 108.12 0.381291 108.156 0.431208C107.912 0.11269 106.791 0.367028 106.452 0.355143C105.689 0.324242 104.932 0.331369 104.167 0.374155C102.648 0.459727 101.121 0.229162 99.5993 0.162606C99.2894 0.153098 98.5061 0.0152282 98.4764 0.552431C98.3044 1.00168 98.4721 1.80511 98.436 2.29478C98.3724 2.97698 98.1601 3.63065 98.9497 3.51418C99.6842 3.40008 100.431 3.35254 101.17 3.33353C101.852 3.31689 102.083 3.12198 102.13 3.85647C102.147 5.59406 102.2 7.32927 102.198 9.06686C102.193 10.7498 102.079 12.4089 101.947 14.0799C101.858 15.1567 101.947 16.2668 101.809 17.3341C101.724 17.964 101.813 18.2159 101.236 18.1898C100.465 18.1042 99.4889 17.7477 98.7184 18.0091C97.8438 18.1423 98.2301 19.673 98.1877 20.3434C98.1537 20.8711 97.7801 21.6602 98.2514 22.0548C98.5294 22.3258 98.988 22.3947 99.3361 22.4209C100.304 22.4827 101.297 22.2758 102.272 22.2782C103.168 22.2806 104.053 22.0049 104.944 22.0928C105.917 22.1879 106.88 22.3424 107.861 22.3472C108.804 22.3543 108.992 21.7577 108.869 20.7879L108.863 20.7902Z" fill="#374D4A"/>
<path d="M46.7175 17.4549C46.2739 17.3051 46.3779 16.7109 46.242 16.2735C46.5859 16.5136 46.9383 16.7489 47.2482 17.0389C47.4499 17.2315 47.6897 17.4739 47.7534 17.7734C47.3841 17.6831 47.0763 17.5761 46.7154 17.4525L46.7175 17.4549ZM45.8175 17.7639C45.3356 18.2322 44.8007 18.6315 44.236 18.9619C42.8838 19.7511 41.4085 20.1575 39.8844 19.9341C37.0208 19.5086 34.6243 17.26 33.5799 14.3006C33.6839 14.4836 34.5202 15.993 34.6009 15.9526C34.7219 15.8908 34.1658 14.6144 34.2167 14.4099C34.3037 14.5906 34.3886 14.7713 34.4799 14.9495C34.4757 14.94 34.4757 14.9448 34.499 14.9828C34.5882 15.1539 34.5542 15.0874 34.5181 15.0185C36.0529 17.8542 39.1032 19.3945 42.0708 18.8882C43.4782 18.6529 44.9578 17.424 45.7665 16.1357C45.9618 16.6253 46.1783 17.4192 45.8175 17.7663V17.7639ZM38.7679 21.1226C39.3113 21.2747 39.8759 21.4055 40.43 21.5053C40.7781 21.5647 41.5444 21.3841 41.8288 21.541C41.2239 21.6123 40.6125 21.617 40.0075 21.5481C36.1144 21.1226 32.8921 17.9873 31.9984 13.704C31.1621 9.70347 32.6353 5.03267 35.6304 2.67469C37.1991 1.43864 38.7381 0.8848 40.6231 0.680377C43.3148 0.388006 45.6073 1.94732 47.5242 3.85606C47.21 3.77286 46.3545 3.9963 46.1656 3.7895C45.6222 3.17386 44.9641 2.71509 44.2636 2.35854C42.7671 1.59552 41.3427 1.34832 39.7167 1.35782C36.764 1.37922 34.5287 4.01532 33.4016 6.87961C32.13 10.11 32.2977 13.5423 34.032 16.5469C35.6474 19.3494 39.1436 21.0703 42.0432 20.4428C41.1644 20.8112 40.275 20.8849 39.3431 20.7779C39.1266 20.7494 36.8001 20.1504 36.8829 19.9888C36.6982 20.3406 38.5556 21.0679 38.7679 21.1274V21.1226ZM47.6367 16.5564C47.6791 16.5992 47.7152 16.6301 47.6197 16.5421C47.5305 16.4565 47.5602 16.4827 47.6027 16.5255C47.1888 16.1357 46.6751 15.7268 46.1826 15.463C45.4969 15.0898 44.7285 16.4732 44.2891 16.8797C42.8563 18.2369 41.2536 18.3534 39.4429 18.0777C37.8721 17.8423 36.0677 16.5184 35.2802 15.0399C34.0511 12.7104 33.945 10.7612 34.7835 8.1822C35.5243 5.8979 37.093 4.19597 39.1818 3.44483C41.0137 2.79116 43.2447 3.68491 44.6861 4.92095C44.9641 5.14677 45.7496 6.44223 46.1953 6.09756C46.6878 5.73388 47.2758 5.4011 47.7216 4.98038C47.815 4.89243 47.9317 4.74268 47.9933 4.63333C48.3478 4.0272 48.0442 4.20785 47.8001 3.92023C46.397 2.33002 44.9514 0.932339 42.939 0.456939C40.7632 -0.0541171 38.2414 0.0362081 36.3182 1.42913C34.1318 3.00746 32.5588 4.87817 31.7819 7.72582C31.1621 10.0006 31.022 12.5202 31.697 14.795C33.1638 19.7297 37.5282 22.8008 42.1324 22.1518C43.3615 21.9783 44.599 21.5481 45.6668 20.8469C46.4203 20.3548 47.0444 19.6298 47.7279 19.0285C48.5452 18.2322 48.4369 17.336 47.6367 16.5588V16.5564Z" fill="#374D4A"/>
<path d="M142.219 19.3588C142.132 19.6797 142.183 19.5086 142.209 19.4088C142.045 20.0505 142.071 20.6234 142.158 21.2771C141.956 21.1725 141.275 20.4618 141.411 20.2502C141.659 19.8723 141.999 19.5775 142.238 19.1996C142.23 19.2519 142.226 19.3066 142.219 19.3588ZM140.655 19.9983C139.782 19.8889 138.904 19.8842 138.029 19.896C136.206 19.927 134.391 19.7986 132.574 19.7986C133.049 19.2875 133.215 18.9761 133.875 19.0023C135.242 19.0332 136.603 18.8715 137.965 18.9334C139.303 18.9856 140.636 19.0902 141.967 18.9001C141.687 19.385 141.124 20.0577 140.653 19.9959L140.655 19.9983ZM132.24 8.37946C132.427 8.08947 132.722 7.52849 133.06 7.54275C133.438 7.55464 133.818 7.56415 134.195 7.57842C136.199 7.66874 138.277 7.84226 140.266 7.56415C139.823 8.26537 139.738 8.56011 138.927 8.54822C138.193 8.54109 137.46 8.46504 136.728 8.42463C135.991 8.38184 135.253 8.39847 134.514 8.3438C133.934 8.29864 132.78 8.08709 132.243 8.37946H132.24ZM131.93 3.29743C131.896 4.29577 131.894 5.29649 131.856 6.29483C131.784 8.22971 131.742 10.1551 131.752 12.0923C131.761 13.9321 131.977 15.7648 131.886 17.6046C131.865 17.9849 131.863 18.3557 131.875 18.7337C131.888 19.0023 131.735 19.8033 131.863 20.0101C131.761 20.1124 131.062 21.2604 131.086 21.3151C130.835 21.0322 131.047 19.1829 131.039 18.8026C131.022 17.8471 131.003 16.8963 130.988 15.9407C130.956 13.3522 131.073 10.7755 131.117 8.18217C131.158 5.85984 131.328 3.45669 131.228 1.14149C131.404 1.32927 131.555 1.54557 131.729 1.74049C132.126 2.18499 131.947 2.67703 131.93 3.29267V3.29743ZM132.414 0.93944C135.405 0.91567 138.377 0.604287 141.358 0.870512C141.101 1.07256 140.876 1.42197 140.576 1.54082C140.313 1.65254 139.763 1.52181 139.473 1.52181C138.388 1.50992 137.299 1.53607 136.216 1.58361C135.261 1.62164 134.323 1.62877 133.368 1.61214C133.032 1.60738 132.671 1.60976 132.349 1.72861C132.105 1.45525 131.784 1.19616 131.523 0.929937C131.82 0.939445 132.115 0.937063 132.414 0.93944ZM141.744 2.55343C141.474 2.31573 141.137 2.1018 140.908 1.81893C141.23 1.56222 141.555 1.2437 141.856 0.953701C141.818 1.48377 141.699 2.02098 141.744 2.55581V2.55343ZM140.494 7.98487C140.562 7.85176 140.627 7.72341 140.693 7.59268C140.661 8.18217 140.632 8.76929 140.638 9.35879C140.434 9.18527 140.158 9.02126 140.033 8.75503C140.192 8.50545 140.364 8.26061 140.494 7.98725V7.98487ZM142.188 18.2559C139.591 18.3581 136.993 18.3439 134.393 18.3534C133.535 18.3581 133.807 17.9968 133.798 17.1031C133.786 16.2878 133.705 15.4629 133.72 14.6524C133.737 13.7301 133.798 12.8173 133.798 11.895C133.796 11.4363 133.807 10.9775 133.818 10.5188C133.824 10.1432 133.871 10.224 134.208 10.2525C136.061 10.3975 137.927 10.4427 139.785 10.4831C140.816 10.5069 141.281 10.3571 141.29 9.19002C141.294 8.65757 141.561 7.54989 141.188 7.10301C140.712 6.53967 139.424 6.94375 138.865 6.97465C138.127 7.07686 137.284 6.98416 136.539 6.97941C136.08 6.97941 135.62 6.94138 135.159 6.92474C134.862 6.91285 133.66 7.07924 133.474 6.86294C133.499 5.79091 133.325 4.68084 133.431 3.6207C133.762 3.36161 134.677 3.61832 135.061 3.63021C135.758 3.64447 136.458 3.67537 137.155 3.64447C138.475 3.58742 139.691 3.56128 141.005 3.70627C141.358 3.74906 142.007 3.83701 142.27 3.45906C142.51 3.10489 142.396 2.17073 142.444 1.70721C142.485 1.29599 142.525 0.656575 142.251 0.321417C142.075 0.138388 141.404 0.435514 141.156 0.426006C139.927 0.368958 138.749 0.387976 137.509 0.428385C136.006 0.483056 134.495 0.426006 132.99 0.426006C132.304 0.426006 131.606 0.352323 130.922 0.371339C130.481 0.385601 130.74 1.13436 130.746 1.43861C130.774 2.88858 130.576 4.33143 130.6 5.78378C130.629 7.67825 130.551 9.57034 130.489 11.4624C130.411 13.8751 130.449 16.2901 130.491 18.7052C130.5 19.24 130.302 21.8357 130.827 21.9284C131.385 22.0211 131.933 21.8499 132.491 21.8286C133.257 21.7953 134.026 21.8357 134.794 21.9022C136.28 22.0282 137.859 21.9522 139.328 22.2255C139.825 22.3158 140.349 22.3372 140.85 22.2897C141.262 22.2517 141.982 22.3824 142.342 22.2208C143.018 21.9236 142.604 20.2074 142.767 19.5609C142.888 19.0855 142.786 18.2321 142.19 18.2559H142.188Z" fill="#374D4A"/>
<path d="M124.866 2.51584C124.562 2.31617 124.286 2.03331 123.964 1.87406C124.327 1.64349 124.656 1.29644 124.98 0.999312C124.938 1.51512 124.828 1.99528 124.866 2.51584ZM123.618 1.70766C123.136 1.64824 122.652 1.61258 122.168 1.59356C121.191 1.55791 120.213 1.59832 119.245 1.73856C118.245 1.87881 117.237 1.67201 116.237 1.79561C115.834 1.84315 115.575 1.85979 115.254 1.60069C115.173 1.53651 114.604 1.11816 114.694 1.12767H114.74C116.029 1.16333 117.381 1.19185 118.657 1.09677C119.536 1.03021 120.516 0.8662 121.397 0.999312C121.953 1.08488 122.52 1.05399 123.078 0.989809C123.518 0.937515 123.923 1.06349 124.337 0.947018C124.146 1.1657 123.747 1.45332 123.62 1.71241L123.618 1.70766ZM117.215 7.71436C119.268 7.7619 121.508 7.99009 123.516 7.49092C123.144 8.23017 122.894 8.44646 122.144 8.50589C121.406 8.57007 120.667 8.61999 119.926 8.61762C118.506 8.60811 117.101 8.94564 115.706 8.9599C115.821 8.75311 116.335 7.7191 116.521 7.7191C116.753 7.71672 116.982 7.71673 117.213 7.71436H117.215ZM124.063 7.53608C123.896 7.7928 123.962 8.85531 124.046 9.29981C123.773 9.10252 123.505 8.86007 123.216 8.6913C123.543 8.31573 123.79 7.95919 124.063 7.53608ZM115.657 21.6079C115.311 21.5913 114.963 21.5865 114.619 21.627C114.738 21.5034 115.434 20.5739 115.517 20.6072C115.834 20.7213 116.184 21.4035 116.396 21.6484C116.148 21.6436 115.904 21.6175 115.657 21.6056V21.6079ZM114.303 19.8418C114.309 19.5447 114.326 19.2452 114.331 18.9457C114.358 17.5314 114.386 16.1218 114.382 14.7075C114.377 12.3661 114.314 10.0248 114.329 7.68345C114.341 5.57981 114.592 3.47615 114.551 1.37488C114.844 1.62209 115.105 1.91684 115.411 2.14503C115.254 2.81059 115.203 3.49279 115.178 4.17261C115.137 5.26366 115.084 6.35708 115.088 7.4505C115.088 7.6264 115.048 7.79755 115.046 7.97582C115.046 7.99484 115.048 8.01148 115.048 8.02812L115.046 8.03287C115.014 8.15172 115.025 8.26106 115.059 8.37992C115.059 8.38705 115.065 8.3918 115.067 8.39656C115.069 8.4441 115.074 8.49163 115.078 8.53679C115.108 8.8767 115.101 9.21186 115.11 9.5494C115.122 10.0058 115.146 10.4669 115.173 10.9233C115.231 11.8432 115.305 12.7655 115.347 13.6854C115.371 14.1988 115.381 14.7075 115.375 15.2209C115.356 16.4427 115.415 17.6621 115.403 18.8815C115.398 19.3831 115.462 19.8941 115.159 20.2554C114.855 20.612 114.498 21.085 114.286 21.5176C114.148 21.1848 114.301 20.2649 114.307 19.8418H114.303ZM125.507 0.504899C125.301 -0.00378036 123.639 0.412195 123.229 0.452604C122.138 0.564323 120.947 0.621372 119.858 0.557193C118.841 0.502522 117.801 0.55957 116.78 0.550062C116.048 0.542931 115.186 0.473995 114.458 0.569075C113.704 0.666532 113.997 2.88666 113.961 3.50706C113.862 4.90236 113.804 6.30003 113.791 7.70246C113.768 10.6286 113.874 13.557 113.823 16.4831C113.798 17.9378 113.738 19.3926 113.743 20.852C113.749 21.539 113.59 21.7933 114.089 22.1737C114.422 22.4684 115.562 22.2426 115.963 22.2687C116.691 22.3187 117.054 22.3377 117.22 21.4154C117.332 20.032 117.256 18.6438 117.143 17.2604C117.056 15.953 117.256 14.6433 117.224 13.3336C117.201 12.485 117.171 11.6293 117.158 10.7831C117.721 10.6927 118.287 10.6309 118.852 10.6143C119.903 10.5786 121.024 10.2839 122.066 10.4954C122.711 10.6 123.522 10.8045 124.17 10.6095C124.944 10.4194 124.796 9.86316 124.677 9.1667C124.533 8.43934 125.002 7.42674 124.482 6.8515C124.223 6.58052 123.862 6.64469 123.55 6.7374C122.926 6.92993 122.295 6.91568 121.652 6.93469C120.102 6.97986 118.487 6.88478 116.956 7.02502C116.963 6.64945 116.976 6.27627 116.988 5.89832C117.005 5.40866 116.85 4.17499 117.101 3.78516C117.252 3.54984 117.498 3.60927 117.827 3.59738C118.912 3.5546 119.95 3.75902 121.028 3.81131C122.134 3.86361 123.242 3.70672 124.348 3.73049C124.963 3.74238 125.636 3.92541 125.503 2.96985C125.39 2.16167 125.815 1.26078 125.507 0.50965V0.504899Z" fill="#374D4A"/>
<path d="M64.544 21.3341C64.561 21.3293 64.5674 21.3293 64.5398 21.3341C64.0494 21.3935 63.54 21.3222 63.0624 21.4672C63.3468 21.2319 63.6313 20.8278 63.9921 20.7232C64.2235 20.6542 65.011 21.075 64.9452 21.3555C64.8136 21.315 64.6799 21.3079 64.544 21.3365V21.3341ZM62.9647 21.0988C63.0157 20.4118 62.8098 19.7581 62.7822 19.0783C62.7482 18.2511 62.8437 17.412 62.8034 16.5705C62.7588 15.577 62.7716 14.5834 62.7673 13.5922C62.7652 12.9789 62.7525 12.3633 62.744 11.7524C62.7376 11.3911 62.7312 11.0321 62.7249 10.6708C62.7164 9.96724 63.3659 9.66298 63.7565 9.14004C63.6992 11.3911 63.9009 13.6231 63.9263 15.867C63.9369 16.9033 63.869 17.9397 63.8945 18.9761C63.903 19.3992 63.9518 19.8532 63.9327 20.2763C63.54 20.4261 63.2513 20.7802 62.9647 21.0964V21.0988ZM58.6577 8.56956C56.9446 8.47685 55.1106 8.25817 53.4145 8.65751C53.6799 8.34374 53.9961 8.02761 54.1341 7.61163C54.2466 7.53794 54.5841 7.62352 54.72 7.62589C55.6116 7.6663 56.4946 7.50942 57.3862 7.61163C57.9041 7.66868 58.335 7.8517 58.8487 7.79465C59.8018 7.68769 60.7571 7.58548 61.7102 7.76613C61.9203 7.80416 62.1178 7.84695 62.3321 7.79465C62.7185 7.70195 63.1388 8.17498 63.436 8.50063C61.8545 8.36039 60.2497 8.65988 58.6556 8.56956H58.6577ZM54.2466 21.5171C53.8157 21.7619 52.6397 21.8784 52.2088 21.6859C52.5527 21.4244 52.9327 20.7279 53.3933 20.9252C53.7117 21.0607 54.1002 21.2176 54.391 21.4149L54.2466 21.5171ZM51.9986 15.5413C52.0262 13.566 51.9435 11.5931 51.9647 9.61781C51.9732 8.66463 51.9795 7.71146 52.0008 6.75828C52.0411 4.94938 52.3404 3.14999 52.1621 1.35298C52.489 1.77608 52.869 2.11837 52.8371 2.66983C52.7904 3.4899 52.7819 4.31472 52.7501 5.13478C52.6779 6.82483 52.7735 8.42455 52.8987 10.1099C53.1513 13.528 52.9794 16.9675 52.9963 20.3904C52.5803 20.6138 52.1918 21.1867 51.8861 21.5551C51.8246 19.5394 51.9711 17.5546 52.0008 15.5437L51.9986 15.5413ZM52.7395 0.965524C53.0006 0.989294 53.2659 1.01544 53.5291 1.00593C53.4209 1.1533 53.1916 1.81887 53.0303 1.84977C53.0027 1.58592 52.4635 1.09626 52.2852 0.917981C52.4338 0.932243 52.5973 0.927492 52.7395 0.965524ZM62.7737 0.963145C63.1558 1.27691 63.4126 1.71903 63.7735 2.04706C63.7268 2.76491 63.7225 3.48039 63.7353 4.20062C63.7565 5.55551 63.8181 6.89852 63.7777 8.25579C63.4997 7.93014 63.194 7.7899 62.8565 7.57359C62.7652 7.4072 62.8798 6.88427 62.8671 6.67509C62.8013 4.85668 62.5699 2.79582 62.7737 0.965524V0.963145ZM64.9176 0.699301C64.7775 0.863314 64.0388 1.77133 63.9115 1.62633C63.9348 1.65248 63.9476 1.66674 63.9115 1.62633C63.6334 1.30781 63.3553 0.975031 63.0051 0.756347C63.3341 0.737331 64.6332 0.376028 64.9176 0.699301ZM65.6818 21.4268C65.4165 20.167 65.6818 18.7645 65.6309 17.4762C65.5799 16.1974 65.5672 14.9209 65.5672 13.6397C65.5672 12.658 65.5693 11.6692 65.5651 10.6851L65.5354 1.80223C65.5332 1.15568 65.858 -0.130275 64.8136 0.0147225C64.1619 0.105049 63.5442 0.100292 62.9159 0.383155C62.3767 0.623233 62.5105 1.25076 62.5274 1.87829C62.4701 3.39958 62.4447 4.90659 62.4638 6.42787C62.4765 7.28597 62.5678 7.44761 61.6423 7.26458C60.6637 7.07442 59.6681 7.18139 58.6853 7.27647C58.3202 7.31212 57.9742 7.14336 57.6091 7.08631C56.7302 6.94844 55.862 7.08631 54.9811 7.05779C54.8261 7.05541 54.3952 7.14573 54.4058 6.89139C54.4292 6.30903 54.4377 5.72429 54.4462 5.13954C54.4547 4.39079 54.512 3.6349 54.4844 2.88852C54.4589 2.23484 54.6096 1.2365 54.4292 0.625614C54.287 0.0765264 53.803 0.430697 53.7457 0.399796C53.4591 0.254799 52.8074 0.368898 52.4678 0.33562C51.3236 0.209638 51.6717 1.30306 51.7057 2.23484C51.7482 3.48039 51.5168 4.74496 51.4743 5.99051C51.4234 7.38582 51.417 8.78586 51.4043 10.1835C51.3831 12.841 51.4191 15.47 51.3088 18.1275C51.2833 18.7408 50.7887 22.2587 51.8819 22.3681C52.5633 22.4346 53.4931 22.4251 54.1532 22.2373C55.2825 21.9188 55.0957 20.5544 55.0639 19.5014C55.0172 18.0229 54.8771 16.542 54.8983 15.0659C54.9132 14.1175 54.8962 13.1809 54.8559 12.2349C54.8474 12.0328 54.6648 10.842 54.7879 10.7231C56.1741 10.716 57.5433 10.533 58.9273 10.5139C59.6511 10.4973 61.1201 10.2786 61.8376 10.6352C62.1772 10.8039 61.9692 10.5353 62.0965 10.9299C62.1793 11.1938 62.1071 11.6264 62.1093 11.9092C62.1178 12.6723 62.1284 13.4305 62.1284 14.1983C62.1284 15.5152 62.2409 16.8487 62.1878 18.1631C62.1496 19.1187 62.4171 20.117 62.3279 21.0536C62.2918 21.7691 62.2345 22.3015 63.0645 22.185C63.194 22.166 63.3341 22.1114 63.4636 22.1066C63.7692 22.0495 64.6481 21.9473 64.9198 22.1042C65.1151 22.2159 65.3443 22.1779 65.512 22.0305C65.65 21.876 65.7285 21.6502 65.6882 21.4268H65.6818Z" fill="#374D4A"/>
<path d="M27.1416 20.1934C27.2244 20.0556 27.1756 20.1364 27.1416 20.1934C27.2987 19.9248 27.4473 19.6491 27.5726 19.3591C27.4961 19.9653 27.7169 20.6522 27.7636 21.2488C27.6341 21.1015 26.9888 20.4454 27.1416 20.1911V20.1934ZM25.8871 19.7299C25.089 19.6467 24.2844 19.661 23.4863 19.7038C23.9087 19.0311 24.121 18.7054 24.8321 18.7126C25.7237 18.7458 26.611 18.8172 27.4919 18.8908C27.3454 19.1452 27.1523 19.3615 27.0206 19.6277C26.7978 20.0722 26.301 19.7751 25.8892 19.7299H25.8871ZM22.703 1.46979C21.9473 1.4793 21.181 1.48405 20.4274 1.42224C20.0984 1.39847 19.7481 1.33905 19.4255 1.44364C19.1941 1.25348 18.9903 0.858901 18.7632 0.625954C18.9818 0.6212 19.1962 0.625949 19.4149 0.642588C19.4807 0.642588 19.5168 0.647347 19.5316 0.647347C19.5083 0.647347 19.4531 0.642588 19.4149 0.642588C22.0683 0.808978 24.6474 0.464314 27.2902 0.442921C27.1501 0.661605 26.9209 0.823245 26.768 1.04906C26.4199 1.56012 26.2756 1.5102 25.6982 1.50069C25.2036 1.49594 24.7069 1.48405 24.2123 1.47692C23.9278 1.46979 22.8983 1.2511 22.703 1.46741V1.46979ZM22.7943 19.3615C22.5289 19.1476 21.5864 18.684 21.7096 18.3109C22.0556 15.2374 22.2211 12.0451 22.219 8.94309C22.2148 7.45508 22.1787 5.96946 22.1532 4.47907C22.1447 4.11302 22.1383 3.74458 22.132 3.37614C22.1214 2.6464 22.2339 2.63214 22.686 2.07117C22.6308 5.02341 22.841 7.97564 22.7348 10.9255C22.686 12.3683 22.6223 13.8041 22.7136 15.2445C22.7943 16.5638 22.8856 18.047 22.7922 19.3615H22.7943ZM20.1875 19.806C19.5953 19.8607 19.5635 19.9248 19.1347 19.4898C18.8417 19.1927 18.5085 18.9336 18.2474 18.6009L18.4214 18.5462C19.0837 18.4844 19.7418 18.6175 20.3998 18.7126C20.7331 18.7649 21.0642 18.7744 21.4018 18.7744C21.856 19.0477 22.2615 19.3781 22.652 19.7489C21.8305 19.787 21.0069 19.7347 20.1875 19.8084V19.806ZM18.2049 21.5436C18.137 21.5293 18.0839 21.4889 18.0499 21.4247C18.0139 21.3297 18.2155 20.5761 18.2261 20.4335C18.2622 19.9676 18.2771 19.4922 18.2325 19.0263C18.57 19.352 18.812 19.8012 19.0625 20.153C18.967 20.4763 18.0499 21.2108 18.207 21.5436H18.2049ZM18.3747 2.6678C18.4342 2.06166 18.4363 1.46979 18.4427 0.858896C18.5615 0.987254 19.1708 1.44839 19.1368 1.67659C18.9818 1.8715 18.4087 2.47289 18.3747 2.6678ZM27.4749 0.759066C27.3667 1.35569 27.4134 1.98797 27.4579 2.59173C27.2075 2.31362 26.8275 2.14961 26.8232 1.7788C26.7893 1.3747 27.2457 1.03955 27.4728 0.759066H27.4749ZM28.3389 20.7093C28.2603 20.1055 28.3856 18.6413 27.9653 18.2966C27.4452 17.8711 26.0973 18.0399 25.4413 18.009C25.1866 17.9947 24.7748 18.0589 24.6411 17.902C24.5179 17.757 24.6156 16.9512 24.6092 16.7801C24.5816 15.8554 24.4819 14.9379 24.416 14.018C24.3014 12.4563 24.3757 10.8827 24.3609 9.31866C24.3439 7.51689 24.1719 5.71274 24.242 3.91573C24.2759 3.15984 24.6262 3.42606 25.2567 3.44983C25.764 3.4736 28.1818 3.79449 28.0905 3.15983C28.1754 2.78902 28.012 2.27559 28.0502 1.88101C28.0905 1.46504 28.1139 0.987259 28.0523 0.57366C27.9547 -0.0990318 27.5386 0.511852 27.5895 0.54513C27.5747 0.61644 27.5959 0.300304 27.6341 0.350221C27.39 0.0317027 26.2692 0.286043 25.9296 0.276535C25.1675 0.245634 24.4097 0.250382 23.6455 0.293168C22.1256 0.37874 20.5994 0.14817 19.0774 0.0839907C18.7696 0.0744827 17.9841 -0.06338 17.9544 0.473823C17.7825 0.923076 17.9502 1.7265 17.912 2.21616C17.8483 2.89836 17.6381 3.55204 18.4257 3.43557C19.1601 3.32147 19.9073 3.27394 20.6461 3.25492C21.3296 3.23828 21.5567 3.04336 21.6034 3.78024C21.6225 5.51545 21.6756 7.25304 21.6713 8.99063C21.6671 10.6735 21.5525 12.3327 21.4209 14.0037C21.3317 15.0805 21.4209 16.1906 21.2829 17.2578C21.198 17.8877 21.285 18.1397 20.7097 18.1136C19.9392 18.0256 18.9627 17.6714 18.1922 17.9329C17.3176 18.0636 17.7039 19.5968 17.6594 20.2671C17.6254 20.7948 17.2518 21.584 17.723 21.9786C18.0011 22.2495 18.4575 22.3185 18.8078 22.3446C19.7757 22.4064 20.7692 22.1972 21.7435 22.202C22.6414 22.2068 23.5245 21.931 24.416 22.0166C25.3883 22.1117 26.352 22.2662 27.3306 22.2709C28.2731 22.2805 28.462 21.6814 28.3389 20.7116V20.7093Z" fill="#374D4A"/>
<path d="M92.3968 20.9688C92.1293 20.7216 92.3395 20.9189 92.3947 20.9664C91.6942 20.3127 91.9914 20.1297 92.4626 19.3453C92.4308 19.9942 92.6027 20.617 92.6197 21.2635C92.5454 21.1661 92.469 21.0662 92.3947 20.9664L92.3968 20.9688ZM91.0382 20.1677C90.0427 20.1796 89.0577 20.1154 88.0622 20.1321C86.3364 20.1582 84.5511 19.6781 82.8254 19.93C82.8954 19.8635 82.9676 19.7993 83.0355 19.7327C83.7296 19.0553 84.3389 19.1266 85.2177 19.1313C86.018 19.0173 86.8288 19.0529 87.6312 18.9555C88.5865 18.8461 89.5332 19.0173 90.4821 18.9602C90.7262 18.9459 90.9746 19.0458 91.2314 19.0339C91.4331 19.0268 92.159 18.7819 92.3777 18.8627C92.0487 19.4451 91.6496 20.1582 91.0404 20.1654L91.0382 20.1677ZM81.488 0.681053C81.7428 0.692938 83.2011 0.360159 83.1862 0.348274C83.1714 0.334012 83.1459 0.329259 83.1268 0.319751C83.1565 0.319751 83.1799 0.319746 83.2096 0.322123C83.2032 0.41958 83.2181 0.540811 83.1289 0.585974C83.1332 0.585974 83.1714 0.59786 83.148 0.631138C82.9739 0.866461 82.6152 1.19211 82.369 1.47022C82.0463 1.21588 81.8489 0.892606 81.4902 0.681053H81.488ZM82.076 18.9769C82.0336 19.3144 81.9784 19.659 82.0187 19.999C81.7449 20.3745 81.5135 20.8 81.1951 21.1352C81.1739 19.8682 81.1951 18.6845 81.2524 17.4152C81.3628 14.9906 81.089 12.5114 81.0677 10.075C81.0571 8.58221 81.0423 7.08708 81.0316 5.59432C81.0253 5.14507 80.9913 4.70295 80.968 4.25845C80.9043 3.15552 81.2524 1.88857 81.0295 0.823674C81.3182 1.11605 81.6685 1.37989 81.9784 1.66989C81.9911 1.67939 82.006 1.6889 82.0272 1.71505C81.7852 2.09537 81.9508 3.37658 81.9232 3.85673C81.8807 4.66967 81.8234 5.4826 81.7767 6.29553C81.677 8.10919 81.7704 10.0346 81.9529 11.8387C82.0314 12.6065 82.0336 13.3861 82.0124 14.1563C81.9932 15.012 82.1716 15.8582 82.1461 16.7234C82.1227 17.4674 82.1694 18.2376 82.0739 18.9745L82.076 18.9769ZM93.0612 19.8801C92.9912 19.1266 93.2841 18.0879 92.2333 18.1877C91.8746 18.1758 91.4458 18.3469 91.0743 18.3612C90.7687 18.3683 90.4651 18.3137 90.1807 18.2828C88.1492 18.0522 85.9479 18.3041 83.9058 18.4468C83.77 14.7315 83.8103 10.9806 83.598 7.27961C83.5789 6.90405 83.8867 0.02738 83.615 0.008364C83.1332 -0.027291 82.664 0.0630307 82.1885 0.0558997C81.8574 0.0511457 81.3989 0.357785 81.0656 0.269836C81.0295 0.260328 80.9977 0.274584 80.9722 0.2936C80.8385 0.314993 80.7281 0.372042 80.692 0.502777C80.6113 0.797526 80.7069 1.25391 80.6835 1.56768C80.6347 2.28316 80.5137 2.9915 80.5073 3.71173C80.4861 6.43815 80.5158 9.18359 80.554 11.9076C80.571 13.3124 80.6453 14.7125 80.6962 16.1126C80.7429 17.3795 80.5137 18.6322 80.5795 19.8896C80.6007 20.2652 80.4988 21.7746 80.7939 21.998C81.2184 22.4948 82.4772 22.2571 82.9994 22.2238C84.1839 22.1478 85.3557 22.1882 86.5402 22.1787C87.9709 22.1668 89.3676 22.3878 90.7856 22.5067C91.3736 22.5423 91.8725 22.6588 92.4541 22.4496C93.5197 22.0622 93.1419 20.8166 93.0633 19.8777L93.0612 19.8801Z" fill="#374D4A"/>
<path d="M12.9383 21.5247C12.4352 21.5984 11.7899 21.6935 11.2974 21.5366C11.5118 21.3155 11.7411 20.8853 12.0743 20.9542C12.4861 21.0374 12.881 21.3155 13.2758 21.4653C13.1654 21.4843 13.0508 21.5176 12.9383 21.5247ZM10.1044 19.8751V19.8703C9.81362 19.2642 9.44001 18.7056 9.06429 18.1755C8.72041 17.6858 8.45082 17.025 8.02839 16.6138C8.20246 16.2501 8.38289 15.9102 8.56969 15.5584C9.14708 16.5639 9.74357 17.5575 10.3677 18.5297C10.6648 18.9932 10.909 19.5185 11.221 19.9606C11.342 20.1175 11.4566 20.2744 11.5691 20.436C11.3165 20.6024 11.1467 21.0089 10.9726 21.2609C10.6627 20.7902 10.3528 20.3932 10.1023 19.8727L10.1044 19.8751ZM5.48323 15.2256H5.47686C4.75513 15.2304 4.03339 15.2803 3.31166 15.3635C3.79989 14.8216 3.85296 14.5886 4.47492 14.5529L5.90565 14.4721C7.63993 14.3723 9.10674 14.0395 10.3316 12.5824C11.5564 11.1182 11.9809 9.40911 11.8281 7.41956C11.7007 5.8032 10.4059 4.33184 9.2702 3.488C10.5545 3.93012 11.6392 4.7288 12.242 6.10984C12.8322 7.46949 12.7536 9.26174 12.2654 10.707C11.7198 12.3281 10.7519 13.4239 9.43365 14.2796C8.17062 15.0973 6.92244 15.2138 5.48323 15.228V15.2256ZM2.91896 21.3607C2.94231 21.3607 2.95292 21.3607 2.91471 21.3607C2.88075 21.3559 2.86376 21.3559 2.84466 21.3559C2.86801 21.3559 2.89136 21.3559 2.91046 21.3607C2.50078 21.3393 2.09533 21.287 1.68352 21.2727C1.80876 21.18 2.4562 20.5287 2.53049 20.5929C2.79371 20.8354 3.03358 21.1063 3.28619 21.3631C3.16519 21.3631 3.03783 21.3607 2.91683 21.3583L2.91896 21.3607ZM9.43152 4.40315C10.9811 5.78894 11.5734 7.75234 11.0469 9.88927C10.7306 11.1824 9.76267 12.5658 8.69706 13.1909C8.04962 13.5641 7.30878 13.6616 6.60191 13.7448C6.09882 13.8137 5.58936 13.8327 5.08203 13.8589C4.78272 13.8755 4.3603 13.7305 4.08646 13.9302C3.57276 13.7115 4.02915 9.40675 4.0249 8.74119C4.02066 7.05589 4.19897 5.37297 4.18411 3.69718C4.17774 3.12432 4.29237 3.26219 4.80819 3.2503C5.62757 3.23128 6.44907 3.15284 7.25996 3.28833C8.0475 3.41907 8.82018 3.84693 9.43577 4.40077L9.43152 4.40315ZM1.33751 21.0517C1.36935 20.6975 1.3927 20.3386 1.4203 19.9796C1.62408 17.3269 1.49884 14.736 1.47974 12.0809C1.46275 8.95511 1.83423 5.81034 1.72385 2.68933C1.67503 1.67435 1.13798 0.654617 2.23543 0.654617C3.87631 0.654617 5.51294 0.585683 7.1517 0.690271C8.80319 0.797236 10.3698 1.6173 11.5712 2.86523C12.8364 4.18446 13.2397 5.7723 13.0805 7.67866C12.9234 5.15666 10.9811 2.57286 8.88386 1.71476C7.60384 1.19419 6.25803 1.26313 4.9207 1.31304C4.26902 1.32968 3.59399 1.2251 2.9508 1.33682C2.35855 1.43903 2.46044 1.80033 2.4286 2.42311C2.27152 5.68436 2.29911 9.00741 2.33732 12.2734C2.36067 13.9159 2.43922 15.5656 2.41587 17.2081C2.40525 17.9402 2.27152 18.6652 2.27364 19.3925C2.27789 19.7966 2.41587 19.9155 2.15265 20.2055C1.89155 20.4978 1.6071 20.7712 1.33964 21.0564L1.33751 21.0517ZM13.0381 19.2404C12.7748 18.8601 10.6648 15.934 10.8049 15.7937C12.6262 14.4032 13.9169 12.3233 14.4497 9.91067C15.061 7.12482 13.7789 4.26528 11.9809 2.39934C10.1596 0.500111 7.80975 0.326592 5.40893 0.164955C4.68508 0.117415 3.96334 0.214867 3.24161 0.174458C2.5963 0.131672 1.94249 0.0556077 1.30143 0.181589C0.855651 0.271915 1.21439 2.9817 1.1868 3.39292C1.00424 6.3309 0.915088 9.34256 0.936315 12.2853C0.951174 13.7923 1.04882 15.2993 1.03396 16.804C1.0191 18.1351 0.851406 19.4543 0.791969 20.7807C0.764373 21.4272 0.811074 22.1807 1.588 21.905C2.30973 21.905 3.45601 22.3139 4.09283 21.8218C4.67022 21.3797 4.31996 19.8394 4.31572 19.1358C4.31147 18.5582 4.34968 17.9616 4.39426 17.384C5.17755 17.5456 6.01179 17.6597 6.79296 17.46C7.53167 17.2675 7.6654 17.1177 8.0666 17.7595C8.64823 18.7079 9.25958 19.5874 9.75843 20.5977C10.2467 21.5936 10.8431 22.2497 11.8854 22.2901C12.31 22.302 15.2393 22.2259 14.2438 20.852C13.9742 20.2649 13.3968 19.7633 13.0381 19.238V19.2404Z" fill="#374D4A"/>
<path d="M72.651 38.9006C72.6298 38.7104 72.7168 38.4323 72.581 38.2873C72.4642 38.1566 72.3496 38.235 72.2137 38.2612C72.0503 38.2921 71.8826 38.2588 71.717 38.2493C70.8594 38.2089 69.9997 38.2445 69.1442 38.304C69.0784 36.9919 69.1082 35.6774 69.0424 34.3676C69.0105 33.7092 68.9914 33.0746 69.0466 32.4185C69.0721 32.0976 69.0997 31.7767 69.0975 31.4558C69.0933 31.2276 69.0275 31.2728 68.8449 31.2894C68.6751 31.3037 68.5074 31.3465 68.3355 31.3655C68.2102 31.3774 67.9024 31.2847 67.8324 31.4463C67.7496 31.6388 67.8112 31.8765 67.8175 32.0762C67.8281 32.718 67.86 33.3527 67.8557 33.9945C67.8515 35.0308 67.8621 36.0672 67.9024 37.1036C67.9258 37.6907 67.8388 38.2802 67.8685 38.8649C67.8791 39.0361 67.8876 39.2072 67.8939 39.3784C67.8961 39.4925 67.8366 39.5828 67.9534 39.6707C68.0723 39.8086 68.3801 39.7706 68.5286 39.7682C69.0699 39.7634 69.6091 39.7444 70.1525 39.7397C70.6302 39.7349 71.0866 39.8276 71.5578 39.8561C71.8571 39.8728 72.3135 40.0035 72.5725 39.7611C72.7911 39.5709 72.685 39.1621 72.6531 38.9006H72.651Z" fill="#374D4A"/>
<path d="M63.9458 38.9006C63.9246 38.7104 64.0137 38.4323 63.8758 38.2873C63.759 38.1566 63.6444 38.235 63.5085 38.2612C63.3451 38.2921 63.1774 38.2588 63.0118 38.2493C62.1542 38.2089 61.2945 38.2445 60.4391 38.304C60.3732 36.9919 60.403 35.6774 60.3372 34.3676C60.3053 33.7092 60.2862 33.0746 60.3414 32.4185C60.3669 32.0976 60.3945 31.7767 60.3902 31.4558C60.3881 31.2276 60.3202 31.2728 60.1397 31.2894C59.9678 31.3037 59.8001 31.3465 59.6303 31.3655C59.505 31.3774 59.1972 31.2847 59.1272 31.4463C59.0444 31.6388 59.106 31.8765 59.1102 32.0762C59.1208 32.718 59.1527 33.3527 59.1484 33.9945C59.1421 35.0308 59.1548 36.0672 59.1972 37.1036C59.2206 37.6907 59.1336 38.2802 59.1633 38.8649C59.1739 39.0361 59.1824 39.2072 59.1866 39.3784C59.1888 39.4925 59.1293 39.5828 59.2461 39.6707C59.3649 39.8086 59.6727 39.7706 59.8213 39.7682C60.3626 39.7634 60.9018 39.7444 61.4431 39.7397C61.9207 39.7349 62.3771 39.8276 62.8484 39.8561C63.1477 39.8728 63.6041 40.0035 63.863 39.7611C64.0817 39.5709 63.9755 39.1621 63.9437 38.9006H63.9458Z" fill="#374D4A"/>
<path d="M47.2906 31.5295C47.3054 31.2728 46.8384 31.3513 46.7089 31.3489C46.3502 31.3465 46.2101 31.3156 46.0488 31.7007C45.7452 32.4067 45.5138 33.1602 45.24 33.8804C44.8367 34.95 44.5968 36.129 43.9939 37.0893C43.9175 37.0252 43.8496 36.7756 43.8178 36.6876C43.6968 36.3929 43.5779 36.0958 43.4611 35.801C43.2085 35.1521 42.9687 34.4984 42.767 33.8281C42.5887 33.2339 42.3233 32.68 42.1302 32.0929C42.0665 31.9004 42.0474 31.5818 41.903 31.4368C41.7927 31.3109 41.5974 31.337 41.453 31.3323C41.2556 31.3251 41.0603 31.3204 40.865 31.2966C40.2813 31.2229 40.6252 31.7886 40.7759 32.0929C41.0412 32.6253 41.2025 33.2291 41.3915 33.802C41.608 34.4604 41.8903 35.0927 42.1302 35.744C42.3488 36.3477 42.6184 36.923 42.8922 37.4982C43.164 38.0687 43.372 38.6653 43.6246 39.2429C43.6946 39.4046 43.8687 39.9346 44.0555 39.88C44.3208 39.8776 44.3591 39.4616 44.4227 39.2596C45.0935 37.1725 45.7855 35.0641 46.7089 33.096C46.8469 32.7941 46.9361 32.4708 47.0719 32.1713C47.1759 32.0406 47.3691 31.7221 47.2927 31.5319C47.2969 31.4701 47.2991 31.5462 47.2927 31.5319L47.2906 31.5295Z" fill="#374D4A"/>
<path d="M55.2682 39.2214C55.2363 38.9956 55.2788 38.5368 55.179 38.3633C55.0941 38.2159 54.6865 38.2159 54.5443 38.2064C54.3766 38.1945 54.0964 38.2444 53.9372 38.1779C53.7631 38.1066 53.8459 37.8 53.8332 37.5623C53.7674 36.2264 53.7483 34.8952 53.7037 33.5594C53.6952 33.3383 53.5615 32.5943 53.8289 32.6062C54.2195 32.6204 54.6335 32.6822 55.0156 32.6609C55.2554 32.706 55.1684 31.8455 55.1642 31.6506C55.1472 31.1919 54.4955 31.3488 54.1962 31.3606C53.6782 31.3844 53.173 31.4129 52.6529 31.3868C52.3685 31.3678 52.0841 31.3535 51.7996 31.3345C51.5109 31.3155 51.2923 31.2679 51.2859 31.6459C51.2817 31.8978 51.2243 32.1926 51.2541 32.4398C51.1161 32.7345 51.6574 32.5896 51.7317 32.58C51.9885 32.5539 52.2454 32.542 52.5044 32.542C52.6699 32.5444 52.636 32.523 52.689 32.6347C52.7655 32.7963 52.6975 33.2242 52.6996 33.412C52.706 33.7448 52.7124 34.0752 52.7145 34.4103C52.7187 35.1116 52.6912 35.8056 52.6317 36.5021C52.5935 36.93 52.6169 37.365 52.5786 37.7928C52.5659 37.9354 52.5404 38.0781 52.5192 38.2207C52.5128 38.2706 52.2878 38.2254 52.2539 38.2207C51.9843 38.1803 51.5406 38.0353 51.2817 38.2017C51.114 38.3086 51.1691 38.475 51.1819 38.6462C51.2031 38.9053 51.1819 39.1691 51.1161 39.4139C50.9314 40.0747 52.6254 39.8156 52.9459 39.8014C53.1836 39.7943 53.415 39.7111 53.6528 39.7229C53.8884 39.7324 54.124 39.7776 54.3596 39.799C54.5868 39.818 55.1132 39.9416 55.2554 39.6659C55.317 39.547 55.2809 39.3616 55.2639 39.2309L55.2682 39.2214Z" fill="#374D4A"/>
<path d="M83.3859 39.811C83.3836 39.879 83.3814 39.8438 83.3859 39.811C83.3859 39.8211 83.3859 39.811 83.3859 39.811Z" fill="#374D4A"/>
<path d="M94.4559 35.5728C94.3901 35.461 94.0929 35.4801 93.974 35.4706C93.49 35.4349 93.0039 35.5015 92.5199 35.4825C92.106 35.4658 91.69 35.4967 91.276 35.4706C91.0064 35.4539 90.3569 35.2447 90.221 35.6417C90.1425 35.8723 90.2338 36.312 90.2295 36.5473C90.2189 36.9514 90.3781 37.125 90.7538 37.1059C91.4395 37.0727 92.1633 36.9633 92.8447 37.0465C92.8214 37.2604 92.4966 37.6455 92.3459 37.8072C91.9786 38.2136 91.3503 38.399 90.8472 38.4062C90.3123 38.4133 89.8326 38.2136 89.374 37.9165C88.8327 37.56 88.595 37.0988 88.4103 36.4333C88.2829 35.9674 88.1896 35.3161 88.353 34.8525C88.4761 34.5103 88.6035 34.168 88.7797 33.8518C89.0323 33.4002 89.3698 33.0056 89.7837 32.737C90.1276 32.5136 90.7283 32.535 91.1041 32.5777C91.6199 32.6324 92.1251 32.8059 92.5475 33.153C92.7471 33.317 92.8192 33.5785 92.9912 33.7686C93.1822 33.9754 93.3584 33.6783 93.4837 33.5381C93.7108 33.2861 94.1481 33.336 93.8955 32.8725C93.7257 32.3805 93.1653 32.0619 92.7662 31.8385C91.8895 31.3465 90.6456 31.1967 89.7116 31.5556C89.2637 31.7268 88.9346 31.7743 88.5674 32.1594C88.1577 32.5849 87.8181 32.9652 87.5846 33.5428C87.0645 34.8216 86.9966 36.5259 87.678 37.7715C87.9858 38.3348 88.4294 38.9719 88.9856 39.231C89.6075 39.521 90.2062 39.7088 90.8748 39.7919C91.9956 39.9322 93.1419 39.1264 93.7363 38.1162C94.0292 37.617 94.3264 37.0204 94.4092 36.4237C94.4177 36.3643 94.4495 35.7915 94.5302 35.7772C94.4516 35.7938 94.4983 35.6393 94.4538 35.568L94.4559 35.5728Z" fill="#374D4A"/>
<path d="M102.83 38.273C101.826 38.3134 100.824 38.311 99.82 38.311C99.5483 38.311 99.6268 38.1779 99.6226 37.9093C99.6205 37.674 99.6183 37.4363 99.6056 37.201C99.5865 36.7874 99.6247 36.3761 99.6205 35.9625C99.6205 35.8675 99.561 35.3089 99.6289 35.2233C99.6905 35.1496 100.037 35.2304 100.141 35.2376C100.741 35.2756 101.361 35.297 101.964 35.2994C102.113 35.297 102.382 35.3231 102.465 35.1401C102.546 34.9785 102.486 34.6932 102.495 34.5102C102.505 34.2416 102.548 33.8732 102.183 33.8945C101.62 33.9207 101.062 33.9706 100.497 33.9516C100.332 33.9469 100.164 33.9373 99.9962 33.9326C99.8603 33.9278 99.7223 33.9207 99.5844 33.9159C99.4464 33.9112 99.4888 33.7781 99.491 33.6426C99.4825 33.412 99.4846 33.1862 99.4697 32.9556C99.4464 32.5896 99.595 32.6442 99.8731 32.6656C100.374 32.706 100.877 32.6847 101.378 32.649C101.807 32.6181 102.255 32.7726 102.673 32.706C102.987 32.6609 102.951 31.9906 102.936 31.7077C102.909 31.2133 102.444 31.3797 102.119 31.3892C101.656 31.4035 101.196 31.4557 100.731 31.4581C100.213 31.4581 99.6905 31.4534 99.1726 31.4486C99.0452 31.4486 98.5527 31.3464 98.4721 31.4653C98.3893 31.5865 98.4699 31.9953 98.4593 32.1475C98.3829 33.4334 98.3829 34.7241 98.3468 36.0125C98.3341 36.6376 98.3383 37.2604 98.3468 37.8855C98.3511 38.147 98.2449 39.6421 98.4912 39.6802C98.7523 39.7135 99.0134 39.6398 99.2787 39.635C99.82 39.6303 100.351 39.7325 100.89 39.7444C101.285 39.7562 101.682 39.8157 102.076 39.818C102.265 39.818 102.522 39.742 102.703 39.7919C103.21 39.7586 102.96 39.3141 103.03 38.9005C103.055 38.6937 103.159 38.2516 102.836 38.2682L102.83 38.273Z" fill="#374D4A"/>
<path fill-rule="evenodd" clip-rule="evenodd" d="M6.89917 35.3684H33.4356V36.2336H6.89917V35.3684ZM111.387 35.3684H137.921V36.2336H111.387V35.3684Z" fill="#374D4A"/>
<path d="M83.3156 39.5612C82.9845 38.3157 82.4474 37.158 81.9295 36.0028C81.4137 34.85 80.9212 33.6686 80.52 32.4587C80.4223 32.1687 80.3268 31.8764 80.2228 31.5864C80.2101 31.4342 80.1464 31.2631 80.0636 31.1466C79.9957 31.0539 79.7643 31.1133 79.8386 31.2298C79.9129 31.351 79.6433 31.7765 79.5839 31.9144C79.2081 32.7915 78.8791 33.69 78.5522 34.5933C78.3251 35.2184 78.1107 35.8531 77.8517 36.4616C77.6288 36.9869 77.3996 37.5075 77.1958 38.0423C77.0047 38.5462 76.6587 39.0668 76.5611 39.6064C76.3934 39.749 76.629 39.9225 76.7415 39.9534C76.9368 40.001 77.1703 40.0105 77.3698 39.9891C77.8198 39.9415 77.9217 39.6563 78.1064 39.2213C78.1468 39.1286 78.2699 38.7079 78.3527 38.6556C78.3803 38.6366 78.5522 38.6912 78.5819 38.6936C78.8664 38.7126 79.1551 38.6746 79.4416 38.6793C80.0742 38.6888 80.7577 38.5961 81.3818 38.6936C81.6196 38.7292 81.6705 39.1666 81.7448 39.3996C81.8764 39.8179 81.9889 40.0152 82.371 39.9986C82.5939 39.9891 83.5979 40.0628 83.3199 39.5636C82.9463 38.154 83.3538 39.6278 83.3199 39.5636L83.3156 39.5612ZM81.1016 37.4267C80.9721 37.5217 80.6622 37.4576 80.4945 37.4576C80.2037 37.4576 79.915 37.4671 79.6263 37.4623C79.3482 37.4599 78.9449 37.5027 78.6711 37.3886C78.8366 37.0796 78.8918 36.7183 79.0595 36.4045C79.1975 36.1407 79.3355 35.8745 79.4586 35.6011C79.4586 35.6035 79.9362 34.522 79.8959 34.5029C80.0509 34.5861 80.227 35.2113 80.2886 35.3491C80.4372 35.6796 80.5794 36.0147 80.7153 36.3499C80.7938 36.5424 80.8681 36.7349 80.9339 36.9322C80.9742 37.0558 80.9933 37.3601 81.0995 37.429C81.0846 37.4385 81.0422 37.3934 81.0995 37.429L81.1016 37.4267Z" fill="#374D4A"/>
</svg>
