<?xml version="1.0" encoding="UTF-8"?>
<!DOCTYPE svg PUBLIC "-//W3C//DTD SVG 1.1//EN" "http://www.w3.org/Graphics/SVG/1.1/DTD/svg11.dtd">
<svg xmlns="http://www.w3.org/2000/svg" version="1.1" width="360px" height="62px" style="shape-rendering:geometricPrecision; text-rendering:geometricPrecision; image-rendering:optimizeQuality; fill-rule:evenodd; clip-rule:evenodd" xmlns:xlink="http://www.w3.org/1999/xlink">
<g><path style="opacity:0.833" fill="#499780" d="M 143.5,-0.5 C 146.833,-0.5 150.167,-0.5 153.5,-0.5C 158.524,2.05484 163.691,4.38818 169,6.5C 169.492,7.54896 169.326,8.54896 168.5,9.5C 166.483,10.5303 164.483,11.5303 162.5,12.5C 159.071,10.9642 155.404,10.2975 151.5,10.5C 147.278,10.5039 143.278,11.0039 139.5,12C 138.088,10.2085 136.255,9.04185 134,8.5C 133.82,6.51162 133.986,4.51162 134.5,2.5C 137.855,2.31036 140.855,1.31036 143.5,-0.5 Z M 144.5,1.5 C 145.978,1.23798 147.311,1.57131 148.5,2.5C 147.833,2.83333 147.167,3.16667 146.5,3.5C 145.287,3.25284 144.62,2.58617 144.5,1.5 Z M 150.5,1.5 C 152.179,1.89233 153.846,2.39233 155.5,3C 154.667,3.16667 153.833,3.33333 153,3.5C 151.624,3.31577 150.791,2.64911 150.5,1.5 Z"/></g>
<g><path style="opacity:0.877" fill="#499780" d="M 8.5,-0.5 C 11.8333,-0.5 15.1667,-0.5 18.5,-0.5C 23.5245,2.05484 28.6912,4.38818 34,6.5C 34.4922,7.54896 34.3256,8.54896 33.5,9.5C 32.0921,10.2432 30.7588,11.0766 29.5,12C 25.3698,11.0464 21.0364,10.5464 16.5,10.5C 12.7494,10.2767 9.24937,10.9434 6,12.5C 4.30578,10.5708 2.13911,9.57075 -0.5,9.5C -0.5,7.16667 -0.5,4.83333 -0.5,2.5C 2.85505,2.31036 5.85505,1.31036 8.5,-0.5 Z M 9.5,1.5 C 10.9778,1.23798 12.3112,1.57131 13.5,2.5C 12.8333,2.83333 12.1667,3.16667 11.5,3.5C 10.2867,3.25284 9.61998,2.58617 9.5,1.5 Z M 15.5,1.5 C 17.1789,1.89233 18.8455,2.39233 20.5,3C 19.6667,3.16667 18.8333,3.33333 18,3.5C 16.6244,3.31577 15.7911,2.64911 15.5,1.5 Z"/></g>
<g><path style="opacity:0.693" fill="#49977f" d="M 272.5,2.5 C 277.288,1.17211 282.454,0.505443 288,0.5C 293.167,0.833333 298.333,1.16667 303.5,1.5C 298.868,2.32831 294.202,2.82831 289.5,3C 292.513,4.67921 294.846,7.01254 296.5,10C 296.241,11.2613 295.574,12.2613 294.5,13C 294.957,13.414 295.291,13.914 295.5,14.5C 290.833,15.8333 286.167,15.8333 281.5,14.5C 283.658,12.9737 283.325,11.4737 280.5,10C 276.892,8.33854 273.225,8.00521 269.5,9C 268.643,8.31091 267.977,7.47758 267.5,6.5C 268.248,4.58414 268.248,2.58414 267.5,0.5C 269.514,0.391506 271.18,1.05817 272.5,2.5 Z M 272.5,2.5 C 276.846,2.33432 281.179,2.50098 285.5,3C 283.371,4.10328 281.037,4.60328 278.5,4.5C 276.048,4.46093 274.048,3.79426 272.5,2.5 Z M 270.5,5.5 C 271.289,5.78281 271.956,6.28281 272.5,7C 271.184,7.52811 270.517,7.02811 270.5,5.5 Z M 284.5,7.5 C 287.686,6.03028 290.686,6.53028 293.5,9C 290.177,9.93201 287.177,9.43201 284.5,7.5 Z"/></g>
<g><path style="opacity:0.757" fill="#49977f" d="M 0.5,24.5 C 3.83333,24.5 7.16667,24.5 10.5,24.5C 8.39131,29.2664 7.05798,34.2664 6.5,39.5C 5.16667,39.5 3.83333,39.5 2.5,39.5C 2.17667,35.3062 3.17667,31.4729 5.5,28C 3.86586,27.5065 2.19919,27.3398 0.5,27.5C 0.5,26.5 0.5,25.5 0.5,24.5 Z"/></g>
<g><path style="opacity:0.77" fill="#49977f" d="M 136.5,24.5 C 137.833,24.5 139.167,24.5 140.5,24.5C 140.5,28.5 140.5,32.5 140.5,36.5C 141.5,36.5 142.5,36.5 143.5,36.5C 143.5,37.5 143.5,38.5 143.5,39.5C 140.167,39.5 136.833,39.5 133.5,39.5C 133.5,38.5 133.5,37.5 133.5,36.5C 134.5,36.5 135.5,36.5 136.5,36.5C 136.662,34.4727 136.495,32.4727 136,30.5C 134.513,31.7414 133.68,31.2414 133.5,29C 134.008,27.1074 135.008,25.6074 136.5,24.5 Z"/></g>
<g><path style="opacity:0.859" fill="#499780" d="M 283.5,24.5 C 288.474,24.8078 291.141,27.4744 291.5,32.5C 289.839,40.0823 286.006,41.4156 280,36.5C 278.593,31.556 279.759,27.556 283.5,24.5 Z M 284.5,28.5 C 287.393,29.8923 288.06,32.059 286.5,35C 285.552,35.4828 284.552,35.6495 283.5,35.5C 283.298,33.0504 283.631,30.717 284.5,28.5 Z"/></g>
<g><path style="opacity:0.763" fill="#49977f" d="M 16.5,27.5 C 18.1667,27.5 19.8333,27.5 21.5,27.5C 21.4511,32.5388 22.1177,32.7055 23.5,28C 25.1341,27.5065 26.8008,27.3398 28.5,27.5C 28.5,31.5 28.5,35.5 28.5,39.5C 26.549,39.7733 25.049,39.1066 24,37.5C 23.6121,38.428 22.9454,39.0946 22,39.5C 20.3105,38.8505 18.4771,38.8505 16.5,39.5C 16.5,35.5 16.5,31.5 16.5,27.5 Z"/></g>
<g><path style="opacity:0.773" fill="#49977f" d="M 29.5,27.5 C 31.451,27.2267 32.951,27.8934 34,29.5C 35.049,27.8934 36.549,27.2267 38.5,27.5C 38.5,31.5 38.5,35.5 38.5,39.5C 37.1667,39.5 35.8333,39.5 34.5,39.5C 34.1667,35.5 33.8333,35.5 33.5,39.5C 32.1667,39.5 30.8333,39.5 29.5,39.5C 29.5,35.5 29.5,31.5 29.5,27.5 Z"/></g>
<g><path style="opacity:0.762" fill="#49977f" d="M 39.5,27.5 C 40.8333,27.5 42.1667,27.5 43.5,27.5C 43.8333,32.8333 44.1667,32.8333 44.5,27.5C 45.8333,27.5 47.1667,27.5 48.5,27.5C 48.5,31.5 48.5,35.5 48.5,39.5C 47.1667,39.5 45.8333,39.5 44.5,39.5C 44.1667,32.8333 43.8333,32.8333 43.5,39.5C 42.1667,39.5 40.8333,39.5 39.5,39.5C 39.5,35.5 39.5,31.5 39.5,27.5 Z"/></g>
<g><path style="opacity:0.729" fill="#49977f" d="M 148.5,27.5 C 149.833,27.5 151.167,27.5 152.5,27.5C 152.833,34.1667 153.167,34.1667 153.5,27.5C 154.833,27.5 156.167,27.5 157.5,27.5C 157.5,31.5 157.5,35.5 157.5,39.5C 156.167,39.5 154.833,39.5 153.5,39.5C 153.5,38.5 153.5,37.5 153.5,36.5C 152.022,36.762 150.689,36.4287 149.5,35.5C 148.607,32.9159 148.274,30.2492 148.5,27.5 Z"/></g>
<g><path style="opacity:0.742" fill="#49977f" d="M 159.5,27.5 C 163.471,26.7577 166.304,28.091 168,31.5C 169.35,27.4762 172.016,26.4762 176,28.5C 176.5,29.5 177,30.5 177.5,31.5C 175.653,32.8304 174.153,32.497 173,30.5C 171.244,32.2742 171.244,33.9409 173,35.5C 174.494,34.2528 175.994,34.2528 177.5,35.5C 174.286,40.7669 171.119,40.7669 168,35.5C 167.51,36.7932 167.343,38.1266 167.5,39.5C 164.552,39.7771 161.719,39.4438 159,38.5C 158.79,34.5889 158.957,30.9223 159.5,27.5 Z"/></g>
<g><path style="opacity:0.768" fill="#499780" d="M 297.5,27.5 C 299.766,27.1412 301.599,27.8078 303,29.5C 304.555,27.4848 306.389,27.1515 308.5,28.5C 304.524,31.5474 304.524,34.5474 308.5,37.5C 309.598,34.2473 310.264,30.9139 310.5,27.5C 314.144,27.7077 316.311,29.7077 317,33.5C 317.471,31.7536 318.138,30.087 319,28.5C 320.049,27.4829 321.216,27.3162 322.5,28C 323.648,31.7187 324.314,35.552 324.5,39.5C 323.167,39.5 321.833,39.5 320.5,39.5C 320.66,37.8008 320.494,36.1341 320,34.5C 317.735,40.9877 315.735,40.9877 314,34.5C 313.598,35.8721 313.098,37.2054 312.5,38.5C 307.962,40.5151 304.462,39.5151 302,35.5C 301.508,36.549 301.674,37.549 302.5,38.5C 300.955,39.4519 299.288,39.7852 297.5,39.5C 297.5,35.5 297.5,31.5 297.5,27.5 Z"/></g>
<g><path style="opacity:0.74" fill="#499681" d="M 271.5,24.5 C 277.023,24.5619 278.856,27.2286 277,32.5C 273.53,34.9699 274.03,35.9699 278.5,35.5C 278.5,36.8333 278.5,38.1667 278.5,39.5C 274.774,39.8226 271.107,39.4892 267.5,38.5C 270.098,36.0719 272.098,33.2386 273.5,30C 273.167,29.5 272.833,29 272.5,28.5C 271.065,30.4011 269.398,30.7345 267.5,29.5C 268.16,27.1853 269.493,25.5186 271.5,24.5 Z"/></g>
<g><path style="opacity:0.59" fill="#000000" d="M 153.5,47.5 C 152.167,47.5 150.833,47.5 149.5,47.5C 149.586,46.5041 149.252,45.6708 148.5,45C 150.5,44.3333 152.5,44.3333 154.5,45C 153.748,45.6708 153.414,46.5041 153.5,47.5 Z"/></g>
<g><path style="opacity:0.635" fill="#000000" d="M 149.5,47.5 C 149.34,49.1992 149.506,50.8659 150,52.5C 150.997,50.6769 152.164,49.0103 153.5,47.5C 154.931,47.8807 155.764,48.8807 156,50.5C 159.23,50.0037 162.397,49.6703 165.5,49.5C 165.833,57.5 166.167,57.5 166.5,49.5C 167.5,49.5 168.5,49.5 169.5,49.5C 169.527,57.3936 170.193,57.3936 171.5,49.5C 172.48,52.0865 172.813,54.7531 172.5,57.5C 166.209,56.9082 160.209,56.9082 154.5,57.5C 153.702,55.9223 153.202,54.2556 153,52.5C 151.959,54.5852 150.459,56.2519 148.5,57.5C 148.167,55.8333 147.833,54.1667 147.5,52.5C 147.556,50.3603 148.223,48.6936 149.5,47.5 Z M 149.5,47.5 C 150.833,47.5 152.167,47.5 153.5,47.5C 152.164,49.0103 150.997,50.6769 150,52.5C 149.506,50.8659 149.34,49.1992 149.5,47.5 Z M 158.5,51.5 C 160.852,52.5426 161.019,53.8759 159,55.5C 157.232,54.3181 157.065,52.9848 158.5,51.5 Z"/></g>
<g><path style="opacity:0.663" fill="#000000" d="M 199.5,47.5 C 204.104,46.3786 206.937,48.0453 208,52.5C 208.368,51.09 209.201,50.09 210.5,49.5C 211.806,50.9122 212.64,52.5789 213,54.5C 213.202,52.7444 213.702,51.0777 214.5,49.5C 215.386,50.325 215.719,51.325 215.5,52.5C 216.5,52.5 217.5,52.5 218.5,52.5C 218.281,51.325 218.614,50.325 219.5,49.5C 220.48,52.0865 220.813,54.7531 220.5,57.5C 217.482,57.6646 214.482,57.498 211.5,57C 210.126,53.5899 209.459,53.7566 209.5,57.5C 207.136,56.4706 204.803,56.4706 202.5,57.5C 200.229,56.7292 198.062,55.7292 196,54.5C 194.007,56.6349 191.507,57.6349 188.5,57.5C 188.719,58.675 188.386,59.675 187.5,60.5C 186.511,56.8927 186.177,53.226 186.5,49.5C 188.527,49.3379 190.527,49.5045 192.5,50C 193.617,51.8921 195.284,52.7254 197.5,52.5C 197.392,50.4862 198.058,48.8195 199.5,47.5 Z M 201.5,49.5 C 206.416,50.7466 206.749,52.7466 202.5,55.5C 199.529,53.6621 199.195,51.6621 201.5,49.5 Z M 189.5,51.5 C 191.332,52.1405 191.665,53.1405 190.5,54.5C 188.481,53.8671 188.147,52.8671 189.5,51.5 Z"/></g>
<g><path style="opacity:0.663" fill="#000000" d="M 47.5,61.5 C 46.8333,61.5 46.1667,61.5 45.5,61.5C 45.6602,59.8008 45.4935,58.1341 45,56.5C 44.5,57 44,57.5 43.5,58C 41.3435,58.0781 39.3435,58.2448 37.5,58.5C 36.7492,57.624 36.2492,56.624 36,55.5C 35.0922,57.4386 33.5922,58.4386 31.5,58.5C 31.4042,54.6893 30.7376,54.6893 29.5,58.5C 28.513,55.2317 28.1796,51.8984 28.5,48.5C 31.0495,48.5608 32.5495,49.8941 33,52.5C 34.1882,51.4366 34.6882,50.1033 34.5,48.5C 35.5,48.5 36.5,48.5 37.5,48.5C 37.281,49.675 37.6143,50.675 38.5,51.5C 41.9138,50.9464 45.2472,50.6131 48.5,50.5C 50.374,50.3898 51.874,51.0564 53,52.5C 53.3076,51.6919 53.8076,51.0253 54.5,50.5C 55.8313,51.1662 57.3313,51.1662 59,50.5C 60.3261,50.7549 61.3261,51.4216 62,52.5C 62.6891,51.6433 63.5224,50.9767 64.5,50.5C 65.8333,53.1667 65.8333,55.8333 64.5,58.5C 63.7492,57.624 63.2492,56.624 63,55.5C 61.8829,57.1243 60.3829,58.1243 58.5,58.5C 57.0445,57.6102 55.7112,57.6102 54.5,58.5C 53.7492,57.624 53.2492,56.624 53,55.5C 52.0718,58.0352 50.2385,59.0352 47.5,58.5C 47.5,59.5 47.5,60.5 47.5,61.5 Z M 40.5,52.5 C 43.5688,52.963 44.0688,54.2963 42,56.5C 40.8118,55.4366 40.3118,54.1033 40.5,52.5 Z M 48.5,52.5 C 50.4646,52.9483 50.7979,53.9483 49.5,55.5C 48.6143,54.675 48.281,53.675 48.5,52.5 Z M 57.5,52.5 C 58.5735,53.2506 58.7401,54.2506 58,55.5C 56.2716,54.6477 56.105,53.6477 57.5,52.5 Z"/></g>
<g><path style="opacity:0.645" fill="#000000" d="M 315.5,61.5 C 314.833,61.5 314.167,61.5 313.5,61.5C 313.66,59.8008 313.494,58.1341 313,56.5C 311.267,58.6015 309.267,58.9348 307,57.5C 304.524,61.3032 303.19,60.6366 303,55.5C 302.517,56.448 302.351,57.448 302.5,58.5C 300.876,58.6399 299.71,57.9733 299,56.5C 298.29,57.9733 297.124,58.6399 295.5,58.5C 296.051,55.1933 296.384,51.8599 296.5,48.5C 299.346,48.8087 300.846,50.4754 301,53.5C 301.154,50.4754 302.654,48.8087 305.5,48.5C 305.338,50.5273 305.505,52.5273 306,54.5C 306.027,51.8066 307.36,50.4733 310,50.5C 313.027,50.7748 316.194,50.9415 319.5,51C 320,51.5 320.5,52 321,52.5C 322.18,51.3159 323.68,50.6493 325.5,50.5C 327.32,50.6493 328.82,51.3159 330,52.5C 330.689,51.6433 331.522,50.9767 332.5,50.5C 333.833,53.1667 333.833,55.8333 332.5,58.5C 331.749,57.624 331.249,56.624 331,55.5C 329.883,57.1243 328.383,58.1243 326.5,58.5C 325.045,57.6102 323.711,57.6102 322.5,58.5C 321.749,57.624 321.249,56.624 321,55.5C 320.072,58.0352 318.238,59.0352 315.5,58.5C 315.5,59.5 315.5,60.5 315.5,61.5 Z M 308.5,52.5 C 311.569,52.963 312.069,54.2963 310,56.5C 308.812,55.4366 308.312,54.1033 308.5,52.5 Z M 316.5,52.5 C 318.465,52.9483 318.798,53.9483 317.5,55.5C 316.614,54.675 316.281,53.675 316.5,52.5 Z M 325.5,52.5 C 326.573,53.2506 326.74,54.2506 326,55.5C 324.272,54.6477 324.105,53.6477 325.5,52.5 Z"/></g>
<g><path style="opacity:0.699" fill="#000000" d="M 133.5,49.5 C 137.187,50.4029 140.854,50.7362 144.5,50.5C 143.119,52.6349 142.119,54.9682 141.5,57.5C 140.692,55.5767 140.192,53.5767 140,51.5C 139.889,55.9534 137.723,57.7867 133.5,57C 132.221,54.5024 132.221,52.0024 133.5,49.5 Z M 134.5,51.5 C 137.569,51.963 138.069,53.2963 136,55.5C 134.812,54.4366 134.312,53.1033 134.5,51.5 Z"/></g>
<g><path style="opacity:0.685" fill="#000000" d="M 173.5,49.5 C 177.399,50.3659 181.399,50.3659 185.5,49.5C 185.5,52.1667 185.5,54.8333 185.5,57.5C 181.678,56.4703 178.012,56.4703 174.5,57.5C 173.52,54.9135 173.187,52.2469 173.5,49.5 Z M 177.5,51.5 C 178.573,52.2506 178.74,53.2506 178,54.5C 176.272,53.6477 176.105,52.6477 177.5,51.5 Z M 181.5,51.5 C 183.852,52.5426 184.019,53.8759 182,55.5C 180.666,54.1221 180.499,52.7887 181.5,51.5 Z"/></g>
<g><path style="opacity:0.684" fill="#000000" d="M 1.5,50.5 C 5.22605,50.1774 8.89272,50.5108 12.5,51.5C 11.1189,53.6349 10.1189,55.9682 9.5,58.5C 8.69221,56.5767 8.19221,54.5767 8,52.5C 7.88927,56.9534 5.72261,58.7867 1.5,58C 0.221466,55.5024 0.221466,53.0024 1.5,50.5 Z M 2.5,52.5 C 5.56879,52.963 6.06879,54.2963 4,56.5C 2.81181,55.4366 2.31181,54.1033 2.5,52.5 Z"/></g>
<g><path style="opacity:0.667" fill="#000000" d="M 15.5,50.5 C 17.5,50.5 19.5,50.5 21.5,50.5C 21.5,52.1667 21.5,53.8333 21.5,55.5C 22.5,55.5 23.5,55.5 24.5,55.5C 24.719,56.675 24.3857,57.675 23.5,58.5C 22.5,57.1667 21.5,57.1667 20.5,58.5C 19.1667,50.5 17.8333,50.5 16.5,58.5C 15.52,55.9135 15.1866,53.2469 15.5,50.5 Z"/></g>
<g><path style="opacity:0.638" fill="#000000" d="M 268.5,50.5 C 272.226,50.1774 275.893,50.5108 279.5,51.5C 278.94,53.8537 278.273,56.187 277.5,58.5C 276.692,56.5767 276.192,54.5767 276,52.5C 275.889,56.9534 273.723,58.7867 269.5,58C 267.163,55.8063 266.83,53.3063 268.5,50.5 Z M 270.5,52.5 C 273.674,52.9522 274.007,53.9522 271.5,55.5C 270.614,54.675 270.281,53.675 270.5,52.5 Z"/></g>
<g><path style="opacity:0.653" fill="#000000" d="M 283.5,50.5 C 285.5,50.5 287.5,50.5 289.5,50.5C 289.5,52.1667 289.5,53.8333 289.5,55.5C 290.5,55.5 291.5,55.5 292.5,55.5C 292.5,56.5 292.5,57.5 292.5,58.5C 290.833,58.5 289.167,58.5 287.5,58.5C 287.114,50.6019 286.114,50.6019 284.5,58.5C 283.52,55.9135 283.187,53.2469 283.5,50.5 Z"/></g>
<g><path style="opacity:0.103" fill="#000000" d="M 181.5,58.5 C 182.675,58.281 183.675,58.6143 184.5,59.5C 182.948,60.7979 181.948,60.4646 181.5,58.5 Z"/></g>
<g><path style="opacity:0.004" fill="#000000" d="M 267.5,58.5 C 268.833,59.1667 268.833,59.1667 267.5,58.5 Z"/></g>
<g><path style="opacity:0.183" fill="#000000" d="M 336.5,58.5 C 338.337,58.6395 338.67,59.3061 337.5,60.5C 336.702,60.0431 336.369,59.3764 336.5,58.5 Z"/></g>
</svg>
