<svg width="12" height="12" viewBox="0 0 12 12" fill="none" xmlns="http://www.w3.org/2000/svg">
<path fill-rule="evenodd" clip-rule="evenodd" d="M11.2039 8.496L9.7479 7.04C9.3544 6.646 8.71541 6.646 8.32191 7.04L7.11441 8.2475C5.59941 7.614 4.38541 6.4 3.75191 4.885L4.9594 3.6775C5.3529 3.2835 5.3529 2.645 4.9594 2.2515L3.50341 0.7955C3.10941 0.4015 2.47091 0.4015 2.07691 0.7955L1.38491 1.4875C0.665405 2.2065 0.362405 3.238 0.557405 4.236C1.26591 7.866 4.13291 10.7335 7.76341 11.4425C8.7614 11.637 9.7929 11.3335 10.5119 10.6145L11.2039 9.9225C11.5979 9.5285 11.5979 8.89 11.2039 8.496Z" fill="#499780"/>
</svg>
