<svg width="33" height="33" viewBox="0 0 33 33" fill="none" xmlns="http://www.w3.org/2000/svg">
<path d="M18.4782 16.6975L26.8782 8.31085C27.1293 8.05977 27.2703 7.71925 27.2703 7.36418C27.2703 7.00911 27.1293 6.66858 26.8782 6.41751C26.6272 6.16644 26.2866 6.02539 25.9316 6.02539C25.5765 6.02539 25.236 6.16644 24.9849 6.41751L16.5982 14.8175L8.21156 6.41751C7.96049 6.16644 7.61996 6.02539 7.26489 6.02539C6.90982 6.02539 6.5693 6.16644 6.31823 6.41751C6.06715 6.66858 5.9261 7.00911 5.9261 7.36418C5.9261 7.71925 6.06715 8.05977 6.31823 8.31085L14.7182 16.6975L6.31823 25.0842C6.19325 25.2081 6.09406 25.3556 6.02637 25.5181C5.95868 25.6806 5.92383 25.8548 5.92383 26.0308C5.92383 26.2069 5.95868 26.3811 6.02637 26.5436C6.09406 26.7061 6.19325 26.8536 6.31823 26.9775C6.44218 27.1025 6.58964 27.2017 6.75212 27.2694C6.9146 27.3371 7.08888 27.3719 7.26489 27.3719C7.44091 27.3719 7.61518 27.3371 7.77766 27.2694C7.94014 27.2017 8.08761 27.1025 8.21156 26.9775L16.5982 18.5775L24.9849 26.9775C25.1088 27.1025 25.2563 27.2017 25.4188 27.2694C25.5813 27.3371 25.7555 27.3719 25.9316 27.3719C26.1076 27.3719 26.2819 27.3371 26.4443 27.2694C26.6068 27.2017 26.7543 27.1025 26.8782 26.9775C27.0032 26.8536 27.1024 26.7061 27.1701 26.5436C27.2378 26.3811 27.2726 26.2069 27.2726 26.0308C27.2726 25.8548 27.2378 25.6806 27.1701 25.5181C27.1024 25.3556 27.0032 25.2081 26.8782 25.0842L18.4782 16.6975Z" fill="white"/>
</svg>
