<svg width="121" height="121" viewBox="0 0 121 121" fill="none" xmlns="http://www.w3.org/2000/svg">
<path fill-rule="evenodd" clip-rule="evenodd" d="M35.5332 19.4888C35.5332 15.6375 38.8595 12.4648 43.0332 12.4648H44.1545C46.3107 12.4648 47.987 12.7687 49.3557 13.6237C50.7245 14.4749 51.5532 15.7197 52.322 17.0809C53.1933 18.6188 53.7184 20.5985 54.2165 22.4768C54.3658 23.0398 54.5126 23.5936 54.6657 24.1236C54.7452 24.4027 54.7589 24.6963 54.7056 24.9815C54.6523 25.2667 54.5336 25.5355 54.3588 25.767C54.184 25.9985 53.9578 26.1866 53.698 26.3159C53.4383 26.4452 53.1521 26.5123 52.862 26.5122H43.0332C38.8595 26.5122 35.5332 23.34 35.5332 19.4888ZM44.1582 16.2148H43.0332C40.6407 16.2148 39.2832 17.7225 39.2832 19.4888C39.2832 21.2588 40.6407 22.7622 43.0332 22.7622H50.2932C50.2195 22.5097 50.1447 22.2491 50.0696 21.9876C49.7055 20.7196 49.3355 19.4309 49.0557 18.9335C48.377 17.7335 47.9232 17.1484 47.3795 16.8072C46.832 16.4697 45.962 16.2148 44.1582 16.2148Z" fill="white"/>
<path fill-rule="evenodd" clip-rule="evenodd" d="M66.707 13.6237C68.0757 12.7687 69.752 12.4648 71.9082 12.4648H73.0332C77.2107 12.4648 80.5332 15.6375 80.5332 19.4888C80.5332 23.34 77.207 26.5122 73.0332 26.5122H63.2045C62.9151 26.5116 62.6297 26.4438 62.3708 26.3145C62.1119 26.1852 61.8865 25.998 61.7122 25.767C61.5378 25.536 61.4193 25.2677 61.3659 24.9833C61.3125 24.6989 61.3257 24.4058 61.4045 24.1273C61.5571 23.5976 61.7039 23.0443 61.853 22.482C62.3522 20.5998 62.8783 18.6162 63.7445 17.0773C64.517 15.7235 65.3382 14.4749 66.707 13.6237ZM73.0332 16.2148H71.9082C70.1007 16.2148 69.2345 16.4697 68.6907 16.8072C68.147 17.1484 67.6932 17.7335 67.0145 18.9335C66.7347 19.4309 66.3646 20.7196 66.0006 21.9876C65.9255 22.249 65.8507 22.5096 65.777 22.7622H73.0332C75.4295 22.7622 76.7832 21.2588 76.7832 19.4888C76.7832 17.7225 75.4295 16.2148 73.0332 16.2148Z" fill="white"/>
<path fill-rule="evenodd" clip-rule="evenodd" d="M28.0332 19.4888C28.0332 11.37 34.9445 4.96484 43.0332 4.96484H44.1582C50.5145 4.96484 55.2545 8.34724 58.0332 12.5472C60.8157 8.35099 65.5482 4.96484 71.9082 4.96484H73.0332C81.1219 4.96484 88.0332 11.37 88.0332 19.4888C88.0332 23.7957 86.0893 27.6203 83.0557 30.2622H103.723C106.805 30.2622 109.348 32.8047 109.348 35.8872V50.8872C109.348 53.3138 107.772 55.4057 105.598 56.1861V109.65C105.598 113.696 102.185 116.943 98.0978 116.943H19.3478C15.2603 116.943 11.8478 113.696 11.8478 109.65V56.1862C9.67337 55.4059 8.09766 53.3139 8.09766 50.8872V35.8872C8.09766 32.8047 10.6402 30.2622 13.7227 30.2622H33.0122C29.9782 27.6203 28.0332 23.7957 28.0332 19.4888ZM42.7241 34.0091C42.6883 34.0112 42.6524 34.0122 42.6164 34.0122H40.9581C40.9471 34.0274 40.9359 34.0425 40.9245 34.0574C39.582 35.8086 38.667 37.8373 38.0295 39.9973L38.5432 39.5286C38.7377 39.3502 38.9678 39.2146 39.2182 39.1312C39.4687 39.0479 39.7339 39.0185 39.9965 39.0447C40.2592 39.0709 40.5134 39.152 40.7424 39.2832C40.9715 39.4144 41.1702 39.5927 41.3257 39.806L41.847 40.5224C42.7079 37.9616 44.2379 35.7112 46.2387 34.0122H43.0332C42.93 34.0122 42.8269 34.0112 42.7241 34.0091ZM69.7832 34.0122C71.9036 35.8243 73.489 38.2633 74.307 41.036L75.2145 40.0234C75.3799 39.8394 75.5801 39.6898 75.8036 39.5835C76.027 39.4772 76.2693 39.4163 76.5165 39.4041C76.7637 39.3919 77.0108 39.4288 77.2436 39.5125C77.4765 39.5963 77.6905 39.7252 77.8732 39.892L77.9332 39.9447C77.2915 37.7959 76.3929 35.7627 75.0801 34.0122H73.0638C73.0536 34.0122 73.0434 34.0122 73.0332 34.0122H69.7832ZM73.06 30.2622H72.9014C72.8978 30.2622 72.8943 30.2622 72.8907 30.2622H43.0332C36.917 30.2622 31.7832 25.4738 31.7832 19.4888C31.7832 13.5075 36.917 8.71484 43.0332 8.71484H44.1582C49.637 8.71484 53.552 11.6512 55.5807 15.2325C55.7587 15.5489 55.9303 15.927 56.1291 16.3652C56.1943 16.5087 56.2623 16.6586 56.3345 16.815C56.485 17.1392 56.725 17.4132 57.0263 17.6055C57.3276 17.7978 57.6776 17.9003 58.0351 17.9003C58.3925 17.9003 58.7425 17.7978 59.0438 17.6055C59.3451 17.4132 59.5852 17.1392 59.7357 16.815C59.8116 16.6506 59.8829 16.4933 59.951 16.3431C60.1454 15.9143 60.3135 15.5435 60.4857 15.2325C62.5182 11.6475 66.4257 8.71484 71.9082 8.71484H73.0332C79.1532 8.71484 84.2832 13.5075 84.2832 19.4888C84.2832 25.465 79.1681 30.2483 73.06 30.2622ZM33.4395 45.0373C33.4374 41.1446 34.4805 37.34 36.4368 34.0122H13.7227C12.6502 34.0122 11.8477 34.8147 11.8477 35.8872V50.8872C11.8415 51.1351 11.8858 51.382 11.9778 51.6123C12.0698 51.8426 12.2077 52.0517 12.3831 52.2271C12.5584 52.4024 12.7676 52.5402 12.9979 52.6322C13.2282 52.7242 13.4747 52.7684 13.7227 52.7622H53.0977V34.6559C52.454 34.7864 51.8224 34.9772 51.2115 35.227C49.9208 35.7546 48.7482 36.5339 47.7622 37.5199C46.7762 38.5059 45.9966 39.6784 45.4691 40.9692C44.9415 42.2599 44.6764 43.643 44.6895 45.0373C44.6893 45.4335 44.5636 45.8193 44.3305 46.1396C44.0975 46.4599 43.7689 46.6983 43.392 46.8203C43.0151 46.9423 42.6092 46.9418 42.2326 46.8189C41.856 46.696 41.528 46.4568 41.2957 46.1359L39.5332 43.7134L36.582 46.4133C36.3141 46.6591 35.9806 46.8215 35.622 46.8812C35.2634 46.9408 34.8952 46.8952 34.5623 46.7493C34.2293 46.6035 33.9459 46.3639 33.7465 46.0599C33.5472 45.756 33.4405 45.4008 33.4395 45.0373ZM82.6132 45.0336C82.6132 41.0263 81.5156 37.253 79.6098 34.0122H103.723C104.795 34.0122 105.598 34.8147 105.598 35.8872V50.8872C105.598 51.9597 104.795 52.7622 103.723 52.7622H64.3477V35.0336C64.5157 35.0925 64.6824 35.1558 64.8476 35.2233C66.1379 35.751 67.31 36.5306 68.2954 37.5167C69.2808 38.5028 70.0596 39.6753 70.5864 40.9659C71.1131 42.2566 71.3772 43.6397 71.3632 45.0336C71.3641 45.4122 71.4796 45.7812 71.6944 46.0929C71.9093 46.4046 72.2134 46.644 72.5669 46.7795C72.9203 46.9151 73.3065 46.9405 73.6747 46.8523C74.0428 46.7642 74.3757 46.567 74.6295 46.2861L76.7482 43.9345L79.4782 46.417C79.7468 46.6607 80.0803 46.8213 80.4383 46.8793C80.7964 46.9373 81.1635 46.8903 81.4953 46.7438C81.8271 46.5974 82.1094 46.3581 82.3078 46.0544C82.5062 45.7508 82.6123 45.3963 82.6132 45.0336ZM60.5977 34.4343C60.5166 34.4264 60.4365 34.4132 60.3578 34.395H56.8477V113.193H60.5977V34.4343ZM53.0977 56.5122H15.5978V109.65C15.5978 111.603 17.2028 113.193 19.3478 113.193H53.0977V56.5122ZM64.3477 113.193H98.0978C100.243 113.193 101.848 111.603 101.848 109.65V56.5122H64.3477V113.193Z" fill="white"/>
</svg>
