<svg width="24" height="25" viewBox="0 0 24 25" fill="none" xmlns="http://www.w3.org/2000/svg">
<g clip-path="url(#clip0_1412_12748)">
<path d="M12.003 0.697266H11.997C5.38052 0.697266 1.57454e-05 6.07927 1.57454e-05 12.6973C-0.0040929 15.2248 0.795989 17.6881 2.28452 19.7308L0.789016 24.1888L5.40152 22.7143C7.35807 24.0123 9.65503 24.7023 12.003 24.6973C18.6195 24.6973 24 19.3138 24 12.6973C24 6.08077 18.6195 0.697266 12.003 0.697266ZM18.9855 17.6428C18.696 18.4603 17.547 19.1383 16.6305 19.3363C16.0035 19.4698 15.1845 19.5763 12.4275 18.4333C8.90102 16.9723 6.63002 13.3888 6.45302 13.1563C6.28352 12.9238 5.02802 11.2588 5.02802 9.53677C5.02802 7.81477 5.90252 6.97627 6.25502 6.61627C6.54452 6.32077 7.02302 6.18577 7.48202 6.18577C7.63052 6.18577 7.76402 6.19327 7.88402 6.19927C8.23652 6.21427 8.41352 6.23527 8.64602 6.79177C8.93552 7.48927 9.64052 9.21127 9.72452 9.38827C9.81002 9.56527 9.89552 9.80527 9.77552 10.0378C9.66302 10.2778 9.56402 10.3843 9.38702 10.5883C9.21002 10.7923 9.04202 10.9483 8.86502 11.1673C8.70302 11.3578 8.52002 11.5618 8.72402 11.9143C8.92802 12.2593 9.63302 13.4098 10.671 14.3338C12.0105 15.5263 13.0965 15.9073 13.485 16.0693C13.7745 16.1893 14.1195 16.1608 14.331 15.9358C14.5995 15.6463 14.931 15.1663 15.2685 14.6938C15.5085 14.3548 15.8115 14.3128 16.1295 14.4328C16.4535 14.5453 18.168 15.3928 18.5205 15.5683C18.873 15.7453 19.1055 15.8293 19.191 15.9778C19.275 16.1263 19.275 16.8238 18.9855 17.6428Z" fill="white"/>
</g>
<defs>
<clipPath id="clip0_1412_12748">
<rect width="24" height="24" fill="white" transform="translate(0 0.697266)"/>
</clipPath>
</defs>
</svg>
