<svg width="554" height="210" viewBox="0 0 554 210" fill="none" xmlns="http://www.w3.org/2000/svg">
<path d="M553.394 294.997C552.56 288.152 546.319 306.826 510.517 279.44C529.975 283.537 538.411 277.154 543.405 273.575C532.632 276.536 529.198 272.333 529.198 272.333C529.198 272.333 550.273 265.019 548.556 258.956C546.839 252.892 546.055 266.269 522.95 258.956C499.845 251.642 498.911 238.571 498.911 238.571C498.911 238.571 502.659 237.484 502.965 234.524C512.883 239.117 525.372 236.391 529.747 233.437C518.896 234.147 513.36 229.468 513.36 229.468C513.36 229.468 519.601 225.265 522.102 220.444C517.336 223.014 501.441 218.313 489.913 199.675C503.029 199.05 508.131 193.242 502.509 189.302C509.584 190.232 517.471 184.736 516.759 182.975C509.89 184.942 500.728 183.905 498.441 181.108C496.154 178.31 490.604 171.458 490.604 171.458C490.604 171.458 495.185 173.226 497.942 172.083C500.7 170.94 500.856 169.243 502.68 169.854C504.504 170.464 505.751 169.279 504.554 167.156C503.357 165.033 502.573 163.939 499.716 162.746C496.859 161.554 492.898 158.486 491.388 152.011C489.877 145.535 487.59 145.62 487.59 145.62C487.59 145.62 488.032 114.01 481.085 113.307C474.139 112.604 478.506 130.575 472.415 137.576C466.323 144.577 465.468 146.295 459.54 146.522C453.613 146.749 455.558 153.14 461.101 154.226C458.172 155.859 450.485 154.538 450.485 154.538C452.129 156.027 454.051 157.177 456.142 157.925C459.184 158.855 464.335 158.635 464.335 158.635C464.335 158.635 463.324 163.882 467.306 165.402C466.836 167.965 455.985 172.502 455.985 172.502C455.985 172.502 463.21 167.333 460.666 165.118C458.122 162.903 456.334 165.075 452.9 165.736C449.466 166.396 448.661 166.112 442.106 164.869C435.551 163.627 432.488 162.2 426.71 158.479C420.932 154.759 415.353 147.786 415.353 147.786L420.782 147.864L416.956 143.895C416.956 143.895 426.517 144.442 432.295 143.661C438.074 142.88 441.771 140.586 440.831 137.746C439.89 134.906 437.632 135.027 434.511 134.324C431.391 133.621 430.372 131.484 427.094 130.227C423.817 128.97 421.68 130.433 419.257 127.792C416.835 125.15 405.051 119.179 401.766 113.009C408.485 114.67 415.403 110.985 415.039 108.393C414.676 105.802 412.332 107.825 409.625 107.563C406.917 107.3 406.062 103.934 406.062 103.934C406.062 103.934 410.957 105.539 415.588 104.14C420.219 102.742 421.288 97.9702 420.896 97.0898C420.504 96.2093 418.922 96.4649 415.745 96.7773C412.567 97.0898 408.62 95.5845 408.093 92.574C407.566 89.5634 404.402 85.6795 401.332 84.6429C402.162 84.4464 402.911 84.0004 403.478 83.3654C404.045 82.7304 404.403 81.937 404.502 81.0927C405.154 81.9849 406.052 82.6701 407.086 83.0656C408.12 83.4612 409.246 83.5503 410.33 83.3222C414.078 82.4915 413.037 77.642 410.85 75.7462C408.663 73.8504 406.483 72.0114 404.922 66.4164C403.362 60.8213 400.861 58.5279 400.861 54.6938C400.861 50.8596 397.534 35.5229 394.093 35.814C390.652 36.1051 391.806 42.3463 391.699 43.9013C391.592 45.4562 389.205 48.8715 388.999 53.8417C388.792 58.8119 380.984 70.8825 379.209 74.3758C377.435 77.8692 366.934 76.5556 366.307 83.8193C365.68 91.0829 375.049 84.0252 375.049 87.0357C375.049 90.0462 370.061 92.716 364.119 93.8804C358.177 95.0449 361.099 96.1596 356.418 97.5087C351.737 98.8577 349.656 103.317 349.549 105.319C344.918 104.609 342.475 102.777 342.475 102.777C342.749 103.751 343.236 104.653 343.9 105.418C340.337 105.788 339.625 104.801 339.625 104.801C339.625 104.801 340.872 108.635 347.59 108.947C354.309 109.26 356.432 111.787 361.74 111.177C357.579 113.044 355.235 116.523 352.064 116.857C348.894 117.191 341.342 118.107 337.594 122.047C333.847 125.988 332.55 123.602 332.607 126.556C332.664 129.51 334.588 128.061 336.169 128.686C337.751 129.311 341.32 131.122 346.144 131.327C350.967 131.533 352.805 130.085 352.805 130.085C352.805 130.085 352.649 134.494 355.356 135.481C354.059 139.031 352.235 139.422 350.048 139.521C347.861 139.621 346.044 140.87 346.144 142.795C346.244 144.719 347.968 145.855 351.665 145.855C355.363 145.855 362.174 144.506 362.174 144.506C362.174 144.506 352.991 157.883 336.205 162.967L333.811 161.887C333.811 161.887 336.07 159.757 335.991 157.627C343.721 157.009 348.716 153.892 347.939 151.173C347.163 148.453 341.299 152.728 332.094 143.363C322.889 133.997 321.478 130.369 320.459 128.118C319.791 126.729 318.62 125.643 317.182 125.079C319.968 124.744 322.733 124.246 325.461 123.588C329.023 122.658 329.736 119.931 328.432 118.298C327.128 116.665 326.088 116.822 324.684 116.822C323.281 116.822 321.443 114.876 319.647 114.691C317.852 114.507 317.189 113.371 317.225 111.851C317.26 110.332 316.056 109.402 315.629 109.437C315.201 109.473 317.054 106.363 315.273 105.12C313.491 103.878 313.406 103.7 313.441 103.097C313.477 102.493 315.9 100.768 315.351 98.9003C314.802 97.0329 315.978 97.1111 315.629 95.1656C315.28 93.2201 314.916 92.5598 315.045 90.1954C315.173 87.8309 313.869 86.8937 313.947 84.8275C314.026 82.7613 314.61 74.4468 312.579 74.177C310.549 73.9072 309.772 76.8254 309.658 79.7792C309.544 82.7329 306.922 89.0096 305.754 91.1752C304.586 93.3408 304.151 95.7265 304.429 96.898C304.707 98.0696 302.861 99.6956 303.061 101.158C303.26 102.621 304.194 102.869 304.194 104.424C304.194 105.979 301.265 108.393 298.259 108.94C295.252 109.487 293.728 108.315 292.559 109.601C291.391 110.886 292.124 113.57 294.59 114.699C297.055 115.827 298.565 117.07 300.517 116.758C294.896 121.387 289.047 123.254 286.197 121.934C283.347 120.613 284.059 122.204 281.922 121.735C279.785 121.266 275.951 120.315 275.951 120.315C275.951 120.315 281.103 126.187 285.477 127.351C282.471 129.183 274.933 129.417 274.933 129.417C274.933 129.417 280.362 130.894 281.886 132.137C283.411 133.379 296.093 132.172 296.093 132.172C294.652 134.007 292.832 135.511 290.757 136.582C287.059 138.605 283.732 140.316 281.074 141.46C278.417 142.603 274.313 143.533 270.458 144.775C266.604 146.018 265.514 143.739 264.16 143.533C262.806 143.327 262.293 144.243 260.99 143.377C259.686 142.51 254.898 142.759 252.504 141.353C254.221 146.906 263.59 154.169 270.978 155.511C278.367 156.853 282.741 155.461 282.741 155.461C282.741 155.461 286.019 158.728 289.716 158.522C280.255 166.857 275.26 169.698 266.597 170.656C269.447 165.913 270.736 164.202 270.344 163.499C269.952 162.796 256.294 169.648 250.516 169.719C244.738 169.79 237.948 169.414 230.923 166.609C223.898 163.804 212.186 161.554 209.378 156.967C223.036 161.71 230.688 158.131 236.31 158.131C241.931 158.131 248.721 153.871 248.721 153.871C244.769 153.291 240.773 153.053 236.78 153.161C233.111 146.622 224.597 145.145 215.855 140.87C233.503 148.255 242.166 142.816 242.166 142.816C242.166 142.816 234.122 138.456 232.484 133.159C241.226 133.394 252.86 122.58 252.86 122.58C252.86 122.58 222.417 118.043 206.179 103.516C219.446 104.14 235.839 99.0068 235.839 90.451C235.839 81.8951 235.22 89.2013 221.79 87.341C208.36 85.4807 203.365 82.669 203.365 82.669C203.365 82.669 215.698 82.3566 211.487 75.0433C226.449 78.5934 235.063 76.6053 243.335 69.1358C226.321 71.0032 216.973 66.0188 216.973 66.0188C216.973 66.0188 227.119 65.8697 231.337 60.1113C224.469 59.0178 220.094 58.4001 210.411 57.6191C200.729 56.8381 200.066 54.1967 200.066 54.1967C200.066 54.1967 210.319 50.8241 209.799 46.784C209.279 42.7439 202.724 46.358 192.7 35.7785C201.342 40.8694 205.816 37.9654 205.816 37.9654C202.875 35.0403 200.095 31.959 197.487 28.735C194.68 25.0002 191.659 22.0962 190.619 17.4242C189.579 12.7522 191.766 10.5795 189.686 8.19377C187.605 5.80806 189.835 0 186.921 0C184.007 0 185.881 2.69812 184.007 7.15712C182.134 11.6161 180.573 13.7959 180.68 18.4608C180.787 23.1257 169.017 37.0282 165.063 48.126C169.19 46.6497 172.829 44.0675 175.579 40.6635C175.579 40.6635 171.881 49.7874 170.321 53.0536C168.761 56.3197 165.946 57.6191 164.336 60.729C162.726 63.839 161.265 63.5692 158.401 64.7762C155.537 65.9833 155.074 67.3181 154.967 68.6672C154.86 70.0162 155.751 71.983 159.598 72.2173C153.613 75.2776 144.145 79.481 140.967 81.2418C137.79 83.0027 139.984 85.5446 142.841 86.3257C145.698 87.1067 150.13 88.2925 155.388 87.0357C158.196 86.4393 160.91 85.4622 163.453 84.1317C162.286 85.606 161.356 87.2515 160.695 89.0096C159.705 91.7574 133.479 104.41 122.856 105.603C131.498 109.338 159.392 104.517 166.73 99.3264C156.684 116.545 146.852 117.943 139.044 120.904C131.235 123.865 125.927 122.324 124.21 124.454C122.493 126.584 122.03 137.057 146.225 137.235C142.663 142.83 135.139 141.119 133.109 144.236C131.078 147.353 132.646 152.323 139.521 153.104C146.396 153.885 143.268 157.3 143.268 157.3C141.053 160.687 138.794 164.692 136.97 165.459C135.146 166.226 130.843 163.073 128.235 162.37C125.628 161.667 119.999 161.042 117.042 156.548C123.234 156.69 128.727 153.395 127.73 150.797C126.732 148.198 119.985 148.269 116.18 144.903C112.376 141.538 108.65 139.571 106.534 135.076C111.464 136.553 117.099 132.201 115.475 129.673C113.851 127.145 108.792 128.906 102.522 122.729C110.267 124.199 115.055 119.292 114.143 117.255C113.231 115.217 102.743 116.275 97.4567 106.874C101.304 108.251 107.26 107.364 107.31 106.008C107.36 104.652 102.287 103.878 98.7605 97.6791C95.2338 91.4805 97.072 87.7386 94.3931 84.9553C93.7377 83.2725 93.5025 63.0153 92.6119 63.065C91.7214 63.1147 89.7977 72.9345 89.9829 75.9734C90.1682 79.0123 90.9234 81.7247 89.6053 84.2098C88.5754 86.276 88.1414 88.5865 88.3514 90.8841C88.4013 92.8935 86.214 94.0153 85.8649 95.5135C85.5157 97.0117 80.8776 98.0412 80.9845 99.1204C81.0913 100.2 84.1763 100.846 85.1168 101.407C86.0572 101.968 78.7046 106.32 74.0878 106.696C69.471 107.073 70.7962 108.521 69.3427 108.429C67.8893 108.337 67.5117 107.584 67.2766 107.96C67.0415 108.337 66.9488 111.141 69.7631 110.999C72.5773 110.857 72.6771 113.058 74.9285 113.293C76.4606 113.425 78.0021 113.409 79.531 113.243C79.531 113.243 77.7 116.147 75.9687 116.616C74.2374 117.084 71.2735 116.708 70.8033 118.107C70.3331 119.505 72.5417 121.572 75.356 121.657C77.1115 121.699 78.8605 121.43 80.5213 120.862C80.5213 120.862 75.6409 125.257 71.9361 125.59C68.2313 125.924 62.731 125.725 61.7478 126.897C60.7646 128.068 61.5127 129.737 65.9229 131.015C70.3331 132.293 70.4755 133.82 70.4755 133.82C70.4755 133.82 65.8801 134.239 65.5524 135.133C65.2247 136.028 66.2649 138.122 70.3402 138.215C74.4155 138.307 76.2537 137.05 76.2537 137.05C76.2537 137.05 71.2664 140.231 68.3168 142.425C65.3672 144.619 59.2114 144.25 57.5229 145.606C55.8343 146.962 52.5356 146.593 50.9967 146.728C49.4577 146.863 47.0995 148.979 50.2842 151.407C53.4689 153.835 61.0354 154.077 61.0354 154.077C61.0354 154.077 56.903 158.756 61.9758 160.467C61.0852 164.074 50.8043 168.469 49.4862 168.704C48.1682 168.938 45.361 168.611 43.8577 169.541C42.3544 170.472 41.7203 173.567 46.159 174.973C50.5977 176.379 53.6185 180.49 59.9096 179.879C57.0954 182.365 46.9997 186.618 46.9997 186.618C46.9997 186.618 36.9539 180.632 32.2587 173.837C27.5636 167.042 22.9967 160.737 20.2465 158.117C30.9335 160.957 38.9274 160.829 44.0928 160.084C49.2582 159.338 52.443 158.273 52.443 157.35C52.443 156.427 41.5565 154.751 39.9605 154.006C44.043 151.755 43.3875 148.901 43.3875 148.901C43.3875 148.901 35.5005 151.031 27.3356 143.476C19.1707 135.921 9.38139 124.461 6.06841 114.216C13.6096 122.607 22.9277 129.223 33.3488 133.585C38.557 135.715 49.6929 137.341 56.7249 133.791C49.1783 131.296 42.1086 127.549 35.814 122.708C35.814 122.708 47.9901 117.737 45.8811 109.025C37.4313 108.954 27.4353 105.731 21.5147 100.675C15.5941 95.62 14.7605 95.904 14.7605 95.904C14.7605 95.904 25.1768 89.3788 22.2201 82.6406C21.586 81.3057 15.302 82.7116 10.6068 79.7153C5.91167 76.7189 5.02107 76.8752 2.99767 74.3829C7.17986 75.3202 14.504 73.3108 13.5137 69.2849C12.5234 65.259 6.65974 64.7975 3.8455 60.5373C4.92845 58.8545 4.9712 57.6404 4.26585 56.6108C6.56713 55.5813 7.69283 51.7471 7.32235 49.4537C6.95187 47.1603 4.08062 41.6434 1.16662 38.1784C-1.74738 34.7135 -2.6807 15.1166 -4.04152 15.2089C-5.40233 15.3012 -4.04152 19.9377 -5.46646 22.4583C-6.8914 24.9789 -7.34737 28.5433 -7.60386 31.7739C-7.86035 35.0046 -8.87206 38.647 -10.7031 40.7061C-12.5341 42.7652 -14.6003 44.5403 -14.8782 46.0882C-15.156 47.636 -19.6232 48.1402 -19.666 49.9223C-19.6073 51.7482 -18.8916 53.4922 -17.6497 54.8358C-16.6665 55.7659 -14.3652 55.8156 -14.3652 55.8156C-16.3177 58.4367 -18.8999 60.5267 -21.8746 61.8935C-26.6125 63.9526 -28.6359 66.246 -28.8212 67.6944C-29.0064 69.1429 -27.6029 71.0671 -24.8314 71.628C-22.0599 72.1889 -21.8247 73.7581 -19.7158 73.9214C-17.6069 74.0847 -17.5784 71.7913 -16.0039 71.7913C-14.4293 71.7913 -13.3321 71.9333 -13.2822 72.4517C-13.2324 72.97 -17.9347 74.8374 -18.5403 77.0313C-19.1459 79.2253 -22.9504 79.7437 -25.3443 80.4963C-27.7382 81.2489 -31.1652 80.6809 -31.8278 81.9164C-32.4904 83.1518 -37.7413 86.1269 -37.8838 87.7173C-38.0263 89.3078 -32.7184 89.2581 -31.4716 90.522C-30.2247 91.7858 -22.5087 93.9372 -21.1906 93.9869C-19.8726 94.0366 -19.8797 94.4058 -19.8797 94.6401C-19.8797 94.8744 -23.8695 93.9301 -25.8858 96.188C-27.9021 98.4459 -27.6242 100.448 -31.5856 99.7879C-35.5469 99.1275 -36.3733 103.111 -42.3367 103.906C-48.3001 104.701 -72.4385 102.429 -79.2212 93.4473C-76.0578 99.9725 -71.5479 103.97 -70.4935 106.64C-69.439 109.309 -64.9718 108.635 -62.0151 110.992C-59.0583 113.349 -53.7789 118.575 -51.3851 117.865C-53.0736 119.69 -64.5515 121.934 -70.3937 118.987C-67.6507 122.921 -60.3265 124.185 -58.353 125.583C-56.3795 126.982 -49.0909 128.324 -45.4716 127.202C-41.8522 126.08 -34.8344 126.009 -34.8344 126.009C-34.5136 126.406 -34.0808 126.698 -33.5919 126.848C-33.1029 126.997 -32.5803 126.997 -32.0914 126.847C-32.868 128.601 -39.0593 131.342 -42.6502 134.849C-46.241 138.357 -68.2136 149.298 -75.1103 148.532C-73.1367 151.826 -65.6059 155.263 -59.8349 155.76C-54.0639 156.257 -44.4812 155.334 -44.4812 155.334C-44.4812 155.334 -44.2746 159.686 -51.7342 161.44C-45.8919 164.947 -32.7255 163.613 -32.7255 163.613C-32.7255 163.613 -37.0929 164.742 -42.6502 171.054C-48.2074 177.366 -61.4095 178.424 -64.409 181.505C-67.4085 184.587 -76.7276 188.102 -80.0833 188.102C-83.439 188.102 -93.036 189.65 -95.152 188.315C-97.268 186.98 -100.852 189.578 -95.4299 195.614C-90.008 201.649 -87.4716 202.487 -82.1922 202.487C-76.9128 202.487 -64.6655 201.777 -64.6655 201.777C-64.6655 201.777 -81.4868 211.675 -81.9856 213.137C-82.4843 214.6 -80.7886 218.47 -73.8848 217.98C-66.981 217.49 -52.3398 213.769 -47.4807 209.069C-47.9723 213.137 -45.3433 214.195 -43.4695 214.266C-41.5957 214.337 -36.0029 212.442 -30.2319 207.038C-33.1886 212.008 -45.6283 227.153 -57.3627 233.309C-69.097 239.465 -82.0497 240.893 -83.0115 243.697C-83.9734 246.502 -83.4818 250.712 -74.6614 251.273C-65.841 251.834 -59.5428 252.303 -59.5428 252.303C-59.5428 252.303 -74.1912 268.3 -83.667 273.724C-93.1428 279.149 -104.044 280.186 -107.421 279.341C-110.798 278.496 -112.116 282.706 -107.984 285.021C-103.851 287.336 -100.944 287.733 -99.6263 288.671C-98.3082 289.608 -92.2166 288.578 -88.2695 289.792C-84.3225 291.007 -70.9993 286.952 -70.9993 286.952C-71.3632 287.606 -71.5051 288.36 -71.4036 289.101C-71.3022 289.842 -70.9629 290.53 -70.4365 291.063C-78.3164 295.835 -79.2568 302.012 -82.8263 303.51C-86.3958 305.008 -101.821 309.723 -105.226 314.615H529.227C529.227 314.615 554.227 301.842 553.394 294.997ZM26.4877 218.42C24.6529 216.62 23.3809 214.329 22.8257 211.824L32.4012 216.872C32.4012 216.872 29.1666 217.575 26.4877 218.42ZM40.1458 205.909L48.0328 206.47L44.5132 210.255L40.1458 205.909ZM57.188 244.776C53.0121 242.965 49.3736 240.114 46.6221 236.497C54.3738 239.444 65.9158 237.917 65.9158 237.917L57.188 244.776ZM239.965 194.982L238.276 190.487L242.501 185.858L247.994 191.474L239.965 194.982ZM343.892 200.456L338.82 195.401H347.27L343.892 200.456ZM351.352 186.738L343.892 182.947H356.282L351.352 186.738ZM353.611 172.985L343.892 168.988C343.892 168.988 358.854 168.711 363.321 166.467C360.928 169.3 353.611 172.95 353.611 172.95V172.985ZM452.458 189.493C450.585 190.246 440.069 191.836 437.725 196.423C435.38 201.01 448.333 205.306 448.333 205.306C446.196 208.487 445.042 214.011 445.042 214.011L431.505 203.438H434.469L421.893 191.652L429.218 194.172L419.735 182.947C419.735 182.947 431.277 182.762 434.697 185.19C438.116 187.619 435.259 178.09 432.816 176.116C439.862 177.898 448.967 176.116 448.967 176.116C448.967 176.116 443.617 180.519 440.232 183.131C436.848 185.744 438.166 188.002 446.709 186.88C455.251 185.759 456.755 185.19 456.755 185.19C456.755 185.19 454.339 188.712 452.458 189.458V189.493Z" fill="#EBEEEA" fill-opacity="0.4"/>
</svg>
