<svg width="1000" height="459" viewBox="0 0 1000 459" fill="none" xmlns="http://www.w3.org/2000/svg">
<path d="M697.206 466.61C695.889 455.795 686.028 485.299 629.464 442.031C660.206 448.504 673.534 438.419 681.425 432.765C664.405 437.443 658.979 430.801 658.979 430.801C658.979 430.801 692.276 419.247 689.563 409.667C686.85 400.086 685.612 421.221 649.107 409.667C612.602 398.112 611.127 377.459 611.127 377.459C611.127 377.459 617.048 375.743 617.532 371.065C633.201 378.323 652.934 374.015 659.846 369.349C642.702 370.47 633.955 363.078 633.955 363.078C633.955 363.078 643.816 356.437 647.767 348.82C640.237 352.88 615.123 345.454 596.91 316.007C617.633 315.019 625.693 305.843 616.812 299.617C627.989 301.086 640.45 292.404 639.325 289.622C628.473 292.729 613.997 291.091 610.384 286.671C606.771 282.251 598.002 271.426 598.002 271.426C598.002 271.426 605.24 274.219 609.596 272.413C613.952 270.607 614.2 267.926 617.082 268.89C619.963 269.855 621.933 267.982 620.042 264.628C618.151 261.273 616.913 259.546 612.399 257.661C607.885 255.776 601.626 250.93 599.24 240.699C596.854 230.468 593.24 230.603 593.24 230.603C593.24 230.603 593.938 180.66 582.963 179.549C571.988 178.439 578.888 206.832 569.264 217.893C559.639 228.954 558.288 231.669 548.923 232.028C539.557 232.387 542.63 242.483 551.388 244.199C546.762 246.78 534.616 244.693 534.616 244.693C537.214 247.044 540.251 248.862 543.554 250.044C548.36 251.514 556.499 251.166 556.499 251.166C556.499 251.166 554.9 259.456 561.193 261.857C560.45 265.906 543.306 273.075 543.306 273.075C543.306 273.075 554.72 264.908 550.701 261.408C546.683 257.908 543.857 261.341 538.432 262.384C533.006 263.427 531.734 262.979 521.378 261.015C511.022 259.052 506.182 256.797 497.052 250.919C487.923 245.041 479.109 234.025 479.109 234.025L487.687 234.148L481.642 227.877C481.642 227.877 496.749 228.741 505.878 227.507C515.007 226.273 520.849 222.649 519.363 218.162C517.877 213.675 514.309 213.866 509.378 212.755C504.448 211.644 502.838 208.268 497.66 206.282C492.482 204.297 489.105 206.607 485.278 202.434C481.451 198.261 462.832 188.827 457.643 179.078C468.258 181.703 479.188 175.881 478.614 171.786C478.04 167.692 474.337 170.889 470.059 170.474C465.782 170.059 464.431 164.742 464.431 164.742C464.431 164.742 472.164 167.277 479.481 165.067C486.798 162.857 488.486 155.318 487.867 153.927C487.248 152.536 484.749 152.94 479.729 153.434C474.708 153.927 468.472 151.549 467.639 146.793C466.806 142.036 461.808 135.9 456.956 134.262C458.268 133.951 459.451 133.247 460.347 132.243C461.243 131.24 461.808 129.987 461.966 128.653C462.996 130.062 464.414 131.145 466.047 131.77C467.681 132.395 469.461 132.536 471.174 132.175C477.094 130.863 475.451 123.201 471.995 120.206C468.539 117.21 465.095 114.305 462.63 105.465C460.165 96.6251 456.214 93.0017 456.214 86.9439C456.214 80.8861 450.957 56.655 445.52 57.1149C440.083 57.5749 441.906 67.4356 441.737 69.8923C441.569 72.3491 437.798 77.745 437.471 85.5977C437.145 93.4504 424.808 112.521 422.005 118.04C419.202 123.56 402.61 121.484 401.619 132.961C400.628 144.437 415.431 133.286 415.431 138.042C415.431 142.799 407.551 147.017 398.163 148.857C388.775 150.696 393.39 152.458 385.995 154.589C378.599 156.721 375.312 163.766 375.143 166.929C367.827 165.807 363.966 162.913 363.966 162.913C364.4 164.452 365.168 165.877 366.217 167.086C360.589 167.669 359.463 166.11 359.463 166.11C359.463 166.11 361.433 172.168 372.048 172.661C382.663 173.155 386.017 177.149 394.403 176.184C387.83 179.134 384.126 184.631 379.117 185.158C374.108 185.686 362.176 187.133 356.255 193.359C350.334 199.585 348.285 195.816 348.375 200.482C348.465 205.149 351.505 202.861 354.004 203.848C356.503 204.835 362.142 207.696 369.763 208.021C377.383 208.346 380.288 206.058 380.288 206.058C380.288 206.058 380.04 213.024 384.318 214.584C382.269 220.193 379.387 220.81 375.931 220.967C372.476 221.124 369.605 223.098 369.763 226.138C369.92 229.178 372.644 230.973 378.487 230.973C384.329 230.973 395.09 228.842 395.09 228.842C395.09 228.842 380.58 249.977 354.06 258.009L350.278 256.304C350.278 256.304 353.846 252.938 353.722 249.573C365.936 248.597 373.826 243.672 372.599 239.376C371.372 235.079 362.108 241.832 347.565 227.036C333.021 212.239 330.792 206.507 329.183 202.95C328.127 200.756 326.277 199.04 324.005 198.149C328.407 197.619 332.775 196.833 337.085 195.793C342.713 194.324 343.839 190.016 341.779 187.436C339.719 184.856 338.075 185.102 335.858 185.102C333.64 185.102 330.736 182.029 327.899 181.737C325.063 181.445 324.016 179.65 324.072 177.25C324.128 174.849 322.226 173.379 321.551 173.436C320.875 173.492 323.802 168.578 320.988 166.615C318.174 164.652 318.039 164.371 318.095 163.418C318.151 162.464 321.978 159.738 321.112 156.788C320.245 153.837 322.102 153.961 321.551 150.887C320.999 147.813 320.425 146.77 320.628 143.034C320.83 139.299 318.77 137.818 318.894 134.554C319.018 131.289 319.941 118.153 316.733 117.726C313.525 117.3 312.298 121.911 312.118 126.577C311.938 131.244 307.795 141.161 305.949 144.583C304.103 148.004 303.416 151.773 303.855 153.624C304.294 155.475 301.379 158.044 301.694 160.355C302.009 162.666 303.484 163.059 303.484 165.516C303.484 167.972 298.857 171.786 294.107 172.65C289.357 173.514 286.948 171.663 285.102 173.694C283.256 175.724 284.415 179.964 288.31 181.748C292.205 183.532 294.591 185.495 297.675 185.001C288.794 192.316 279.552 195.266 275.05 193.179C270.547 191.093 271.673 193.606 268.296 192.865C264.919 192.125 258.863 190.622 258.863 190.622C258.863 190.622 267.001 199.899 273.913 201.739C269.162 204.633 257.253 205.003 257.253 205.003C257.253 205.003 265.831 207.337 268.239 209.3C270.648 211.263 290.685 209.356 290.685 209.356C288.409 212.254 285.533 214.63 282.254 216.322C276.412 219.52 271.155 222.223 266.956 224.029C262.757 225.835 256.274 227.305 250.184 229.268C244.094 231.231 242.372 227.63 240.233 227.305C238.094 226.98 237.284 228.427 235.224 227.058C233.164 225.689 225.599 226.082 221.817 223.861C224.53 232.634 239.332 244.11 251.006 246.23C262.679 248.35 269.59 246.151 269.59 246.151C269.59 246.151 274.768 251.312 280.61 250.986C265.662 264.156 257.771 268.644 244.083 270.158C248.585 262.664 250.623 259.961 250.004 258.85C249.385 257.74 227.806 268.565 218.677 268.677C209.547 268.79 198.82 268.195 187.721 263.764C176.622 259.333 158.116 255.776 153.681 248.53C175.26 256.023 187.349 250.369 196.231 250.369C205.112 250.369 215.84 243.638 215.84 243.638C209.596 242.722 203.283 242.346 196.974 242.517C191.177 232.185 177.725 229.851 163.913 223.098C191.796 234.765 205.484 226.172 205.484 226.172C205.484 226.172 192.775 219.284 190.186 210.915C203.998 211.285 222.38 194.2 222.38 194.2C222.38 194.2 174.28 187.032 148.627 164.08C169.586 165.067 195.488 156.956 195.488 143.438C195.488 129.92 194.509 141.464 173.29 138.525C152.071 135.586 144.18 131.143 144.18 131.143C144.18 131.143 163.665 130.65 157.013 119.095C180.652 124.704 194.261 121.563 207.33 109.762C180.449 112.712 165.68 104.837 165.68 104.837C165.68 104.837 181.71 104.601 188.374 95.5033C177.522 93.7757 170.611 92.7997 155.313 91.5658C140.015 90.3318 138.968 86.1586 138.968 86.1586C138.968 86.1586 155.167 80.83 154.345 74.4469C153.523 68.0638 143.167 73.7738 127.329 57.0588C140.983 65.1022 148.053 60.514 148.053 60.514C143.406 55.8925 139.013 51.0243 134.894 45.9305C130.458 40.0297 125.686 35.4415 124.042 28.06C122.399 20.6785 125.855 17.2458 122.568 13.4765C119.281 9.70718 122.804 0.530762 118.2 0.530762C113.596 0.530762 116.557 4.79364 113.596 11.8386C110.636 18.8836 108.17 22.3276 108.339 29.6979C108.508 37.0682 89.9122 59.0332 83.6647 76.5671C90.1857 74.2347 95.9348 70.155 100.28 64.7769C100.28 64.7769 94.4373 79.1922 91.9721 84.3525C89.5069 89.5128 85.0606 91.5657 82.5166 96.4793C79.9726 101.393 77.665 100.967 73.1398 102.874C68.6147 104.781 67.883 106.89 67.7142 109.021C67.5453 111.153 68.9524 114.26 75.0309 114.63C65.5754 119.465 50.6153 126.106 45.5949 128.888C40.5744 131.671 44.0415 135.687 48.5554 136.921C53.0693 138.155 60.0709 140.028 68.3783 138.042C72.8161 137.1 77.1035 135.556 81.1208 133.454C79.2781 135.784 77.8086 138.383 76.7644 141.161C75.1998 145.502 33.7642 165.493 16.9806 167.378C30.6349 173.278 74.7045 165.661 86.2988 157.461C70.427 184.665 54.8929 186.875 42.5556 191.553C30.2184 196.231 21.8322 193.796 19.1194 197.162C16.4065 200.527 15.6748 217.074 53.9023 217.354C48.274 226.194 36.387 223.491 33.1788 228.415C29.9707 233.34 32.4471 241.193 43.3098 242.427C54.1724 243.661 49.2308 249.057 49.2308 249.057C45.73 254.408 42.1617 260.735 39.2799 261.946C36.3983 263.158 29.5992 258.177 25.4793 257.067C21.3594 255.956 12.4667 254.969 7.79523 247.868C17.5772 248.092 26.256 242.887 24.6801 238.781C23.1042 234.675 12.4442 234.787 6.43317 229.47C0.42215 224.153 -5.46509 221.045 -8.80829 213.944C-1.01871 216.278 7.88525 209.401 5.31873 205.407C2.75223 201.414 -5.23996 204.196 -15.1458 194.436C-2.90985 196.758 4.6546 189.006 3.21375 185.787C1.77289 182.567 -14.7968 184.239 -23.1492 169.386C-17.0706 171.562 -7.66013 170.16 -7.58133 168.017C-7.50253 165.875 -15.5172 164.652 -21.0893 154.858C-26.6613 145.065 -23.7571 139.153 -27.9896 134.755C-29.0252 132.097 -29.3966 100.092 -30.8037 100.17C-32.2108 100.249 -35.2501 115.763 -34.9574 120.565C-34.6648 125.366 -33.4716 129.651 -35.554 133.578C-37.1812 136.842 -37.867 140.493 -37.5352 144.123C-37.4564 147.297 -40.9122 149.07 -41.4637 151.437C-42.0153 153.804 -49.3434 155.43 -49.1745 157.136C-49.0056 158.841 -44.1315 159.862 -42.6457 160.748C-41.1598 161.634 -52.7766 168.511 -60.0709 169.105C-67.3652 169.7 -65.2715 171.988 -67.5678 171.843C-69.8641 171.697 -70.4608 170.508 -70.8322 171.102C-71.2037 171.697 -71.35 176.128 -66.9037 175.904C-62.4573 175.679 -62.2997 179.157 -58.7426 179.527C-56.3219 179.737 -53.8864 179.71 -51.4708 179.448C-51.4708 179.448 -54.3638 184.037 -57.0992 184.777C-59.8345 185.517 -64.5172 184.923 -65.2602 187.133C-66.0031 189.343 -62.5136 192.607 -58.0672 192.742C-55.2936 192.809 -52.5302 192.383 -49.9062 191.485C-49.9062 191.485 -57.617 198.429 -63.4704 198.957C-69.3239 199.484 -78.0139 199.17 -79.5674 201.021C-81.1208 202.872 -79.9388 205.508 -72.971 207.527C-66.0031 209.547 -65.778 211.959 -65.778 211.959C-65.778 211.959 -73.0385 212.62 -73.5563 214.034C-74.0741 215.447 -72.4306 218.757 -65.9919 218.903C-59.5531 219.048 -56.6489 217.063 -56.6489 217.063C-56.6489 217.063 -64.5285 222.088 -69.1888 225.555C-73.849 229.021 -83.5747 228.438 -86.2425 230.581C-88.9103 232.723 -94.1221 232.14 -96.5536 232.353C-98.985 232.566 -102.711 235.909 -97.6792 239.746C-92.6475 243.582 -80.693 243.964 -80.693 243.964C-80.693 243.964 -87.2219 251.357 -79.2072 254.06C-80.6142 259.759 -96.8575 266.703 -98.94 267.073C-101.022 267.443 -105.458 266.927 -107.833 268.397C-110.208 269.866 -111.21 274.758 -104.197 276.979C-97.1839 279.2 -92.4112 285.695 -82.4716 284.73C-86.9179 288.657 -102.869 295.376 -102.869 295.376C-102.869 295.376 -118.74 285.92 -126.158 275.184C-133.577 264.448 -140.792 254.486 -145.137 250.347C-128.252 254.834 -115.622 254.632 -107.461 253.454C-99.3002 252.276 -94.2685 250.594 -94.2685 249.135C-94.2685 247.677 -111.469 245.03 -113.99 243.852C-107.54 240.295 -108.576 235.786 -108.576 235.786C-108.576 235.786 -121.037 239.151 -133.937 227.215C-146.837 215.279 -162.303 197.173 -167.538 180.985C-155.623 194.243 -140.901 204.696 -124.436 211.588C-116.208 214.954 -98.6135 217.523 -87.5033 211.914C-99.4266 207.971 -110.596 202.051 -120.541 194.402C-120.541 194.402 -101.304 186.55 -104.636 172.785C-117.986 172.673 -133.779 167.58 -143.133 159.592C-152.488 151.605 -153.805 152.054 -153.805 152.054C-153.805 152.054 -137.348 141.744 -142.019 131.098C-143.021 128.989 -152.949 131.211 -160.367 126.477C-167.785 121.742 -169.192 121.989 -172.389 118.052C-165.782 119.533 -154.21 116.358 -155.775 109.997C-157.339 103.636 -166.603 102.907 -171.05 96.1764C-169.339 93.5177 -169.271 91.5994 -170.386 89.9728C-166.75 88.3462 -164.971 82.2884 -165.557 78.6649C-166.142 75.0415 -170.678 66.325 -175.282 60.8506C-179.886 55.3761 -181.361 24.4141 -183.511 24.56C-185.661 24.7058 -183.511 32.0312 -185.762 36.0136C-188.014 39.9961 -188.734 45.6276 -189.139 50.7318C-189.544 55.8361 -191.143 61.591 -194.036 64.8442C-196.929 68.0975 -200.193 70.902 -200.632 73.3475C-201.071 75.7931 -208.129 76.5896 -208.197 79.4053C-208.104 82.2901 -206.973 85.0454 -205.011 87.1683C-203.458 88.6378 -199.822 88.7163 -199.822 88.7163C-202.907 92.8576 -206.986 96.1596 -211.686 98.319C-219.172 101.572 -222.369 105.196 -222.661 107.484C-222.954 109.773 -220.737 112.813 -216.358 113.699C-211.979 114.585 -211.607 117.065 -208.275 117.323C-204.943 117.581 -204.898 113.957 -202.411 113.957C-199.923 113.957 -198.19 114.181 -198.111 115C-198.032 115.819 -205.461 118.77 -206.418 122.236C-207.375 125.702 -213.386 126.521 -217.168 127.711C-220.95 128.9 -226.365 128.002 -227.412 129.954C-228.459 131.906 -236.755 136.606 -236.98 139.119C-237.205 141.632 -228.819 141.554 -226.849 143.55C-224.879 145.547 -212.688 148.946 -210.606 149.025C-208.523 149.103 -208.534 149.687 -208.534 150.057C-208.534 150.427 -214.838 148.935 -218.024 152.503C-221.209 156.07 -220.77 159.233 -227.029 158.19C-233.288 157.147 -234.593 163.44 -244.015 164.697C-253.437 165.953 -291.574 162.363 -302.291 148.172C-297.293 158.482 -290.167 164.798 -288.501 169.016C-286.835 173.234 -279.777 172.168 -275.106 175.892C-270.434 179.617 -262.093 187.873 -258.311 186.751C-260.979 189.634 -279.113 193.179 -288.344 188.524C-284.01 194.739 -272.438 196.736 -269.32 198.946C-266.202 201.155 -254.686 203.276 -248.968 201.503C-243.25 199.731 -232.162 199.619 -232.162 199.619C-231.655 200.246 -230.971 200.707 -230.199 200.943C-229.426 201.179 -228.601 201.179 -227.828 200.942C-229.055 203.713 -238.837 208.043 -244.51 213.585C-250.184 219.127 -284.899 236.414 -295.796 235.202C-292.677 240.408 -280.779 245.837 -271.661 246.622C-262.544 247.408 -247.403 245.949 -247.403 245.949C-247.403 245.949 -247.077 252.826 -258.863 255.597C-249.632 261.139 -228.83 259.03 -228.83 259.03C-228.83 259.03 -235.73 260.813 -244.51 270.786C-253.291 280.759 -274.149 282.431 -278.888 287.299C-283.627 292.168 -298.351 297.721 -303.653 297.721C-308.955 297.721 -324.117 300.167 -327.46 298.058C-330.804 295.949 -336.466 300.054 -327.899 309.59C-319.333 319.125 -315.326 320.449 -306.985 320.449C-298.644 320.449 -279.293 319.327 -279.293 319.327C-279.293 319.327 -305.87 334.965 -306.658 337.276C-307.446 339.587 -304.767 345.701 -293.859 344.927C-282.952 344.153 -259.819 338.275 -252.142 330.848C-252.919 337.276 -248.765 338.948 -245.805 339.06C-242.844 339.172 -234.008 336.177 -224.89 327.64C-229.562 335.492 -249.216 359.421 -267.755 369.147C-286.295 378.873 -306.76 381.128 -308.279 385.559C-309.799 389.99 -309.022 396.642 -295.086 397.529C-281.151 398.415 -271.2 399.155 -271.2 399.155C-271.2 399.155 -294.343 424.43 -309.315 433C-324.286 441.571 -341.509 443.209 -346.844 441.874C-352.18 440.539 -354.262 447.191 -347.734 450.848C-341.205 454.505 -336.612 455.134 -334.53 456.614C-332.447 458.095 -322.823 456.469 -316.587 458.387C-310.35 460.305 -289.301 453.9 -289.301 453.9C-289.875 454.933 -290.1 456.124 -289.939 457.295C-289.779 458.465 -289.243 459.553 -288.411 460.395C-300.861 467.933 -302.347 477.693 -307.986 480.06C-313.626 482.427 -337.997 489.876 -343.377 497.605H659.024C659.024 497.605 698.523 477.424 697.206 466.61ZM-135.276 345.622C-138.175 342.779 -140.185 339.159 -141.062 335.201L-125.933 343.177C-125.933 343.177 -131.044 344.287 -135.276 345.622ZM-113.697 325.856L-101.236 326.742L-106.797 332.721L-113.697 325.856ZM-86.7716 387.264C-93.3693 384.402 -99.1179 379.898 -103.465 374.184C-91.2179 378.839 -72.9822 376.427 -72.9822 376.427L-86.7716 387.264ZM202.006 308.591L199.338 301.49L206.013 294.176L214.692 303.05L202.006 308.591ZM366.206 317.241L358.191 309.253H371.541L366.206 317.241ZM377.991 295.567L366.206 289.577H385.781L377.991 295.567ZM381.56 273.838L366.206 267.522C366.206 267.522 389.845 267.084 396.902 263.539C393.12 268.015 381.56 273.782 381.56 273.782V273.838ZM537.734 299.92C534.773 301.109 518.159 303.622 514.455 310.869C510.752 318.116 531.216 324.902 531.216 324.902C527.839 329.928 526.016 338.656 526.016 338.656L504.628 321.952H509.311L489.443 303.33L501.015 307.312L486.032 289.577C486.032 289.577 504.268 289.285 509.671 293.122C515.074 296.958 510.56 281.903 506.699 278.785C517.832 281.601 532.218 278.785 532.218 278.785C532.218 278.785 523.764 285.74 518.418 289.868C513.071 293.997 515.153 297.564 528.65 295.792C542.146 294.019 544.522 293.122 544.522 293.122C544.522 293.122 540.706 298.686 537.734 299.864V299.92Z" fill="#EBEEEA" fill-opacity="0.4"/>
<path d="M1019.06 494.605C1018.23 487.76 1011.99 506.434 976.184 479.048C995.642 483.145 1004.08 476.762 1009.07 473.183C998.299 476.144 994.865 471.941 994.865 471.941C994.865 471.941 1015.94 464.627 1014.22 458.564C1012.51 452.5 1011.72 465.877 988.617 458.564C965.512 451.25 964.578 438.179 964.578 438.179C964.578 438.179 968.326 437.092 968.632 434.131C978.55 438.725 991.039 435.999 995.414 433.045C984.563 433.755 979.027 429.076 979.027 429.076C979.027 429.076 985.268 424.873 987.769 420.051C983.003 422.622 967.108 417.921 955.58 399.283C968.696 398.658 973.798 392.85 968.176 388.909C975.251 389.84 983.138 384.344 982.426 382.583C975.557 384.55 966.395 383.513 964.108 380.716C961.821 377.918 956.271 371.066 956.271 371.066C956.271 371.066 960.852 372.834 963.609 371.691C966.367 370.548 966.523 368.851 968.347 369.462C970.171 370.072 971.418 368.887 970.221 366.764C969.024 364.641 968.24 363.547 965.383 362.354C962.526 361.161 958.565 358.094 957.055 351.619C955.544 345.143 953.257 345.228 953.257 345.228C953.257 345.228 953.699 313.618 946.752 312.915C939.806 312.212 944.173 330.183 938.082 337.184C931.99 344.185 931.135 345.903 925.207 346.13C919.28 346.357 921.225 352.748 926.768 353.834C923.839 355.467 916.152 354.146 916.152 354.146C917.796 355.634 919.718 356.785 921.809 357.533C924.851 358.463 930.002 358.243 930.002 358.243C930.002 358.243 928.991 363.49 932.973 365.01C932.503 367.573 921.652 372.11 921.652 372.11C921.652 372.11 928.877 366.941 926.333 364.726C923.789 362.511 922.001 364.683 918.567 365.344C915.133 366.004 914.328 365.72 907.773 364.477C901.218 363.235 898.155 361.808 892.377 358.087C886.599 354.366 881.02 347.394 881.02 347.394L886.449 347.472L882.623 343.503C882.623 343.503 892.184 344.05 897.962 343.269C903.741 342.488 907.438 340.194 906.498 337.354C905.557 334.514 903.299 334.635 900.178 333.932C897.058 333.229 896.039 331.092 892.761 329.835C889.484 328.578 887.347 330.041 884.924 327.399C882.502 324.758 870.718 318.787 867.433 312.617C874.152 314.278 881.07 310.593 880.706 308.001C880.343 305.41 877.999 307.433 875.292 307.171C872.584 306.908 871.729 303.542 871.729 303.542C871.729 303.542 876.624 305.147 881.255 303.748C885.886 302.35 886.955 297.578 886.563 296.698C886.171 295.817 884.589 296.073 881.412 296.385C878.234 296.698 874.287 295.192 873.76 292.182C873.233 289.171 870.069 285.287 866.999 284.251C867.829 284.054 868.578 283.608 869.145 282.973C869.712 282.338 870.07 281.545 870.169 280.701C870.821 281.593 871.719 282.278 872.753 282.674C873.787 283.069 874.913 283.158 875.997 282.93C879.745 282.099 878.704 277.25 876.517 275.354C874.33 273.458 872.15 271.619 870.589 266.024C869.029 260.429 866.528 258.136 866.528 254.302C866.528 250.467 863.201 235.131 859.76 235.422C856.319 235.713 857.473 241.954 857.366 243.509C857.259 245.064 854.872 248.479 854.666 253.45C854.459 258.42 846.651 270.49 844.876 273.984C843.102 277.477 832.601 276.164 831.974 283.427C831.347 290.691 840.716 283.633 840.716 286.644C840.716 289.654 835.728 292.324 829.786 293.488C823.844 294.653 826.766 295.768 822.085 297.117C817.404 298.466 815.323 302.925 815.216 304.927C810.585 304.217 808.142 302.385 808.142 302.385C808.416 303.359 808.903 304.261 809.567 305.026C806.004 305.396 805.292 304.409 805.292 304.409C805.292 304.409 806.539 308.243 813.257 308.555C819.976 308.868 822.099 311.395 827.407 310.785C823.246 312.652 820.902 316.131 817.731 316.465C814.561 316.799 807.009 317.715 803.261 321.655C799.514 325.596 798.217 323.21 798.274 326.164C798.331 329.118 800.255 327.669 801.836 328.294C803.418 328.919 806.987 330.729 811.811 330.935C816.634 331.141 818.472 329.693 818.472 329.693C818.472 329.693 818.316 334.102 821.023 335.089C819.726 338.639 817.902 339.03 815.715 339.129C813.528 339.229 811.711 340.478 811.811 342.402C811.911 344.327 813.635 345.463 817.332 345.463C821.03 345.463 827.841 344.114 827.841 344.114C827.841 344.114 818.658 357.491 801.872 362.574L799.478 361.495C799.478 361.495 801.737 359.365 801.658 357.235C809.388 356.617 814.383 353.5 813.606 350.781C812.83 348.061 806.966 352.336 797.761 342.97C788.556 333.605 787.145 329.977 786.126 327.726C785.458 326.337 784.287 325.251 782.849 324.687C785.635 324.352 788.4 323.854 791.128 323.196C794.69 322.266 795.403 319.539 794.099 317.906C792.795 316.273 791.755 316.429 790.351 316.429C788.948 316.429 787.11 314.484 785.314 314.299C783.519 314.115 782.856 312.979 782.892 311.459C782.927 309.94 781.723 309.01 781.296 309.045C780.868 309.081 782.721 305.971 780.94 304.728C779.158 303.486 779.073 303.308 779.108 302.705C779.144 302.101 781.567 300.376 781.018 298.508C780.469 296.641 781.645 296.719 781.296 294.773C780.947 292.828 780.583 292.168 780.712 289.803C780.84 287.439 779.536 286.502 779.614 284.435C779.693 282.369 780.277 274.055 778.246 273.785C776.216 273.515 775.439 276.433 775.325 279.387C775.211 282.341 772.589 288.618 771.421 290.783C770.253 292.949 769.818 295.334 770.096 296.506C770.374 297.678 768.528 299.303 768.728 300.766C768.927 302.229 769.861 302.477 769.861 304.032C769.861 305.587 766.932 308.001 763.926 308.548C760.919 309.095 759.395 307.923 758.226 309.208C757.058 310.494 757.791 313.177 760.257 314.306C762.722 315.435 764.232 316.678 766.184 316.366C760.563 320.995 754.714 322.862 751.864 321.542C749.014 320.221 749.726 321.811 747.589 321.343C745.452 320.874 741.618 319.923 741.618 319.923C741.618 319.923 746.77 325.795 751.144 326.959C748.138 328.791 740.6 329.025 740.6 329.025C740.6 329.025 746.029 330.502 747.553 331.745C749.078 332.987 761.76 331.78 761.76 331.78C760.319 333.615 758.499 335.119 756.423 336.19C752.726 338.213 749.399 339.924 746.741 341.068C744.084 342.211 739.98 343.141 736.125 344.383C732.271 345.626 731.181 343.347 729.827 343.141C728.473 342.935 727.96 343.851 726.657 342.985C725.353 342.118 720.565 342.367 718.171 340.961C719.888 346.514 729.257 353.777 736.645 355.119C744.034 356.461 748.408 355.069 748.408 355.069C748.408 355.069 751.686 358.336 755.383 358.13C745.922 366.465 740.927 369.306 732.264 370.264C735.114 365.521 736.403 363.81 736.011 363.107C735.619 362.404 721.961 369.256 716.183 369.327C710.405 369.398 703.615 369.021 696.59 366.217C689.565 363.412 677.853 361.161 675.045 356.575C688.703 361.318 696.355 357.739 701.977 357.739C707.598 357.739 714.388 353.479 714.388 353.479C710.436 352.899 706.44 352.661 702.447 352.769C698.778 346.229 690.264 344.753 681.522 340.478C699.17 347.863 707.833 342.424 707.833 342.424C707.833 342.424 699.789 338.064 698.151 332.767C706.893 333.002 718.527 322.188 718.527 322.188C718.527 322.188 688.084 317.651 671.846 303.123C685.113 303.748 701.506 298.615 701.506 290.059C701.506 281.503 700.887 288.809 687.457 286.949C674.027 285.089 669.032 282.277 669.032 282.277C669.032 282.277 681.365 281.965 677.154 274.651C692.116 278.201 700.73 276.213 709.002 268.744C691.988 270.611 682.64 265.627 682.64 265.627C682.64 265.627 692.786 265.478 697.004 259.719C690.135 258.626 685.761 258.008 676.078 257.227C666.396 256.446 665.733 253.805 665.733 253.805C665.733 253.805 675.986 250.432 675.466 246.392C674.946 242.352 668.391 245.966 658.367 235.386C667.009 240.477 671.483 237.573 671.483 237.573C668.542 234.648 665.762 231.567 663.154 228.343C660.347 224.608 657.326 221.704 656.286 217.032C655.246 212.36 657.433 210.187 655.353 207.802C653.272 205.416 655.502 199.608 652.588 199.608C649.674 199.608 651.548 202.306 649.674 206.765C647.801 211.224 646.24 213.404 646.347 218.069C646.454 222.734 634.684 236.636 630.73 247.734C634.857 246.258 638.496 243.675 641.246 240.271C641.246 240.271 637.548 249.395 635.988 252.661C634.428 255.928 631.613 257.227 630.003 260.337C628.393 263.447 626.932 263.177 624.068 264.384C621.204 265.591 620.741 266.926 620.634 268.275C620.527 269.624 621.418 271.591 625.265 271.825C619.28 274.885 609.812 279.089 606.634 280.85C603.457 282.611 605.651 285.153 608.508 285.934C611.365 286.715 615.797 287.9 621.055 286.644C623.863 286.047 626.577 285.07 629.12 283.74C627.953 285.214 627.023 286.859 626.362 288.618C625.372 291.365 599.146 304.018 588.523 305.211C597.165 308.946 625.059 304.125 632.397 298.934C622.351 316.153 612.519 317.551 604.711 320.512C596.902 323.473 591.594 321.932 589.877 324.062C588.16 326.192 587.697 336.665 611.892 336.843C608.33 342.438 600.806 340.727 598.776 343.844C596.745 346.961 598.313 351.931 605.188 352.712C612.063 353.493 608.935 356.908 608.935 356.908C606.72 360.295 604.461 364.3 602.637 365.067C600.813 365.833 596.51 362.681 593.902 361.978C591.295 361.275 585.666 360.65 582.709 356.156C588.901 356.298 594.394 353.003 593.397 350.404C592.399 347.806 585.652 347.877 581.847 344.511C578.043 341.146 574.317 339.179 572.201 334.684C577.131 336.161 582.766 331.809 581.142 329.281C579.518 326.753 574.459 328.514 568.189 322.337C575.934 323.807 580.722 318.9 579.81 316.863C578.898 314.825 568.41 315.883 563.124 306.482C566.971 307.859 572.927 306.972 572.977 305.616C573.027 304.26 567.954 303.486 564.428 297.287C560.901 291.088 562.739 287.347 560.06 284.563C559.405 282.88 559.17 262.623 558.279 262.673C557.388 262.723 555.465 272.542 555.65 275.581C555.835 278.62 556.59 281.333 555.272 283.818C554.242 285.884 553.808 288.194 554.018 290.492C554.068 292.501 551.881 293.623 551.532 295.121C551.183 296.62 546.545 297.649 546.651 298.728C546.758 299.808 549.843 300.454 550.784 301.015C551.724 301.576 544.372 305.928 539.755 306.304C535.138 306.681 536.463 308.129 535.01 308.037C533.556 307.945 533.179 307.192 532.944 307.568C532.708 307.945 532.616 310.749 535.43 310.607C538.244 310.465 538.344 312.666 540.595 312.901C542.128 313.033 543.669 313.017 545.198 312.851C545.198 312.851 543.367 315.755 541.636 316.224C539.904 316.692 536.941 316.316 536.47 317.715C536 319.113 538.209 321.18 541.023 321.265C542.778 321.307 544.527 321.038 546.188 320.47C546.188 320.47 541.308 324.865 537.603 325.198C533.898 325.532 528.398 325.333 527.415 326.505C526.432 327.676 527.18 329.345 531.59 330.623C536 331.901 536.143 333.428 536.143 333.428C536.143 333.428 531.547 333.847 531.219 334.741C530.892 335.636 531.932 337.73 536.007 337.823C540.083 337.915 541.921 336.658 541.921 336.658C541.921 336.658 536.933 339.839 533.984 342.033C531.034 344.227 524.878 343.858 523.19 345.214C521.501 346.57 518.203 346.201 516.664 346.336C515.125 346.471 512.766 348.587 515.951 351.015C519.136 353.443 526.702 353.685 526.702 353.685C526.702 353.685 522.57 358.364 527.643 360.075C526.752 363.682 516.471 368.077 515.153 368.311C513.835 368.546 511.028 368.219 509.525 369.149C508.021 370.079 507.387 373.175 511.826 374.581C516.265 375.987 519.286 380.098 525.577 379.487C522.762 381.972 512.667 386.226 512.667 386.226C512.667 386.226 502.621 380.24 497.926 373.445C493.231 366.65 488.664 360.345 485.914 357.725C496.601 360.565 504.594 360.437 509.76 359.692C514.925 358.946 518.11 357.881 518.11 356.958C518.11 356.035 507.223 354.359 505.628 353.614C509.71 351.363 509.054 348.509 509.054 348.509C509.054 348.509 501.167 350.639 493.003 343.084C484.838 335.529 475.048 324.069 471.735 313.824C479.277 322.215 488.595 328.831 499.016 333.193C504.224 335.323 515.36 336.949 522.392 333.399C514.845 330.904 507.776 327.157 501.481 322.316C501.481 322.316 513.657 317.345 511.548 308.633C503.098 308.562 493.102 305.339 487.182 300.283C481.261 295.228 480.428 295.512 480.428 295.512C480.428 295.512 490.844 288.987 487.887 282.249C487.253 280.914 480.969 282.32 476.274 279.323C471.579 276.327 470.688 276.483 468.665 273.991C472.847 274.928 480.171 272.919 479.181 268.893C478.19 264.867 472.327 264.405 469.512 260.145C470.595 258.462 470.638 257.248 469.933 256.219C472.234 255.189 473.36 251.355 472.989 249.062C472.619 246.768 469.748 241.251 466.834 237.786C463.92 234.321 462.986 214.724 461.625 214.817C460.265 214.909 461.625 219.546 460.201 222.066C458.776 224.587 458.32 228.151 458.063 231.382C457.807 234.612 456.795 238.255 454.964 240.314C453.133 242.373 451.067 244.148 450.789 245.696C450.511 247.244 446.044 247.748 446.001 249.53C446.06 251.356 446.775 253.1 448.017 254.444C449.001 255.374 451.302 255.424 451.302 255.424C449.349 258.045 446.767 260.135 443.792 261.501C439.054 263.56 437.031 265.854 436.846 267.302C436.661 268.751 438.064 270.675 440.836 271.236C443.607 271.797 443.842 273.366 445.951 273.529C448.06 273.693 448.089 271.399 449.663 271.399C451.238 271.399 452.335 271.541 452.385 272.06C452.435 272.578 447.732 274.445 447.127 276.639C446.521 278.833 442.717 279.352 440.323 280.104C437.929 280.857 434.502 280.289 433.839 281.524C433.177 282.76 427.926 285.735 427.783 287.325C427.641 288.916 432.949 288.866 434.195 290.13C435.442 291.394 443.158 293.545 444.476 293.595C445.794 293.645 445.787 294.014 445.787 294.248C445.787 294.482 441.797 293.538 439.781 295.796C437.765 298.054 438.043 300.056 434.081 299.396C430.12 298.735 429.294 302.719 423.33 303.514C417.367 304.309 393.228 302.037 386.446 293.055C389.609 299.58 394.119 303.578 395.174 306.248C396.228 308.917 400.695 308.243 403.652 310.6C406.609 312.957 411.888 318.183 414.282 317.473C412.593 319.298 401.116 321.542 395.273 318.595C398.016 322.529 405.34 323.792 407.314 325.191C409.288 326.59 416.576 327.932 420.195 326.81C423.815 325.688 430.833 325.617 430.833 325.617C431.153 326.014 431.586 326.306 432.075 326.456C432.564 326.605 433.087 326.605 433.576 326.455C432.799 328.209 426.608 330.95 423.017 334.457C419.426 337.965 397.453 348.906 390.557 348.139C392.53 351.434 400.061 354.871 405.832 355.368C411.603 355.865 421.186 354.942 421.186 354.942C421.186 354.942 421.392 359.294 413.933 361.048C419.775 364.555 432.941 363.221 432.941 363.221C432.941 363.221 428.574 364.35 423.017 370.662C417.46 376.974 404.258 378.032 401.258 381.113C398.259 384.195 388.939 387.71 385.584 387.71C382.228 387.71 372.631 389.257 370.515 387.923C368.399 386.588 364.815 389.186 370.237 395.222C375.659 401.257 378.195 402.095 383.475 402.095C388.754 402.095 401.002 401.385 401.002 401.385C401.002 401.385 384.18 411.283 383.681 412.745C383.183 414.208 384.878 418.078 391.782 417.588C398.686 417.098 413.327 413.377 418.186 408.677C417.695 412.745 420.324 413.803 422.197 413.874C424.071 413.945 429.664 412.049 435.435 406.646C432.478 411.616 420.039 426.761 408.304 432.917C396.57 439.073 383.617 440.5 382.655 443.305C381.694 446.11 382.185 450.32 391.006 450.881C399.826 451.442 406.124 451.911 406.124 451.911C406.124 451.911 391.476 467.908 382 473.332C372.524 478.757 361.623 479.794 358.246 478.949C354.869 478.104 353.551 482.314 357.683 484.629C361.816 486.944 364.723 487.341 366.041 488.278C367.359 489.216 373.45 488.186 377.397 489.4C381.345 490.614 394.668 486.56 394.668 486.56C394.304 487.214 394.162 487.968 394.263 488.709C394.365 489.45 394.704 490.138 395.231 490.671C387.351 495.443 386.41 501.62 382.841 503.118C379.271 504.616 363.846 509.331 360.441 514.223H994.894C994.894 514.223 1019.89 501.45 1019.06 494.605ZM492.155 418.028C490.32 416.228 489.048 413.937 488.493 411.432L498.068 416.48C498.068 416.48 494.834 417.183 492.155 418.028ZM505.813 405.517L513.7 406.078L510.18 409.863L505.813 405.517ZM522.855 444.384C518.679 442.573 515.041 439.722 512.289 436.105C520.041 439.052 531.583 437.525 531.583 437.525L522.855 444.384ZM705.632 394.59L703.943 390.095L708.168 385.466L713.661 391.082L705.632 394.59ZM809.559 400.064L804.487 395.009H812.937L809.559 400.064ZM817.019 386.346L809.559 382.555H821.949L817.019 386.346ZM819.277 372.593L809.559 368.595C809.559 368.595 824.521 368.319 828.988 366.075C826.595 368.908 819.277 372.557 819.277 372.557V372.593ZM918.125 389.101C916.252 389.854 905.736 391.444 903.392 396.031C901.047 400.618 914 404.914 914 404.914C911.863 408.095 910.709 413.619 910.709 413.619L897.172 403.046H900.135L887.56 391.26L894.885 393.78L885.402 382.555C885.402 382.555 896.944 382.37 900.364 384.798C903.783 387.227 900.926 377.698 898.483 375.724C905.529 377.506 914.634 375.724 914.634 375.724C914.634 375.724 909.284 380.126 905.899 382.739C902.515 385.352 903.833 387.61 912.376 386.488C920.918 385.366 922.422 384.798 922.422 384.798C922.422 384.798 920.006 388.32 918.125 389.066V389.101Z" fill="#EBEEEA" fill-opacity="0.8"/>
</svg>
