<svg width="19" height="19" viewBox="0 0 19 19" fill="none" xmlns="http://www.w3.org/2000/svg">
<path fill-rule="evenodd" clip-rule="evenodd" d="M17.0285 5.00085C17.1725 4.12733 16.2978 3.43739 15.4819 3.78094L2.6567 9.18106C1.76238 9.55756 1.71656 10.8504 2.65733 11.2404C3.35339 11.5289 4.41867 11.952 5.48706 12.3043C6.36341 12.5932 7.31875 12.8614 8.08407 12.9373C8.2936 13.1879 8.5573 13.4287 8.8252 13.649C9.23545 13.9864 9.72947 14.3345 10.2394 14.6677C11.2606 15.335 12.3937 15.9734 13.1574 16.3883C14.0701 16.884 15.1627 16.3132 15.3268 15.3184L17.0285 5.00085ZM4.09506 10.2029L15.4379 5.427L13.8496 15.0572C13.1007 14.65 12.0212 14.0401 11.0599 13.412C10.5736 13.0942 10.1294 12.7795 9.77792 12.4904C9.65275 12.3875 9.54677 12.2937 9.4585 12.2098L12.4293 9.23888C12.7222 8.94601 12.7222 8.47111 12.4293 8.17823C12.1364 7.88534 11.6615 7.88534 11.3687 8.17823L8.11499 11.4319C7.56491 11.3615 6.79808 11.1571 5.95674 10.8797C5.30925 10.6662 4.65823 10.4237 4.09506 10.2029Z" fill="#fff"/>
</svg>
