<svg width="19" height="19" viewBox="0 0 19 19" fill="none" xmlns="http://www.w3.org/2000/svg">
<path d="M9.64941 1.95862C13.7915 1.95862 17.1494 5.31648 17.1494 9.45862C17.1494 13.6007 13.7915 16.9586 9.64941 16.9586C8.32669 16.9586 7.08223 16.6156 6.00211 16.0134L5.7732 15.8804L3.49923 16.5493C2.95143 16.7104 2.44058 16.2333 2.53932 15.6906L2.55877 15.6088L3.22758 13.3348C2.5432 12.2032 2.14941 10.8758 2.14941 9.45862C2.14941 5.31648 5.50728 1.95862 9.64941 1.95862ZM9.64941 3.45862C6.3357 3.45862 3.64941 6.14491 3.64941 9.45862C3.64941 10.6413 3.99081 11.7419 4.58015 12.67C4.72893 12.9043 4.79222 13.1922 4.7418 13.4778L4.71315 13.5999L4.38192 14.7261L5.50812 14.3949C5.83248 14.2995 6.17027 14.3578 6.43804 14.5279C7.36614 15.1172 8.46674 15.4586 9.64941 15.4586C12.9631 15.4586 15.6494 12.7723 15.6494 9.45862C15.6494 6.14491 12.9631 3.45862 9.64941 3.45862ZM7.47563 5.84668C7.63751 5.7773 7.83358 5.78999 7.98858 5.90306C8.3669 6.17903 8.66728 6.54919 8.92522 6.9112L9.17034 7.26671C9.20928 7.32425 9.24736 7.38061 9.28476 7.43533C9.42165 7.63553 9.40588 7.90154 9.25078 8.08309L9.19394 8.14027L8.50139 8.65462C8.43276 8.70562 8.40989 8.79824 8.45106 8.87324C8.60781 9.15847 8.88696 9.58289 9.20639 9.90232C9.52619 10.2221 9.97071 10.5193 10.2755 10.6936C10.3414 10.7313 10.4214 10.7194 10.4752 10.6704L10.504 10.6366L10.9546 9.95024C11.1273 9.72037 11.4499 9.67012 11.6845 9.83242L12.0916 10.1162C12.4962 10.405 12.8857 10.7154 13.1935 11.1097C13.3148 11.265 13.3328 11.468 13.2605 11.6368C12.9635 12.3298 12.2118 12.9201 11.4299 12.8913L11.311 12.8844L11.1671 12.8702C11.1411 12.8671 11.1141 12.8635 11.0862 12.8596L10.908 12.83C10.2152 12.6992 9.10387 12.3064 7.95312 11.1556C6.80239 10.0049 6.40954 8.89354 6.27871 8.20077L6.24916 8.02249L6.23036 7.86668L6.22008 7.73505C6.21896 7.71522 6.21809 7.69647 6.21744 7.67883C6.18863 6.89582 6.78207 6.14392 7.47563 5.84668Z" fill="#fff"/>
</svg>
